<svg id="_圖層_1" data-name="圖層_1" xmlns="http://www.w3.org/2000/svg" xmlns:xlink="http://www.w3.org/1999/xlink" version="1.1" viewBox="0 0 500 150">
  <!-- Generator: Adobe Illustrator 30.4.0, SVG Export Plug-In . SVG Version: 2.1.4 Build 226)  -->
  <defs>
    <style>
      .st0 {
        fill: url(#_未命名漸層_14);
      }

      .st1 {
        fill: #fff;
      }

      .st2 {
        fill: #5ecad6;
      }

      .st3 {
        fill: #25a3a8;
      }
    </style>
    <linearGradient id="_未命名漸層_14" data-name="未命名漸層 14" x1="24.94" y1="76.15" x2="112.06" y2="76.15" gradientUnits="userSpaceOnUse">
      <stop offset="0" stop-color="#5ecad6"/>
      <stop offset=".23" stop-color="#59c7d2"/>
      <stop offset=".48" stop-color="#4cbec8"/>
      <stop offset=".73" stop-color="#37afb7"/>
      <stop offset=".9" stop-color="#25a3a8"/>
    </linearGradient>
  </defs>
  <g>
    <g>
      <path class="st0" d="M110.95,85.43l-23.42-48.06c-2.55-5.24-7.74-8.26-13.57-7.91-2.37.15-4.64.86-6.59,2.06-2.36-1.42-5.13-1.98-7.98-1.82-5.02.23-10.44,3.82-12.31,9.25l-21.74,63.37c-1.32,3.84.73,8.06,4.56,9.41,1.88.66,3.9.55,5.7-.32,1.79-.87,3.14-2.39,3.78-4.27l23.25-67.77c.32-.93.74-1.83,1.24-2.65.76-1.24,2.08-1.99,3.52-2,0,0,.02,0,.03,0,1.41,0,2.7.72,3.45,1.92.27.43.52.89.75,1.35l27.88,58.25c.27.55,1.63,3.61,1.75,4.28.37,2.08.19,3.79-1.5,5.67-1.04,1.16-2.29,1.67-3.97,1.84-.77.08-2.33-.02-2.95,0h-36.65c-2.04,0-4.03.84-5.48,2.31-1.4,1.43-2.16,3.28-2.13,5.23.07,4.02,3.39,7.29,7.41,7.29h27.31c6.7,0,12.85-2.96,16.4-8.96,1.07-1.81,1.9-3.72,2.36-5.74,3.31-1.73,5.84-4.36,7.46-7.07,2.41-4.05,3.56-9.8,1.44-15.65Z"/>
      <circle class="st3" cx="32.37" cy="104.73" r="7.43"/>
      <circle class="st2" cx="56.01" cy="115.43" r="7.43"/>
    </g>
    <g>
      <g>
        <path class="st2" d="M244.7,78.74h-13.33c-1.92,0-3.47-1.55-3.47-3.47s1.55-3.47,3.47-3.47h13.33c1.92,0,3.47,1.55,3.47,3.47s-1.55,3.47-3.47,3.47Z"/>
        <path class="st2" d="M244.53,56.33h-12.51c-2.01,0-3.64-1.63-3.64-3.64s1.63-3.64,3.64-3.64h12.51c2.01,0,3.64,1.63,3.64,3.64s-1.63,3.64-3.64,3.64Z"/>
        <path class="st2" d="M230.02,113.68c-1.58,0-3.03-1.05-3.46-2.65-.52-1.91.61-3.89,2.53-4.4,7.34-1.99,11.9-8.35,11.9-14.47v-16.32c0-1.98,1.61-3.59,3.59-3.59s3.59,1.61,3.59,3.59v16.32c0,9.36-6.75,18.57-17.21,21.4-.31.09-.63.13-.94.13Z"/>
        <path class="st2" d="M277.09,113.73c-7.42,0-14.49-.34-18.41-1.16-9.48-1.98-15.07-6.58-18.13-14.92-.68-1.86.27-3.92,2.14-4.61,1.86-.68,3.92.27,4.61,2.14,2.19,5.98,5.79,8.88,12.85,10.36,7.62,1.59,30.59,1.08,39.1-.11,1.98-.28,3.78,1.1,4.05,3.06.28,1.96-1.09,3.78-3.06,4.05-5.09.71-14.37,1.19-23.15,1.19Z"/>
        <path class="st2" d="M251.1,67.95c-1.08,0-2.14-.52-2.8-1.5-1.07-1.57-.67-3.73.87-4.81,5.93-4.15,14.98-12.99,18.25-17.79,1.63-2.39,4.15-3.85,6.9-3.98,2.81-.14,5.5,1.08,7.37,3.34,4.25,5.11,16.13,15.89,20.16,18.53,1.58,1.03,2.04,3.17,1.02,4.78-1.01,1.61-3.11,2.07-4.7,1.04-4.96-3.24-17.49-14.84-21.68-19.89-.5-.6-1.17-.92-1.85-.89-.64.03-1.21.38-1.63,1.01-1.04,1.53-11.71,13.76-19.99,19.55-.59.41-1.26.61-1.92.61Z"/>
        <path class="st2" d="M286.54,65.43h-23.07c-1.69,0-3.06-1.37-3.06-3.06s1.37-3.06,3.06-3.06h23.07c1.69,0,3.06,1.37,3.06,3.06s-1.37,3.06-3.06,3.06Z"/>
        <path class="st2" d="M295.31,78.36h-40.61c-1.69,0-3.06-1.37-3.06-3.06s1.37-3.06,3.06-3.06h40.61c1.69,0,3.06,1.37,3.06,3.06s-1.37,3.06-3.06,3.06Z"/>
        <path class="st2" d="M271.01,102c-.53,0-1.45,0-2.06-.01-.82,0-.42-.02-1.48-.02-1.84,0-3.32-1.49-3.32-3.32s1.49-3.32,3.32-3.32c1.08,0,.7,0,1.54.02,1.11.01,2.24.02,3.04,0,0-.39,0-.83,0-1.25v-30.55c0-1.84,1.49-3.32,3.32-3.32s3.67,1.49,3.67,3.32v30.54c0,2.62,0,4.68-1.61,6.28-1.47,1.45-3.26,1.65-6.43,1.65Z"/>
        <path class="st2" d="M255.42,96.74c-1.25.17-2.55-.39-3.26-1.53-.98-1.55-.51-3.61,1.05-4.58,3.32-2.08,5.73-4.45,7.83-7.69,1-1.54,3.06-1.98,4.6-.98,1.54,1,1.98,3.06.98,4.6-2.62,4.04-5.75,7.12-9.87,9.71-.42.26-.87.42-1.32.48Z"/>
        <path class="st2" d="M295.38,97.4c-.95-.12-1.85-.65-2.4-1.53-1.8-2.88-4.84-5.79-8.56-8.2-1.54-1-1.98-3.06-.98-4.6,1-1.54,3.06-1.98,4.6-.98,3.19,2.07,7.61,5.52,10.57,10.24.98,1.56.51,3.61-1.05,4.58-.68.42-1.45.58-2.19.48Z"/>
      </g>
      <g>
        <path class="st2" d="M338.96,47.95h-16.38c-1.76,0-3.19-1.43-3.19-3.19s1.43-3.19,3.19-3.19h16.38c1.76,0,3.19,1.43,3.19,3.19s-1.43,3.19-3.19,3.19Z"/>
        <path class="st2" d="M376.66,70.29h-21.54c-1.84,0-3.32,1.49-3.32,3.32,0,1.84,1.49,3.32,3.32,3.32h21.54c1.84,0,3.32-1.49,3.32-3.32,0-1.84-1.49-3.32-3.32-3.32Z"/>
        <path class="st2" d="M340.29,71.03h-19.04c-1.76,0-3.19-1.43-3.19-3.19s1.43-3.19,3.19-3.19h19.04c1.76,0,3.19,1.43,3.19,3.19s-1.43,3.19-3.19,3.19Z"/>
        <path class="st2" d="M340.29,82.37h-19.04c-1.76,0-3.19-1.43-3.19-3.19s1.43-3.19,3.19-3.19h19.04c1.76,0,3.19,1.43,3.19,3.19s-1.43,3.19-3.19,3.19Z"/>
        <path class="st2" d="M345.31,59.68h-29.07c-1.76,0-3.19-1.43-3.19-3.19s1.43-3.19,3.19-3.19h29.07c1.76,0,3.19,1.43,3.19,3.19s-1.43,3.19-3.19,3.19Z"/>
        <path class="st2" d="M341.06,92.95h-21.05c-1.65,0-2.99-1.34-2.99-2.99s1.34-2.99,2.99-2.99h21.05c1.65,0,2.99,1.34,2.99,2.99s-1.34,2.99-2.99,2.99Z"/>
        <path class="st2" d="M333.62,112.69h-13.6c-1.65,0-2.99-1.34-2.99-2.99s1.34-2.99,1.66-2.99h16.26c2.98,0,2.99,1.34,2.99,2.99s-2.67,2.99-4.32,2.99Z"/>
        <path class="st2" d="M320.01,112.66c-1.91,0-3.46-1.55-3.46-3.46v-18.58c0-1.91,1.55-3.46,3.46-3.46s3.69,1.55,3.69,3.46v18.58c0,1.91-1.78,3.46-3.69,3.46Z"/>
        <path class="st2" d="M341.06,106.15c-1.91,0-3.69.89-3.69-2.35v-14.51c0-.58,1.78-2.13,3.69-2.13s3.46,1.55,3.46,3.46v10.74c0,1.91-1.55,4.79-3.46,4.79Z"/>
        <path class="st2" d="M383.48,44.35c-.58-.95-1.63-1.59-2.83-1.59h-25.53c-1.84,0-3.32,1.49-3.32,3.32s1.49,3.32,3.32,3.32h21.88s0,19.4,0,19.4c0,2.02,1.64,3.66,3.66,3.66s3.66-1.64,3.66-3.66v-22.16c0-.87-.32-1.66-.83-2.29Z"/>
        <path class="st2" d="M333.62,112.69c7.81,0,10.9-4.55,10.9-11.34,0-4-5.24,5.72-5.24,5.72l-5.67,5.62Z"/>
        <path class="st2" d="M334.01,106.71c2.26,0,3.36-1.58,3.36-3.86,0-.79,4.06,4.21,4.06,4.21l-3.28,3.43-4.13-3.79Z"/>
        <path class="st2" d="M375.76,112.75h-16.67c-3.48,0-7.64-1.37-7.64-7.91v-30.89c0-2.02,1.64-3.66,3.66-3.66s3.77,1.64,3.77,3.66v30.89c0,.24,0,.43.02.59.09,0,.19,0,.3,0h16.56c5.23,0,6.56-3.17,6.56-9.42,0-2.02,1.64-3.66,3.66-3.66s3.66,1.64,3.66,3.66c0,10.32-4.49,16.73-13.87,16.73ZM358.98,105.95h.01s-.01,0-.01,0Z"/>
        <path class="st2" d="M384.31,68.8c0,3.48-3.56,8.14-7.65,8.14s-3.37-6.65-1.92-6.65,2.25-.95,2.25-1.95c0-.99,7.31.46,7.31.46Z"/>
      </g>
      <g>
        <path class="st2" d="M211.81,50.85h-65.15c-1.8,0-3.26-1.46-3.26-3.26s1.46-3.26,3.26-3.26h65.15c1.8,0,3.26,1.46,3.26,3.26s-1.46,3.26-3.26,3.26Z"/>
        <g>
          <path class="st2" d="M167.83,54.87c-2.02,0-3.66-1.64-3.66-3.66v-9.1c0-2.02,1.64-3.66,3.66-3.66s3.66,1.64,3.66,3.66v9.1c0,2.02-1.64,3.66-3.66,3.66Z"/>
          <path class="st2" d="M190.64,54.87c-2.02,0-3.66-1.64-3.66-3.66v-9.1c0-2.02,1.64-3.66,3.66-3.66s3.66,1.64,3.66,3.66v9.1c0,2.02-1.64,3.66-3.66,3.66Z"/>
        </g>
        <path class="st2" d="M178.47,83.39h-23.3c-1.47,0-2.66,1.19-2.66,2.66,0,1.47,2.52,2.66,3.99,2.66h21.97c1.47,0,2.66-1.19,2.66-2.66,0-1.47-1.19-2.66-2.66-2.66Z"/>
        <path class="st2" d="M174.69,70.13h-15.66c-1.1,0-1.99-.89-1.99-1.99s.89-1.99,1.99-1.99h15.66c1.1,0,1.99.89,1.99,1.99s-.89,1.99-1.99,1.99Z"/>
        <path class="st2" d="M174.69,78.6h-15.66c-1.1,0-1.99-.89-1.99-1.99s.89-1.99,1.99-1.99h15.66c1.1,0,1.99.89,1.99,1.99s-.89,1.99-1.99,1.99Z"/>
        <path class="st2" d="M178.47,56.55h-27.27c-1.47,0-2.66,1.19-2.66,2.66,0,1.47,1.19,2.66,2.66,2.66h27.27c1.47,0,2.66-1.19,2.66-2.66,0-1.47-1.19-2.66-2.66-2.66Z"/>
        <path class="st2" d="M151.2,56.59c-1.84,0-3.32,1.49-3.32,3.32v19.87c0,1.84,1.49,3.32,3.32,3.32,1.84,0,3.32-1.49,3.32-3.32v-19.87c0-1.84-1.49-3.32-3.32-3.32Z"/>
        <path class="st2" d="M157.09,112.15c-1.91,0-3.46-1.55-3.46-3.46v-12.98c0-1.91,1.55-3.46,3.46-3.46s3.46,1.55,3.46,3.46v12.98c0,1.91-1.55,3.46-3.46,3.46Z"/>
        <path class="st2" d="M171.91,112.02c-1.84,0-3.32-1.49-3.32-3.32v-13.19c0-1.84,1.49-3.32,3.32-3.32s3.32,1.49,3.32,3.32v13.19c0,1.84-1.49,3.32-3.32,3.32Z"/>
        <path class="st2" d="M186.5,112.02c-1.84,0-3.32-1.49-3.32-3.32v-13.19c0-1.84,1.49-3.32,3.32-3.32s3.32,1.49,3.32,3.32v13.19c0,1.84-1.49,3.32-3.32,3.32Z"/>
        <path class="st2" d="M201.46,112.15c-1.91,0-3.46-1.55-3.46-3.46v-12.98c0-1.91,1.55-3.46,3.46-3.46s3.46,1.55,3.46,3.46v12.98c0,1.91-1.55,3.46-3.46,3.46Z"/>
        <path class="st2" d="M174.03,78.44c-1.54,0-2.79-1.25-2.79-2.79v-6.45c0-1.54,1.25-2.79,2.79-2.79s2.79,1.25,2.79,2.79v6.45c0,1.54-1.25,2.79-2.79,2.79Z"/>
        <path class="st2" d="M165.43,69.83c-1.65,0-2.99-1.34-2.99-2.99v-6.05c0-1.65,1.34-2.99,2.99-2.99s2.99,1.34,2.99,2.99v6.05c0,1.65-1.34,2.99-2.99,2.99Z"/>
        <path class="st2" d="M165.43,87.34c-1.65,0-2.99-1.34-2.99-2.99v-6.05c0-1.65,1.34-2.99,2.99-2.99s2.99,1.34,2.99,2.99v6.05c0,1.65-1.34,2.99-2.99,2.99Z"/>
        <path class="st2" d="M182.24,77.25c-.84,0-1.68-.32-2.33-.95-1.31-1.29-1.33-3.39-.04-4.7,3.28-3.34,7.36-10.03,8.62-13,.72-1.69,2.67-2.48,4.36-1.76,1.69.72,2.48,2.67,1.76,4.36-1.31,3.09-5.78,10.77-10,15.07-.65.66-1.51.99-2.37.99Z"/>
        <path class="st2" d="M210.18,69.46h-20.17c-1.65,0-2.99-1.34-2.99-2.99s1.34-2.99,2.99-2.99h20.17c1.65,0,2.99,1.34,2.99,2.99s-1.34,2.99-2.99,2.99Z"/>
        <path class="st2" d="M209.85,84.56h-22.82c-1.65,0-2.99-1.34-2.99-2.99s1.34-2.99,2.99-2.99h22.82c1.65,0,2.99,1.34,2.99,2.99s-1.34,2.99-2.99,2.99Z"/>
        <path class="st2" d="M200.53,97.42h-42.48c-1.47,0-2.66-1.19-2.66-2.66s1.19-2.66,2.66-2.66h42.48c1.47,0,2.66,1.19,2.66,2.66s-1.19,2.66-2.66,2.66Z"/>
        <path class="st2" d="M212.9,113.35h-67.24c-1.84,0-3.32-1.49-3.32-3.32s1.49-3.32,3.32-3.32h67.24c1.84,0,3.32,1.49,3.32,3.32s-1.49,3.32-3.32,3.32Z"/>
        <path class="st2" d="M147.88,79.79c0,5.14,3.63,8.92,8.62,8.92,0,0,3.11-5.32,1.16-5.32s-3.13-1.83-3.13-3.6-6.65,0-6.65,0Z"/>
      </g>
      <g>
        <path class="st2" d="M425.51,62.24h-22.26c-1.84,0-3.32-1.49-3.32-3.32s1.49-3.32,3.32-3.32h22.26c1.84,0,3.32,1.49,3.32,3.32s-1.49,3.32-3.32,3.32Z"/>
        <path class="st2" d="M414.38,115.14c-1.84,0-3.32-1.49-3.32-3.32v-40.55c0-1.84,1.49-3.32,3.32-3.32s3.32,1.49,3.32,3.32v40.55c0,1.84-1.49,3.32-3.32,3.32Z"/>
        <path class="st2" d="M403.25,94.28c-1.84,0-3.32-1.49-3.32-3.32v-32c0-1.84,1.49-3.32,3.32-3.32s3.32,1.49,3.32,3.32v32c0,1.84-1.49,3.32-3.32,3.32Z"/>
        <path class="st2" d="M414.38,60.58c-1.84,0-3.32-1.49-3.32-3.32v-14.33c0-1.84,1.49-3.32,3.32-3.32s3.32,1.49,3.32,3.32v14.33c0,1.84-1.49,3.32-3.32,3.32Z"/>
        <g>
          <path class="st2" d="M466.48,48.89h-24.5c-1.84,0-3.32-1.49-3.32-3.32s1.49-3.32,3.32-3.32h24.5c1.84,0,3.32,1.49,3.32,3.32s-1.49,3.32-3.32,3.32Z"/>
          <path class="st2" d="M470.84,82.44h-42.3c-1.84,0-3.32-1.49-3.32-3.32s1.49-3.32,3.32-3.32h42.3c1.84,0,3.32,1.49,3.32,3.32s-1.49,3.32-3.32,3.32Z"/>
          <path class="st2" d="M437.99,109.77c-1.84,0-3.32-1.49-3.32-3.32v-56.86c0-1.84,1.49-3.32,3.32-3.32s3.32,1.49,3.32,3.32v56.86c0,1.84-1.49,3.32-3.32,3.32Z"/>
          <path class="st2" d="M462.99,59.8h-25c-1.54,0-2.79-1.25-2.79-2.79s1.25-2.79,2.79-2.79h25c1.54,0,2.79,1.25,2.79,2.79s-1.25,2.79-2.79,2.79Z"/>
          <path class="st2" d="M462.99,70.93h-25c-1.54,0-2.79-1.25-2.79-2.79s1.25-2.79,2.79-2.79h25c1.54,0,2.79,1.25,2.79,2.79s-1.25,2.79-2.79,2.79Z"/>
          <path class="st2" d="M428.42,113.84c-1.55,0-2.94-1.1-3.26-2.68-.36-1.8.81-3.55,2.62-3.91,7.28-1.44,13.33-3.6,18.49-6.62,1.58-.92,3.62-.39,4.55,1.2.93,1.59.39,3.62-1.19,4.55-5.81,3.39-12.53,5.81-20.55,7.4-.22.04-.44.06-.65.06Z"/>
          <path class="st2" d="M458.68,100.45c-1.07,0-2.11-.51-2.76-1.46-1.03-1.52-.63-3.59.89-4.62l9.71-6.57c1.52-1.03,3.59-.63,4.62.89,1.03,1.52.63,3.59-.89,4.62l-9.71,6.57c-.57.39-1.22.57-1.86.57Z"/>
          <path class="st2" d="M471.73,113.84c-.48,0-.98-.11-1.44-.33-10.4-5.02-20.14-16.1-23.08-24.44-.61-1.73.3-3.63,2.03-4.24,1.73-.61,3.63.3,4.24,2.03,2.42,6.89,11.01,16.47,19.69,20.66,1.65.8,2.35,2.79,1.55,4.44-.57,1.19-1.76,1.88-3,1.88Z"/>
        </g>
        <path class="st2" d="M434.67,49.59c0-2.9,2.51-7.35,7.31-7.35s2.19,6.65.8,6.65c-.98,0-1.46.59-1.46,1.38s-6.65-.68-6.65-.68Z"/>
        <path class="st2" d="M423.4,93.75c-.86,0-1.72-.33-2.37-.99-1.29-1.31-1.27-3.41.03-4.7.42-.42.9-.89,1.07-1.1.05-.35.05-1.29.05-2.2v-25.8c0-1.84,1.49-3.32,3.32-3.32s3.32,1.49,3.32,3.32v25.8c0,4.29-.21,5.19-3.11,8.04-.65.64-1.49.96-2.33.96Z"/>
      </g>
    </g>
  </g>
</svg>