<svg version="1.1" id="圖層_1" xmlns="http://www.w3.org/2000/svg" xmlns:xlink="http://www.w3.org/1999/xlink" x="0px" y="0px"
	 viewBox="0 0 330 330" style="enable-background:new 0 0 330 330;" xml:space="preserve">
<style type="text/css">
	.st0_ENFJ{fill:#F6D538;}
	.st1_ENFJ{fill:#FADFDB;}
	.st2_ENFJ{fill:#3E3A39;}
	.st3_ENFJ{fill:#F39800;}
</style>
<circle class="st0_ENFJ" cx="165" cy="165" r="165"/>
<g>
	<circle class="st1_ENFJ" cx="165" cy="165" r="101.36"/>
	<g>
		<path class="st2_ENFJ" d="M244.56,140.47v-6.1c0-2.38-1.94-4.32-4.33-4.32h-2.92h-62.59c-1.02,0-2,0.35-2.77,1l-4.17,3.47
			c-1.6,1.34-3.94,1.34-5.55,0l-4.17-3.47c-0.77-0.65-1.76-1-2.77-1H92.69h-2.92c-2.39,0-4.33,1.94-4.33,4.32v6.1
			c0,0.94-0.14,2.29,2.41,4.07c0,0,3.56,2.03,4.84,8.9c1.98,10.69,14.6,30.45,38.19,26.44c23.34-3.97,21.01-27.77,34.12-28.94
			c13.11,1.17,10.78,24.97,34.12,28.94c23.6,4.01,36.21-15.75,38.19-26.44c1.28-6.87,4.84-8.9,4.84-8.9
			C244.69,142.76,244.56,141.41,244.56,140.47z M106.1,158.19c-3.39-4.75-6.79-20,1.36-20s14.26,0,14.26,0
			S111.87,141.58,106.1,158.19z M188.25,158.19c-3.39-4.75-6.79-20,1.36-20c8.14,0,14.26,0,14.26,0S194.02,141.58,188.25,158.19z"/>
	</g>
</g>
<path class="st3_ENFJ" d="M293.64,158.08c-0.05,0.83-0.63,0.99-1.19,1.17c-2.84,0.87-5.66,1.78-8.52,2.59c-3.33,0.95-5.51,2.99-6.48,6.34
	c-0.84,2.89-1.76,5.76-2.62,8.64c-0.19,0.62-0.35,1.27-1.13,1.26c-0.72-0.01-0.87-0.65-1.04-1.21c-0.93-3.04-1.84-6.08-2.79-9.11
	c-0.9-2.89-2.79-4.81-5.69-5.7c-3.03-0.93-6.07-1.86-9.1-2.8c-0.59-0.18-1.3-0.31-1.24-1.13c0.05-0.7,0.66-0.85,1.23-1.03
	c2.96-0.89,5.92-1.8,8.87-2.71c3.07-0.94,5.1-2.91,6.01-6.02c0.87-2.97,1.79-5.92,2.7-8.87c0.16-0.53,0.26-1.19,1.04-1.2
	c0.83-0.01,0.96,0.65,1.14,1.24c0.9,2.96,1.82,5.91,2.71,8.87c0.93,3.1,2.96,5.07,6.04,6c2.96,0.89,5.91,1.8,8.87,2.71
	C293.01,157.29,293.58,157.44,293.64,158.08z"/>
<path class="st3_ENFJ" d="M307.11,116.54c-0.07,0.55-0.5,0.7-0.95,0.83c-1.81,0.54-3.6,1.14-5.42,1.64c-2.38,0.66-3.95,2.07-4.61,4.48
	c-0.51,1.87-1.11,3.71-1.68,5.56c-0.13,0.44-0.23,0.97-0.8,0.99c-0.61,0.03-0.67-0.55-0.8-0.97c-0.58-1.89-1.15-3.79-1.72-5.69
	c-0.64-2.15-1.97-3.59-4.17-4.22c-1.9-0.55-3.78-1.18-5.68-1.77c-0.49-0.15-1.1-0.22-1.09-0.85c0.02-0.65,0.69-0.66,1.15-0.81
	c1.84-0.59,3.69-1.16,5.55-1.69c2.3-0.66,3.65-2.2,4.29-4.46c0.52-1.82,1.09-3.62,1.66-5.42c0.13-0.42,0.18-0.97,0.8-0.98
	c0.63-0.01,0.68,0.54,0.81,0.96c0.59,1.89,1.15,3.79,1.72,5.69c0.64,2.16,2.02,3.56,4.2,4.19c1.9,0.55,3.8,1.13,5.69,1.72
	C306.46,115.89,306.97,115.95,307.11,116.54z"/>
</svg>