<?xml version="1.0" encoding="utf-8"?>
<!-- Generator: Adobe Illustrator 25.2.0, SVG Export Plug-In . SVG Version: 6.00 Build 0)  -->
<svg version="1.1" id="圖層_1" xmlns="http://www.w3.org/2000/svg" xmlns:xlink="http://www.w3.org/1999/xlink" x="0px" y="0px"
	 viewBox="0 0 330 330" style="enable-background:new 0 0 330 330;" xml:space="preserve">
<style type="text/css">
	.st0{fill:#33A574;}
	.st1{fill:#FADFDB;}
	.st2{fill:#AB71AE;}
	.st3{fill:#FADFDB;stroke:#3E3A39;stroke-width:13;stroke-linecap:round;stroke-linejoin:round;stroke-miterlimit:10;}
	.st4{fill:#FADFDB;stroke:#3E3A39;stroke-width:12.0214;stroke-linecap:round;stroke-linejoin:round;stroke-miterlimit:10;}
	.st5{fill:#3E3A39;}
	.st6{fill:#F1BC52;}
	.st7{fill:#F39800;}
	.st8{fill:#473535;}
	.st9{fill:#FD7D27;}
	.st10{fill:#FEFEFE;}
	.st11{fill:#FD81B5;}
	.st12{fill:#595757;}
	.st13{fill:#8B8995;}
	.st14{fill:#FFFFFF;}
	.st15{fill:#3ABFF7;}
	.st16{fill:#3E3A39;stroke:#3E3A39;stroke-width:8;stroke-miterlimit:10;}
	.st17{fill:#FEBF7B;}
	.st18{fill:#9C511F;}
	.st19{fill:#E72423;}
	.st20{fill:#A35928;}
	.st21{fill:#DC2121;}
	.st22{fill:#F5F4F5;}
	.st23{fill:#F5F4F6;}
	.st24{fill:#F6F1F2;}
	.st25{fill:#D5A88A;}
	.st26{fill:#804F43;}
	.st27{fill:#F3F5F7;}
	.st28{fill:#FDFEFD;}
	.st29{fill:#5BC266;}
	.st30{fill:#727171;}
	.st31{fill:#006934;}
	.st32{fill:#8FC31F;}
	.st33{fill:#7789A3;}
	.st34{fill:#FDFDFC;}
	.st35{fill:#E8E153;}
	.st36{fill:#C4C8F6;}
	.st37{fill:#FDA732;}
	.st38{fill:#FDDA41;}
	.st39{fill:#FD9923;}
	.st40{fill:none;stroke:#7E318E;stroke-width:4.2517;stroke-linecap:round;stroke-linejoin:round;stroke-miterlimit:10;}
	.st41{fill:#FEB643;}
	.st42{fill:#994C0F;}
	.st43{fill:#713708;}
	.st44{clip-path:url(#SVGID_2_);fill:#FD7D27;}
</style>
<g>
	<circle class="st0" cx="165" cy="165" r="165"/>
	<g>
		<circle class="st1" cx="165" cy="165" r="101.36"/>
	</g>
	<g>
		<path class="st30" d="M240.52,219.51c-1.3,4.61-2.6,9.21-3.89,13.82c-1.54,5.48-3.07,10.95-4.62,16.43
			c-0.37,1.3-1.27,2.07-2.59,2.27c-1.28,0.19-2.29-0.32-3.02-1.37c-0.53-0.76-0.63-1.63-0.43-2.52c0.06-0.26,0.14-0.52,0.21-0.78
			c6.01-21.41,12.03-42.82,18-64.25c0.53-1.91,1.34-3.32,3.44-3.61c0.52,0.15,1.03,0.29,1.55,0.44c0.53,0.55,1.14,1.03,1.37,1.82
			c0.19,0.65,0.2,1.29,0.02,1.94c-2.9,10.32-5.8,20.63-8.7,30.95C241.41,216.26,240.96,217.88,240.52,219.51z"/>
		<path class="st31" d="M240.52,219.51c0.45-1.62,0.89-3.25,1.35-4.87c2.9-10.32,5.8-20.63,8.7-30.95c2.4,0.47,4.77,1.05,7.09,1.81
			c7.33,2.4,13.75,6.21,18.72,12.23c3.88,4.69,8.62,8.24,14.19,10.66c4.42,1.92,9.03,3.12,13.86,3.39c1.17,0.06,2,0.64,2.31,1.6
			c0.32,1,0.06,1.92-0.87,2.66c-6.48,5.19-13.57,9.18-21.78,10.92c-4.56,0.96-9.1,0.88-13.58-0.56c-2.48-0.8-4.65-2.22-6.89-3.5
			c-6.1-3.5-12.61-5.1-19.66-4.1C242.79,218.95,241.65,219.23,240.52,219.51z"/>
	</g>
	<g>
		<path class="st5" d="M164.12,215.75c-15.72-0.59-29.12-10.6-33.66-25.14c-1.45-4.63,0.15-8.56,4-9.88c4-1.37,7.67,0.64,9.35,5.13
			c3.71,9.92,11.48,15.7,21.14,15.71c9.7,0.01,17.67-5.82,21.28-15.57c1.69-4.56,5.22-6.6,9.21-5.32c3.9,1.25,5.59,5.19,4.2,9.8
			C195.1,205.55,179.92,216.35,164.12,215.75z"/>
	</g>
</g>
<g>
	<g>
		<path class="st11" d="M129.8,133.63c1.86-5,7.11-8.22,12.57-7.71c5.28,0.49,9.83,4.65,10.79,9.77c0.66,3.5-0.3,6.61-2.14,9.52
			c-2.19,3.47-5.1,6.29-8.23,8.9c-3.61,3-7.49,5.61-11.54,7.98c-0.49,0.29-0.99,0.59-1.6,0.5c-0.01-9.38-0.01-18.75-0.01-28.13
			C129.64,134.18,129.74,133.91,129.8,133.63z"/>
		<path class="st11" d="M129.8,133.63c-0.05,0.28-0.16,0.55-0.16,0.83c0,9.38,0,18.75,0.01,28.13c-0.51,0.04-0.96-0.14-1.38-0.38
			c-5.65-3.28-11.01-6.95-15.66-11.58c-2.44-2.43-4.6-5.09-5.87-8.35c-2.78-7.09,1.96-15.16,9.52-16.23
			c5.57-0.79,10.64,1.97,13.02,7.08C129.38,133.35,129.34,133.76,129.8,133.63z"/>
	</g>
	<g>
		<path class="st11" d="M200.5,133.61c1.86-5,7.11-8.22,12.57-7.71c5.28,0.49,9.83,4.65,10.79,9.77c0.66,3.5-0.3,6.61-2.14,9.52
			c-2.19,3.47-5.1,6.29-8.23,8.9c-3.61,3-7.49,5.61-11.54,7.98c-0.49,0.29-0.99,0.59-1.6,0.5c-0.01-9.38-0.01-18.75-0.01-28.13
			C200.35,134.16,200.45,133.88,200.5,133.61z"/>
		<path class="st11" d="M200.5,133.61c-0.05,0.28-0.16,0.55-0.16,0.83c0,9.38,0,18.75,0.01,28.13c-0.51,0.04-0.96-0.14-1.38-0.38
			c-5.65-3.28-11.01-6.95-15.66-11.58c-2.44-2.43-4.6-5.09-5.87-8.35c-2.78-7.09,1.96-15.16,9.52-16.23
			c5.57-0.79,10.64,1.97,13.02,7.08C200.08,133.32,200.05,133.73,200.5,133.61z"/>
	</g>
</g>
</svg>
