<?xml version="1.0" encoding="utf-8"?>
<!-- Generator: Adobe Illustrator 25.2.0, SVG Export Plug-In . SVG Version: 6.00 Build 0)  -->
<svg version="1.1" id="圖層_1" xmlns="http://www.w3.org/2000/svg" xmlns:xlink="http://www.w3.org/1999/xlink" x="0px" y="0px"
	 viewBox="0 0 330 330" style="enable-background:new 0 0 330 330;" xml:space="preserve">
<style type="text/css">
	.st0{fill:#33A574;}
	.st1{fill:#FADFDB;}
	.st2{fill:#AB71AE;}
	.st3{fill:#FADFDB;stroke:#3E3A39;stroke-width:13;stroke-linecap:round;stroke-linejoin:round;stroke-miterlimit:10;}
	.st4{fill:#FADFDB;stroke:#3E3A39;stroke-width:12.0214;stroke-linecap:round;stroke-linejoin:round;stroke-miterlimit:10;}
	.st5{fill:#3E3A39;}
	.st6{fill:#F1BC52;}
	.st7{fill:#F39800;}
	.st8{fill:#473535;}
	.st9{fill:#FD7D27;}
	.st10{fill:#FEFEFE;}
	.st11{fill:#FD81B5;}
	.st12{fill:#595757;}
	.st13{fill:#8B8995;}
	.st14{fill:#FFFFFF;}
	.st15{fill:#3ABFF7;}
	.st16{fill:#3E3A39;stroke:#3E3A39;stroke-width:8;stroke-miterlimit:10;}
	.st17{fill:#FEBF7B;}
	.st18{fill:#9C511F;}
	.st19{fill:#E72423;}
	.st20{fill:#A35928;}
	.st21{fill:#DC2121;}
	.st22{fill:#F5F4F5;}
	.st23{fill:#F5F4F6;}
	.st24{fill:#F6F1F2;}
	.st25{fill:#D5A88A;}
	.st26{fill:#804F43;}
	.st27{fill:#F3F5F7;}
	.st28{fill:#FDFEFD;}
	.st29{fill:#5BC266;}
	.st30{fill:#727171;}
	.st31{fill:#006934;}
	.st32{fill:#8FC31F;}
	.st33{fill:#7789A3;}
	.st34{fill:#FDFDFC;}
	.st35{fill:#E8E153;}
	.st36{fill:#C4C8F6;}
	.st37{fill:#FDA732;}
	.st38{fill:#FDDA41;}
	.st39{fill:#FD9923;}
	.st40{fill:none;stroke:#7E318E;stroke-width:4.2517;stroke-linecap:round;stroke-linejoin:round;stroke-miterlimit:10;}
	.st41{fill:#FEB643;}
	.st42{fill:#994C0F;}
	.st43{fill:#713708;}
	.st44{clip-path:url(#SVGID_2_);fill:#FD7D27;}
</style>
<circle class="st0" cx="165" cy="165" r="165"/>
<g>
	<circle class="st1" cx="165" cy="165" r="101.36"/>
</g>
<g>
	<path class="st5" d="M164.12,215.75c-15.72-0.59-29.12-10.6-33.66-25.14c-1.45-4.63,0.15-8.56,4-9.88c4-1.37,7.67,0.64,9.35,5.13
		c3.71,9.92,11.48,15.7,21.14,15.71c9.7,0.01,17.67-5.82,21.28-15.57c1.69-4.56,5.22-6.6,9.21-5.32c3.9,1.25,5.59,5.19,4.2,9.8
		C195.1,205.55,179.92,216.35,164.12,215.75z"/>
	<path class="st5" d="M133.17,156.23c-9.35,0-17.64-6.24-19.78-14.89c-0.98-3.96,0.77-7.37,4.44-8.65c3.41-1.19,7.32,0.28,8.7,3.76
		c1.25,3.16,2.91,5.55,6.5,5.66c3.83,0.12,5.54-2.44,6.9-5.67c1.55-3.69,5.38-5.04,9.03-3.6c3.67,1.44,5.23,5.42,3.8,9.71
		C150.04,150.67,142.09,156.23,133.17,156.23z"/>
	<path class="st5" d="M196.79,156.23c-8.66-0.02-16.17-5.11-19.23-13.03c-1.77-4.58-0.52-8.6,3.19-10.27
		c3.97-1.79,7.69-0.08,9.8,4.62c1.28,2.84,3.27,4.69,6.49,4.57c3.01-0.11,4.87-1.87,6.04-4.63c1.96-4.61,5.54-6.28,9.5-4.65
		c3.87,1.59,5.26,5.48,3.61,10.06C213.29,150.93,205.56,156.25,196.79,156.23z"/>
</g>
<g>
	<path class="st42" d="M246.45,222.97c0.22,1.99,0.11,3.99,0.09,5.98c-0.02,1.63-0.27,3.27-0.45,4.89c-0.2,1.79-0.42,3.58-0.65,5.37
		c-0.18,1.41-0.99,2.07-2.41,2.26c-1.92,0.25-3.83,0.62-5.74,0.92c-1.92,0.3-3.84,0.57-5.76,0.88c-1.49,0.24-2.97,0.54-4.46,0.76
		c-1.25,0.19-2.3,0.1-2.95-1.42c-1.06-2.49-2.43-4.84-3.5-7.33c-0.96-2.23-1.8-4.51-2.44-6.88c-0.59-2.18-1.07-4.37-1.23-6.6
		c-0.17-2.24-0.05-4.49,0.44-6.71c0.71-3.22,2.12-6.07,4.43-8.41c1.43-1.44,3.07-2.63,4.91-3.59c2.21-1.14,4.53-1.84,6.95-1.79
		c3.05,0.05,5.73,1.14,7.67,3.72c1.39,1.85,2.34,3.87,3.1,6.04C245.8,214.94,246.21,218.94,246.45,222.97z"/>
	<path class="st43" d="M258.76,230.24c-0.74-0.06-1.42-0.49-1.79-1.24c-0.77-1.55-1.42-3.16-2.21-4.69
		c-0.79-1.53-1.48-3.12-2.16-4.7c-0.61-1.41-1.04-2.9-1.54-4.35c-0.66-1.93-1.26-3.88-1.69-5.88c-0.33-1.55-0.61-3.11-0.81-4.69
		c-0.32-2.53-0.39-5.05,0.08-7.56c0.55-2.93,1.85-5.38,4.52-6.96c1.98-1.17,4.12-1.56,6.41-1.53c4.86,0.08,9.1,1.72,12.68,4.95
		c1.55,1.4,2.78,3.09,3.77,4.98c1.7,3.24,2.58,6.67,2.97,10.28c0.42,3.81,0.25,7.6-0.23,11.38c-0.2,1.54-0.31,3.1-0.53,4.64
		c-0.29,1.93-0.76,2.43-2.79,2.74c-2.62,0.41-5.24,0.88-7.86,1.3c-2.2,0.35-4.41,0.66-6.62,1.01
		C260.27,230.04,259.6,230.23,258.76,230.24z"/>
	<path class="st42" d="M237.43,266.44c-3.18,0.19-5.8-1.09-8.04-3.19c-1.47-1.38-2.42-3.14-2.81-5.14
		c-0.44-2.28-0.82-4.57-1.21-6.86c-0.22-1.32,0.56-2.62,2.44-2.85c2.31-0.29,4.6-0.77,6.91-1.1c2.26-0.33,4.49-0.81,6.77-1.05
		c0.72-0.07,1.43-0.22,2.15-0.34c1.95-0.35,2.92,0.4,3.18,2.39c0.24,1.9,0.59,3.79,0.88,5.69c0.5,3.24-0.35,6.06-2.41,8.62
		c-1.16,1.44-2.62,2.41-4.25,3.11C239.91,266.21,238.67,266.41,237.43,266.44z"/>
	<path class="st43" d="M269.29,252.55c-2.78-0.14-5.27-1.27-7.32-3.37c-1.77-1.82-2.64-4.04-2.98-6.52
		c-0.24-1.76-0.56-3.52-0.83-5.28c-0.29-1.87,0.61-2.56,2.18-2.82c2.62-0.43,5.23-0.89,7.86-1.28c2.26-0.34,4.49-0.8,6.77-1.05
		c0.93-0.1,1.84-0.45,2.79-0.29c1.04,0.17,1.51,0.91,1.67,1.84c0.41,2.42,0.92,4.84,1.1,7.27c0.24,3.26-0.89,6.1-3.25,8.43
		C275.1,251.62,272.46,252.55,269.29,252.55z"/>
</g>
<g>
	<path class="st42" d="M184.15,60.72c-0.14,2.61-0.48,5.19-1.39,7.67C178.52,80,171.6,89.45,160.95,96.08
		c-8.41,5.23-17.44,8.9-27.02,11.22c-9.81,2.37-19.73,3.23-29.78,1.54c-6.55-1.1-12.28-4.02-17.77-7.56
		c-2.36-1.53-4.63-3.17-6.64-5.15c-1.15-1.13-2.14-2.37-2.91-3.8c-1.53-2.87-1.11-5.81,1.2-8.11c1.96-1.95,4.42-3.06,6.99-3.92
		c5.21-1.76,10.62-2.49,16.08-2.95c0.33-0.03,0.65-0.08,0.97-0.12c0.68,2.64,1.29,5.3,2.1,7.9c0.29,0.92,0.75,1.38,1.68,1.6
		c2.38,0.56,4.78,0.91,7.21,1.12c6.42,0.57,12.74,0.07,18.97-1.61c5.41-1.46,10.41-3.82,15.07-6.89c3.5-2.3,6.75-4.93,9.59-8.04
		c0.52-0.57,0.62-1.14,0.41-1.89c-0.75-2.7-1.78-5.31-2.66-7.96c4.86-2.59,9.79-4.99,15.15-6.38c1.84-0.48,3.7-0.8,5.6-0.85
		c3.36-0.1,6.26,0.74,8.15,3.79C183.61,58.9,183.88,59.81,184.15,60.72z"/>
	<path class="st42" d="M101.8,75.44c-1.1-6.13-1.79-12.3-1.97-18.53c-0.07-2.48-0.01-4.95,0.78-7.34c1.36-4.13,4.54-5.93,8.76-4.98
		c8.18,1.85,15.18-0.24,20.98-6.31c2.94-3.07,6.48-3.37,9.88-0.81c2.29,1.73,3.82,4.08,5.28,6.47c3.11,5.1,5.83,10.4,8.17,15.9
		c-2.7,1.06-5.26,2.42-7.91,3.59c-4.22,1.87-8.55,3.43-12.91,4.9c-5.54,1.88-11.23,3.29-16.96,4.49c-2.66,0.56-5.34,0.99-8,1.52
		C105.86,74.74,103.77,74.78,101.8,75.44z M125.28,56.73c2.79-0.78,5.39-2.32,7.58-4.54c0.69-0.7,0.82-1.59,0.21-2.1
		c-0.72-0.6-1.35-0.4-2,0.25c-1.78,1.76-3.89,3.03-6.29,3.78c-3.02,0.94-6.12,1.18-9.26,0.88c-1.15-0.11-1.86,0.27-1.95,1.04
		c-0.1,0.87,0.46,1.46,1.68,1.58C118.58,57.93,121.86,57.78,125.28,56.73z"/>
	<path class="st43" d="M101.8,75.44c1.98-0.66,4.07-0.7,6.09-1.1c2.66-0.52,5.34-0.96,8-1.52c5.73-1.2,11.42-2.62,16.96-4.49
		c4.36-1.47,8.69-3.04,12.91-4.9c2.65-1.17,5.22-2.52,7.91-3.59c0.25,0.53,0.5,1.06,0.76,1.6c0.88,2.66,1.91,5.26,2.66,7.96
		c0.21,0.76,0.11,1.32-0.41,1.89c-2.84,3.1-6.09,5.73-9.59,8.04c-4.66,3.07-9.66,5.44-15.07,6.89c-6.23,1.68-12.55,2.17-18.97,1.61
		c-2.43-0.21-4.83-0.56-7.21-1.12c-0.92-0.22-1.39-0.68-1.68-1.6c-0.81-2.61-1.42-5.26-2.1-7.9
		C101.98,76.62,101.89,76.03,101.8,75.44z"/>
	<path class="st43" d="M125.28,56.73c-3.42,1.04-6.71,1.19-10.02,0.88c-1.22-0.11-1.78-0.71-1.68-1.58c0.09-0.77,0.8-1.15,1.95-1.04
		c3.14,0.3,6.24,0.06,9.26-0.88c2.4-0.75,4.5-2.02,6.29-3.78c0.65-0.64,1.28-0.85,2-0.25c0.61,0.51,0.48,1.4-0.21,2.1
		C130.67,54.42,128.08,55.95,125.28,56.73z"/>
</g>
</svg>
