<?xml version="1.0" encoding="utf-8"?>
<!-- Generator: Adobe Illustrator 25.2.0, SVG Export Plug-In . SVG Version: 6.00 Build 0)  -->
<svg version="1.1" id="圖層_1" xmlns="http://www.w3.org/2000/svg" xmlns:xlink="http://www.w3.org/1999/xlink" x="0px" y="0px"
	 viewBox="0 0 330 330" style="enable-background:new 0 0 330 330;" xml:space="preserve">
<style type="text/css">
	.st0{fill:#33A574;}
	.st1{fill:#FADFDB;}
	.st2{fill:#AB71AE;}
	.st3{fill:#FADFDB;stroke:#3E3A39;stroke-width:13;stroke-linecap:round;stroke-linejoin:round;stroke-miterlimit:10;}
	.st4{fill:#FADFDB;stroke:#3E3A39;stroke-width:12.0214;stroke-linecap:round;stroke-linejoin:round;stroke-miterlimit:10;}
	.st5{fill:#3E3A39;}
	.st6{fill:#F1BC52;}
	.st7{fill:#F39800;}
	.st8{fill:#473535;}
	.st9{fill:#FD7D27;}
	.st10{fill:#FEFEFE;}
	.st11{fill:#FD81B5;}
	.st12{fill:#595757;}
	.st13{fill:#8B8995;}
	.st14{fill:#FFFFFF;}
	.st15{fill:#3ABFF7;}
	.st16{fill:#3E3A39;stroke:#3E3A39;stroke-width:8;stroke-miterlimit:10;}
	.st17{fill:#FEBF7B;}
	.st18{fill:#9C511F;}
	.st19{fill:#E72423;}
	.st20{fill:#A35928;}
	.st21{fill:#DC2121;}
	.st22{fill:#F5F4F5;}
	.st23{fill:#F5F4F6;}
	.st24{fill:#F6F1F2;}
	.st25{fill:#D5A88A;}
	.st26{fill:#804F43;}
	.st27{fill:#F3F5F7;}
	.st28{fill:#FDFEFD;}
	.st29{fill:#5BC266;}
	.st30{fill:#727171;}
	.st31{fill:#006934;}
	.st32{fill:#8FC31F;}
	.st33{fill:#7789A3;}
	.st34{fill:#FDFDFC;}
	.st35{fill:#E8E153;}
	.st36{fill:#C4C8F6;}
	.st37{fill:#FDA732;}
	.st38{fill:#FDDA41;}
	.st39{fill:#FD9923;}
	.st40{fill:none;stroke:#7E318E;stroke-width:4.2517;stroke-linecap:round;stroke-linejoin:round;stroke-miterlimit:10;}
	.st41{fill:#FEB643;}
	.st42{fill:#994C0F;}
	.st43{fill:#713708;}
	.st44{clip-path:url(#SVGID_2_);fill:#FD7D27;}
</style>
<g>
	<circle class="st2" cx="165" cy="165" r="165"/>
	<g>
		<circle class="st1" cx="165" cy="165" r="101.36"/>
		<g>
			<path class="st5" d="M244.56,140.47v-6.1c0-2.38-1.94-4.32-4.33-4.32h-2.92h-62.59c-1.02,0-2,0.35-2.77,1l-4.17,3.47
				c-1.6,1.34-3.94,1.34-5.55,0l-4.17-3.47c-0.77-0.65-1.76-1-2.77-1H92.69h-2.92c-2.39,0-4.33,1.94-4.33,4.32v6.1
				c0,0.94-0.14,2.29,2.41,4.07c0,0,3.56,2.03,4.84,8.9c1.98,10.69,14.6,30.45,38.19,26.44c23.34-3.97,21.01-27.77,34.12-28.94
				c13.11,1.17,10.78,24.97,34.12,28.94c23.6,4.01,36.21-15.75,38.19-26.44c1.28-6.87,4.84-8.9,4.84-8.9
				C244.69,142.76,244.56,141.41,244.56,140.47z M106.1,158.19c-3.39-4.75-6.79-20,1.36-20s14.26,0,14.26,0
				S111.87,141.58,106.1,158.19z M188.25,158.19c-3.39-4.75-6.79-20,1.36-20c8.14,0,14.26,0,14.26,0S194.02,141.58,188.25,158.19z"
				/>
		</g>
	</g>
</g>
<g>
	<path class="st5" d="M213.66,200.17c-3.04,7.07-10.39,13.48-18.78,13.66c-6.23,0.13-12.1-1.38-17.82-3.68
		c-3.48-1.4-7.02-2.65-10.8-2.9c-4.28-0.28-8.29,0.87-12.2,2.44c-6.18,2.48-12.47,4.34-19.23,4.13
		c-8.36-0.26-15.69-6.77-18.48-13.41c8.03,4.09,15.34,0.99,22.63-2.07c2.53-1.06,4.93-2.49,7.66-3.02c6.14-1.19,11.7,0.38,16.82,3.7
		c1.14,0.74,1.86,0.71,2.99-0.01c7.2-4.57,14.66-5.59,22.54-1.6c4.67,2.37,9.54,4.33,14.83,4.84
		C207.17,202.59,210.43,202.24,213.66,200.17z"/>
</g>
</svg>
