<?xml version="1.0" encoding="utf-8"?>
<!-- Generator: Adobe Illustrator 25.2.0, SVG Export Plug-In . SVG Version: 6.00 Build 0)  -->
<svg version="1.1" id="圖層_1" xmlns="http://www.w3.org/2000/svg" xmlns:xlink="http://www.w3.org/1999/xlink" x="0px" y="0px"
	 viewBox="0 0 330 330" style="enable-background:new 0 0 330 330;" xml:space="preserve">
<style type="text/css">
	.st0{fill:#33A574;}
	.st1{fill:#FADFDB;}
	.st2{fill:#AB71AE;}
	.st3{fill:#FADFDB;stroke:#3E3A39;stroke-width:13;stroke-linecap:round;stroke-linejoin:round;stroke-miterlimit:10;}
	.st4{fill:#FADFDB;stroke:#3E3A39;stroke-width:12.0214;stroke-linecap:round;stroke-linejoin:round;stroke-miterlimit:10;}
	.st5{fill:#3E3A39;}
	.st6{fill:#F1BC52;}
	.st7{fill:#F39800;}
	.st8{fill:#473535;}
	.st9{fill:#FD7D27;}
	.st10{fill:#FEFEFE;}
	.st11{fill:#FD81B5;}
	.st12{fill:#595757;}
	.st13{fill:#8B8995;}
	.st14{fill:#FFFFFF;}
	.st15{fill:#3ABFF7;}
	.st16{fill:#3E3A39;stroke:#3E3A39;stroke-width:8;stroke-miterlimit:10;}
	.st17{fill:#FEBF7B;}
	.st18{fill:#9C511F;}
	.st19{fill:#E72423;}
	.st20{fill:#A35928;}
	.st21{fill:#DC2121;}
	.st22{fill:#F5F4F5;}
	.st23{fill:#F5F4F6;}
	.st24{fill:#F6F1F2;}
	.st25{fill:#D5A88A;}
	.st26{fill:#804F43;}
	.st27{fill:#F3F5F7;}
	.st28{fill:#FDFEFD;}
	.st29{fill:#5BC266;}
	.st30{fill:#727171;}
	.st31{fill:#006934;}
	.st32{fill:#8FC31F;}
	.st33{fill:#7789A3;}
	.st34{fill:#FDFDFC;}
	.st35{fill:#E8E153;}
	.st36{fill:#C4C8F6;}
	.st37{fill:#FDA732;}
	.st38{fill:#FDDA41;}
	.st39{fill:#FD9923;}
	.st40{fill:none;stroke:#7E318E;stroke-width:4.2517;stroke-linecap:round;stroke-linejoin:round;stroke-miterlimit:10;}
	.st41{fill:#FEB643;}
	.st42{fill:#994C0F;}
	.st43{fill:#713708;}
	.st44{clip-path:url(#SVGID_2_);fill:#FD7D27;}
</style>
<circle class="st2" cx="165" cy="165" r="165"/>
<g>
	<circle class="st1" cx="165" cy="165" r="101.36"/>
	<g>
		<path class="st11" d="M223.61,150.53c-3.86,1.57-7.64,3.33-11.4,5.11c-0.98,0.46-1.23,1.38-1.41,2.34
			c-0.75,4.09-1.51,8.19-2.23,12.29c-0.21,1.2-0.71,2.1-1.95,2.45c-1.22,0.34-2-0.29-2.77-1.15c-2.67-2.98-5.44-5.87-8.05-8.9
			c-1.15-1.33-2.45-1.67-4.07-1.44c-3.91,0.56-7.83,1.1-11.75,1.65c-1.16,0.16-2.27,0.11-2.99-0.98c-0.73-1.1-0.45-2.15,0.18-3.24
			c2.12-3.64,4.17-7.32,6.27-10.96c0.6-1.04,0.54-2,0.02-3.05c-1.83-3.75-3.6-7.52-5.43-11.27c-0.54-1.11-0.79-2.21,0.05-3.25
			c0.8-0.99,1.87-0.98,3.05-0.73c4.15,0.9,8.32,1.71,12.47,2.59c0.89,0.19,1.69,0.06,2.32-0.5c1.14-1.01,2.18-2.12,3.27-3.18
			c1.46-1.08,2.61-2.49,3.98-3.67c1.3-1.12,2.32-2.56,3.9-3.36c0.41,0,0.83,0,1.24,0c1.41,0.58,1.82,1.75,1.96,3.15
			c0.38,3.81,0.82,7.62,1.24,11.42c0.04,0.37-0.02,0.78,0.3,1.04c1.62,1.33,2.87,3.07,4.78,4.06c2.63,1.37,5.22,2.81,7.84,4.2
			c1.05,0.56,1.83,1.25,1.78,2.57c-0.05,1.25-0.8,1.92-1.86,2.37C224.09,150.22,223.86,150.39,223.61,150.53z"/>
		<path class="st11" d="M106.41,150.53c-0.36-0.19-0.72-0.39-1.08-0.57c-0.92-0.45-1.5-1.13-1.54-2.2
			c-0.04-1.12,0.49-1.88,1.45-2.39c2.72-1.46,5.43-2.94,8.17-4.38c1.91-1,3.16-2.76,4.79-4.07c0.32-0.26,0.26-0.67,0.3-1.04
			c0.42-3.81,0.86-7.62,1.24-11.43c0.14-1.4,0.54-2.57,1.96-3.15c0.41,0,0.83,0,1.24,0c0.73,0.32,1.29,0.86,1.86,1.4
			c2,1.89,4.02,3.76,6.03,5.64c0.96,0.96,1.92,1.93,2.9,2.88c0.76,0.73,1.62,1.02,2.71,0.79c4.19-0.89,8.4-1.72,12.59-2.62
			c1.15-0.25,2.16-0.18,2.92,0.77c0.79,1,0.6,2.06,0.08,3.14c-1.84,3.79-3.63,7.6-5.49,11.37c-0.57,1.16-0.47,2.16,0.17,3.26
			c2.11,3.6,4.15,7.23,6.23,10.84c0.6,1.04,0.8,2.09,0.09,3.14c-0.7,1.04-1.75,1.14-2.87,0.98c-3.92-0.55-7.83-1.09-11.74-1.66
			c-1.65-0.24-3,0.04-4.19,1.43c-2.63,3.06-5.43,5.99-8.13,9c-0.74,0.83-1.53,1.37-2.69,1.05c-1.18-0.33-1.72-1.18-1.93-2.33
			c-0.73-4.05-1.52-8.1-2.2-12.16c-0.26-1.6-1.03-2.54-2.54-3.16C113.25,153.63,109.84,152.05,106.41,150.53z"/>
	</g>
	<g>
		<path class="st8" d="M190.19,189.42c2.14,0.87,3.51,2.46,3.85,4.7c1.45,9.39-1.07,17.63-7.37,24.72c-0.1,0.11-0.25,0.18-0.37,0.26
			c-0.26-0.28-0.5-0.6-0.79-0.84c-6.7-5.71-14.3-7.27-22.62-4.51c-5.57,1.85-9.78,5.49-12.49,10.76c-4.15-2.13-7.39-5.29-10.01-9.09
			c-2.5-3.62-4.05-7.62-4.73-11.96c-0.38-2.44,0.28-4.51,2.23-6.1c0.1,0.53,0.2,1.06,0.3,1.59c0.85,4.4,4.53,7.05,8.97,6.46
			c0.77-0.1,1.53-0.23,2.29-0.34c11.31-1.71,22.63-3.42,33.94-5.14c4.88-0.74,7.61-4.45,6.92-9.35
			C190.26,190.19,190.23,189.81,190.19,189.42z"/>
		<path class="st8" d="M190.19,189.42c0.04,0.38,0.07,0.77,0.12,1.15c0.69,4.9-2.03,8.61-6.92,9.35
			c-11.31,1.72-22.63,3.43-33.94,5.14c-0.76,0.12-1.53,0.24-2.29,0.34c-4.44,0.59-8.12-2.06-8.97-6.46c-0.1-0.53-0.2-1.06-0.3-1.59
			c0.96-0.92,2.17-1.32,3.44-1.51c15.04-2.28,30.08-4.56,45.12-6.83C187.73,188.83,188.99,188.86,190.19,189.42z"/>
		<path class="st9" d="M150.4,224.52c2.72-5.27,6.93-8.91,12.49-10.76c8.32-2.76,15.92-1.19,22.62,4.51
			c0.29,0.25,0.52,0.56,0.79,0.84c-0.73,1.32-1.97,2.15-3.1,3.04c-4.54,3.54-9.71,5.67-15.42,6.2c-5.71,0.53-11.21-0.47-16.35-3.12
			C151.06,225.05,150.63,224.92,150.4,224.52z"/>
	</g>
</g>
<g>
	<path class="st36" d="M159.4,104.69c-0.85-0.35-1.77-0.45-2.58-0.97c-2.26-1.44-3.33-3.49-3.33-6.14c0-3.91,0.02-7.83,0.02-11.74
		c0.59,0.11,1.18,0.32,1.77,0.32c3.19,0.03,6.38,0.01,9.57,0c2.32,0.01,4.63,0.02,6.95,0.02c1.48,0,2.97,0.13,4.42-0.31
		c0,4.14,0.03,8.28,0,12.42c-0.02,2.86-2.49,5.71-5.35,6.25c-0.15,0.03-0.31,0.01-0.41,0.16
		C166.78,104.69,163.09,104.69,159.4,104.69z"/>
	<path class="st37" d="M126.18,51.44c0.55-1.32,1.56-1.77,2.95-1.68c1.26,0.08,2.53,0.01,3.79,0.02c1.43,0.01,2.37,0.95,2.35,2.31
		c-0.02,1.34-0.94,2.22-2.35,2.23c-1.24,0.01-2.48-0.06-3.71,0.02c-1.41,0.09-2.46-0.33-3.03-1.69
		C126.18,52.25,126.18,51.85,126.18,51.44z"/>
	<path class="st38" d="M176.22,85.87c-1.45,0.44-2.94,0.31-4.42,0.31c-2.32,0-4.63-0.01-6.95-0.02c0-3.02,0-6.05-0.01-9.07
		c0.84-0.03,1.48-0.34,1.94-1.09c2.1-3.38,4.22-6.75,6.33-10.13c1.68-2.69,3.37-5.38,5.03-8.08c0.77-1.25,0.28-2.77-1-3.29
		c-3.11-1.25-6.21-2.52-9.33-3.74c-0.55-0.21-0.71-0.47-0.71-1.04c0.02-3.74,0.01-7.48,0.01-11.22c0-1.42-0.81-2.27-2.27-2.38
		c0-3.03,0-6.05,0-9.08c5.58-0.08,10.58,1.64,15.01,4.96c5.28,3.96,8.53,9.24,9.66,15.74c1.06,6.09-0.05,11.84-3.18,17.18
		c-0.88,1.5-1.79,2.99-2.76,4.44c-2.02,2.99-2.84,6.3-2.82,9.88c0.01,2.13-0.84,3.92-2.43,5.34
		C177.72,85.14,176.96,85.49,176.22,85.87z"/>
	<path class="st38" d="M164.85,77.08c0,3.02,0,6.05,0.01,9.07c-3.19,0-6.38,0.03-9.57,0c-0.59-0.01-1.18-0.21-1.77-0.32
		c-2.19-0.93-3.74-2.44-4.36-4.79c-0.15-0.56-0.25-1.13-0.22-1.72c0.2-3.93-0.96-7.44-3.18-10.67c-1.7-2.47-3.39-4.98-4.36-7.86
		c-3.09-9.11-1.72-17.48,4.4-24.94c3.58-4.36,8.22-7.1,13.74-8.28c1.75-0.37,3.53-0.6,5.33-0.53c0,3.03,0,6.05,0,9.08l0,0.01
		c-1-0.02-1.64,0.52-2.12,1.33c-0.59,1-1.2,1.98-1.82,2.96c-3.07,4.92-6.16,9.82-9.22,14.74c-0.99,1.59-0.53,2.94,1.2,3.63
		c2.99,1.21,5.98,2.41,8.99,3.59c0.52,0.2,0.72,0.48,0.71,1.06c-0.03,3.74-0.02,7.48-0.01,11.22c0,1.41,0.86,2.3,2.28,2.39
		L164.85,77.08z"/>
	<path class="st37" d="M133.28,72.54c-0.98,0-1.82-0.67-2.14-1.72c-0.29-0.95-0.03-1.85,0.83-2.38c1.44-0.89,2.9-1.74,4.38-2.54
		c1.02-0.55,2.19-0.13,2.81,0.88c0.63,1.02,0.52,2.29-0.44,2.91c-1.5,0.97-3.08,1.81-4.64,2.7
		C133.85,72.54,133.56,72.54,133.28,72.54z"/>
	<path class="st39" d="M196.65,72.54c-0.4,0.03-0.79-0.14-1.17-0.36c-1.25-0.72-2.49-1.43-3.73-2.16c-1.3-0.77-1.65-1.99-0.94-3.2
		c0.7-1.18,1.91-1.48,3.2-0.74c1.34,0.76,2.68,1.51,3.98,2.33c0.89,0.55,1.16,1.45,0.86,2.44
		C198.53,71.88,197.69,72.55,196.65,72.54z"/>
	<path class="st37" d="M133.35,31.56c0.42-0.03,0.84,0.15,1.23,0.38c1.22,0.7,2.45,1.4,3.67,2.12c1.3,0.76,1.66,1.99,0.96,3.21
		c-0.69,1.19-1.91,1.49-3.19,0.76c-1.34-0.76-2.68-1.52-3.98-2.32c-0.89-0.55-1.18-1.45-0.88-2.43
		C131.48,32.22,132.31,31.56,133.35,31.56z"/>
	<path class="st39" d="M190.48,36.06c-0.02-0.8,0.33-1.42,1.01-1.82c1.39-0.82,2.77-1.64,4.19-2.42c1.08-0.59,2.29-0.21,2.94,0.87
		c0.65,1.08,0.44,2.33-0.61,2.99c-1.41,0.88-2.84,1.73-4.32,2.5C192.2,38.94,190.49,37.78,190.48,36.06z"/>
	<path class="st39" d="M199.26,54.32c-0.76,0-1.51,0.02-2.27,0c-1.33-0.03-2.23-0.96-2.23-2.26c-0.01-1.31,0.89-2.26,2.22-2.28
		c1.54-0.02,3.08-0.02,4.62,0c1.33,0.02,2.23,0.96,2.24,2.26c0.01,1.31-0.89,2.24-2.22,2.28C200.83,54.34,200.04,54.32,199.26,54.32
		z"/>
	<path class="st37" d="M164.86,36.12c1.46,0.11,2.27,0.96,2.27,2.38c0,3.74,0.01,7.48-0.01,11.22c0,0.56,0.16,0.82,0.71,1.04
		c3.12,1.21,6.22,2.49,9.33,3.74c1.29,0.52,1.77,2.04,1,3.29c-1.66,2.7-3.35,5.39-5.03,8.08c-2.11,3.38-4.23,6.74-6.33,10.13
		c-0.46,0.75-1.11,1.06-1.94,1.09c0,0,0.01-0.01,0.01-0.01c0-13.65,0-27.29,0-40.94L164.86,36.12z"/>
	<path class="st37" d="M164.86,36.13c0,13.65,0,27.29,0,40.94c-1.42-0.09-2.28-0.98-2.28-2.39c0-3.74-0.02-7.48,0.01-11.22
		c0-0.58-0.19-0.86-0.71-1.06c-3-1.18-5.99-2.38-8.99-3.59c-1.73-0.7-2.19-2.05-1.2-3.63c3.07-4.92,6.15-9.83,9.22-14.74
		c0.61-0.98,1.23-1.97,1.82-2.96C163.23,36.65,163.86,36.11,164.86,36.13z"/>
</g>
</svg>
