<?xml version="1.0" encoding="utf-8"?>
<!-- Generator: Adobe Illustrator 25.2.0, SVG Export Plug-In . SVG Version: 6.00 Build 0)  -->
<svg version="1.1" id="圖層_1" xmlns="http://www.w3.org/2000/svg" xmlns:xlink="http://www.w3.org/1999/xlink" x="0px" y="0px"
	 viewBox="0 0 330 330" style="enable-background:new 0 0 330 330;" xml:space="preserve">
<style type="text/css">
	.st0{fill:#33A574;}
	.st1{fill:#FADFDB;}
	.st2{fill:#AB71AE;}
	.st3{fill:#FADFDB;stroke:#3E3A39;stroke-width:13;stroke-linecap:round;stroke-linejoin:round;stroke-miterlimit:10;}
	.st4{fill:#FADFDB;stroke:#3E3A39;stroke-width:12.0214;stroke-linecap:round;stroke-linejoin:round;stroke-miterlimit:10;}
	.st5{fill:#3E3A39;}
	.st6{fill:#F1BC52;}
	.st7{fill:#F39800;}
	.st8{fill:#473535;}
	.st9{fill:#FD7D27;}
	.st10{fill:#FEFEFE;}
	.st11{fill:#FD81B5;}
	.st12{fill:#595757;}
	.st13{fill:#8B8995;}
	.st14{fill:#FFFFFF;}
	.st15{fill:#3ABFF7;}
	.st16{font-family:'GenSenRoundedTW-H';}
	.st17{font-size:35.0174px;}
	.st18{fill:#3E3A39;stroke:#3E3A39;stroke-width:8;stroke-miterlimit:10;}
	.st19{fill:#FEBF7B;}
	.st20{fill:#9C511F;}
	.st21{fill:#E72423;}
	.st22{fill:#A35928;}
	.st23{fill:#DC2121;}
	.st24{fill:#F5F4F5;}
	.st25{fill:#F5F4F6;}
	.st26{fill:#F6F1F2;}
	.st27{fill:#D5A88A;}
	.st28{fill:#804F43;}
	.st29{fill:#F3F5F7;}
	.st30{fill:#FDFEFD;}
	.st31{fill:#5BC266;}
	.st32{fill:#727171;}
	.st33{fill:#006934;}
	.st34{fill:#8FC31F;}
	.st35{fill:#7789A3;}
	.st36{fill:#FDFDFC;}
	.st37{fill:#E8E153;}
	.st38{fill:#C4C8F6;}
	.st39{fill:#FDA732;}
	.st40{fill:#FDDA41;}
	.st41{fill:#FD9923;}
	.st42{fill:none;stroke:#7E318E;stroke-width:4.2517;stroke-linecap:round;stroke-linejoin:round;stroke-miterlimit:10;}
	.st43{fill:#FEB643;}
	.st44{fill:#994C0F;}
	.st45{fill:#713708;}
	.st46{clip-path:url(#SVGID_2_);fill:#FD7D27;}
</style>
<circle class="st15" cx="165" cy="165" r="165"/>
<g>
	<circle class="st1" cx="165" cy="165" r="101.36"/>
</g>
<text transform="matrix(1 0 0 1 14.935 -13.6883)" class="st14 st16 st17">ESFJ</text>
<g>
	<path class="st8" d="M190.19,193.42c2.14,0.87,3.51,2.46,3.85,4.7c1.45,9.39-1.07,17.63-7.37,24.72c-0.1,0.11-0.25,0.18-0.37,0.26
		c-0.26-0.28-0.5-0.6-0.79-0.84c-6.7-5.71-14.3-7.27-22.62-4.51c-5.57,1.85-9.78,5.49-12.49,10.76c-4.15-2.13-7.39-5.29-10.01-9.09
		c-2.5-3.62-4.05-7.62-4.73-11.96c-0.38-2.44,0.28-4.51,2.23-6.1c0.1,0.53,0.2,1.06,0.3,1.59c0.85,4.4,4.53,7.05,8.97,6.46
		c0.77-0.1,1.53-0.23,2.29-0.34c11.31-1.71,22.63-3.42,33.94-5.14c4.88-0.74,7.61-4.45,6.92-9.35
		C190.26,194.19,190.23,193.81,190.19,193.42z"/>
	<path class="st8" d="M190.19,193.42c0.04,0.38,0.07,0.77,0.12,1.15c0.69,4.9-2.03,8.61-6.92,9.35
		c-11.31,1.72-22.63,3.43-33.94,5.14c-0.76,0.12-1.53,0.24-2.29,0.34c-4.44,0.59-8.12-2.06-8.97-6.46c-0.1-0.53-0.2-1.06-0.3-1.59
		c0.96-0.92,2.17-1.32,3.44-1.51c15.04-2.28,30.08-4.56,45.12-6.83C187.73,192.83,188.99,192.86,190.19,193.42z"/>
	<path class="st9" d="M150.4,228.52c2.72-5.27,6.93-8.91,12.49-10.76c8.32-2.76,15.92-1.19,22.62,4.51
		c0.29,0.25,0.52,0.56,0.79,0.84c-0.73,1.32-1.97,2.15-3.1,3.04c-4.54,3.54-9.71,5.67-15.42,6.2c-5.71,0.53-11.21-0.47-16.35-3.12
		C151.06,229.05,150.63,228.92,150.4,228.52z"/>
</g>
<g>
	<path class="st5" d="M134.42,131.36c5.51,0.08,10.15,1.84,13.95,6.16c4.88,5.56,6.28,13.98,3.56,21.73
		c-2.78,7.91-7.85,12.85-14.57,15.39c-5.16,1.95-10.33,1.82-15.34-0.8c-8.89-4.65-12.52-16.28-8.32-26.83
		c3.23-8.1,8.77-12.8,15.93-14.93c0.71-0.21,1.43-0.37,2.16-0.47C132.78,131.48,133.78,131.42,134.42,131.36z"/>
	<path class="st5" d="M107.85,156.19c0.1-8.09,2.59-14.48,7.77-19.75c4-4.07,8.85-6.59,14.55-7.21c7.42-0.81,13.95,1.29,19.41,6.4
		c4.37,4.09,7.12,9.13,8.04,15.05c1.28,8.16-0.42,15.64-5.72,22.1c-3.91,4.77-8.97,7.76-15.08,8.74
		c-6.86,1.09-13.12-0.55-18.63-4.74c-5.53-4.22-8.78-9.89-9.93-16.74C108.01,158.53,107.93,156.99,107.85,156.19z M131.15,133.32
		c-0.42,0.03-1.07,0.06-1.72,0.14c-0.47,0.05-0.95,0.14-1.41,0.25c-4.68,1.16-8.3,3.73-10.41,8.14c-2.75,5.75-0.37,12.1,5.44,14.63
		c3.27,1.43,6.65,1.5,10.02,0.44c4.39-1.39,7.71-4.08,9.52-8.39c1.78-4.23,0.86-8.82-2.33-11.85
		C137.78,134.32,134.75,133.36,131.15,133.32z M141.26,156.77c-3.76,0-6.91,2.08-8.18,5.11c-1.63,3.89,0.58,7.9,4.67,8.46
		c3.47,0.47,7.1-1.47,8.61-4.64c0.91-1.91,1.07-3.86,0.04-5.77C145.21,157.71,143.2,156.85,141.26,156.77z"/>
	<path class="st5" d="M222.15,154.58c-0.08,7.39-1.98,13.32-6.27,18.38c-4.07,4.81-9.24,7.82-15.51,8.65
		c-7.52,0.99-14.15-1.16-19.77-6.24c-4.73-4.27-7.56-9.66-8.33-15.96c-1.31-10.67,2.24-19.42,10.93-25.89
		c3.78-2.81,8.12-4.26,12.84-4.43c6.97-0.25,13.02,2.02,18.01,6.91c4.07,3.98,6.62,8.79,7.62,14.39
		C221.98,152.03,222.06,153.71,222.15,154.58z M207.59,144.08c-0.11-3.77-1.8-6.8-5.12-8.85c-3.07-1.9-6.44-2.32-9.93-1.59
		c-4.87,1.02-8.6,3.65-10.82,8.18c-2.03,4.15-1.39,8.74,1.71,12.07c2.35,2.52,5.38,3.62,8.77,3.71c4.3,0.11,8.06-1.34,11.19-4.28
		C206.01,150.86,207.5,147.85,207.59,144.08z M196.66,163.98c-0.03,3,1.49,5.16,3.88,6.01c4.33,1.55,9.64-1.49,10.51-6.01
		c0.64-3.33-1.15-6.2-4.41-7.01c-1.8-0.45-3.56-0.23-5.21,0.58C198.56,158.97,196.86,161.21,196.66,163.98z"/>
	<path class="st18" d="M214.26,119.43c-5.64-0.06-10.65-1.01-15.23-3.33c-1.92-0.97-3.64-2.16-5.14-3.56
		c-0.84-0.78-0.81-1.86,0.04-2.53c0.85-0.67,2.15-0.62,2.98,0.14c3.19,2.94,7.2,4.58,11.76,5.34c2.44,0.41,4.9,0.55,7.39,0.36
		c1.26-0.09,2.22,0.59,2.33,1.63c0.1,0.94-0.74,1.74-1.98,1.84C215.57,119.39,214.74,119.41,214.26,119.43z"/>
	<path class="st18" d="M114.52,119.45c-0.87-0.04-1.74-0.07-2.61-0.14c-1.08-0.09-1.89-0.89-1.84-1.78c0.06-0.97,0.97-1.7,2.12-1.69
		c1.57,0,3.15,0.09,4.71-0.02c4.89-0.35,9.38-1.62,13.15-4.42c0.53-0.39,1.01-0.82,1.5-1.25c0.86-0.75,2.13-0.82,2.98-0.15
		c0.85,0.67,0.89,1.76,0.06,2.53c-3.26,3.02-7.29,4.92-11.91,5.99C120.01,119.13,117.29,119.42,114.52,119.45z"/>
	<path class="st14" d="M131.98,136.17c3.18,0.04,5.85,0.88,8.04,2.96c2.81,2.67,3.62,6.72,2.05,10.45c-1.6,3.8-4.52,6.18-8.4,7.4
		c-2.98,0.94-5.95,0.88-8.84-0.38c-5.12-2.24-7.22-7.83-4.79-12.9c1.86-3.89,5.05-6.16,9.18-7.18c0.41-0.1,0.83-0.18,1.24-0.22
		C131.03,136.23,131.6,136.2,131.98,136.17z"/>
	<path class="st14" d="M140.93,158.99c1.5,0.06,3.05,0.73,3.97,2.44c0.79,1.47,0.67,2.98-0.03,4.45c-1.16,2.45-3.96,3.95-6.64,3.58
		c-3.15-0.43-4.87-3.53-3.6-6.53C135.6,160.59,138.02,158.99,140.93,158.99z"/>
	<g>
		<path class="st5" d="M198.57,131.36c5.51,0.08,10.15,1.84,13.95,6.16c4.88,5.56,6.28,13.98,3.56,21.73
			c-2.78,7.91-7.85,12.85-14.57,15.39c-5.16,1.95-10.33,1.82-15.34-0.8c-8.89-4.65-12.52-16.28-8.32-26.83
			c3.23-8.1,8.77-12.8,15.93-14.93c0.71-0.21,1.43-0.37,2.16-0.47C196.93,131.47,197.93,131.41,198.57,131.36z"/>
		<path class="st5" d="M172,156.18c0.1-8.09,2.59-14.48,7.77-19.75c4-4.07,8.85-6.59,14.55-7.21c7.42-0.81,13.95,1.29,19.41,6.4
			c4.37,4.09,7.12,9.13,8.04,15.05c1.28,8.16-0.42,15.64-5.72,22.1c-3.91,4.77-8.97,7.76-15.08,8.74
			c-6.86,1.09-13.12-0.55-18.63-4.74c-5.53-4.22-8.78-9.89-9.93-16.74C172.15,158.52,172.08,156.99,172,156.18z M195.29,133.31
			c-0.42,0.03-1.07,0.06-1.72,0.14c-0.47,0.05-0.95,0.14-1.41,0.25c-4.68,1.16-8.3,3.73-10.41,8.14c-2.75,5.75-0.37,12.1,5.44,14.63
			c3.27,1.43,6.65,1.5,10.02,0.44c4.39-1.39,7.71-4.08,9.52-8.39c1.78-4.23,0.86-8.82-2.33-11.85
			C201.93,134.31,198.9,133.35,195.29,133.31z M205.4,156.76c-3.76,0-6.91,2.08-8.18,5.11c-1.63,3.89,0.58,7.9,4.67,8.46
			c3.47,0.47,7.1-1.47,8.61-4.64c0.91-1.91,1.07-3.86,0.04-5.77C209.35,157.71,207.35,156.84,205.4,156.76z"/>
		<path class="st14" d="M196.12,136.17c3.18,0.04,5.85,0.88,8.04,2.96c2.81,2.67,3.62,6.72,2.05,10.45c-1.6,3.8-4.52,6.18-8.4,7.4
			c-2.98,0.94-5.95,0.88-8.84-0.38c-5.12-2.24-7.22-7.83-4.79-12.9c1.86-3.89,5.05-6.16,9.18-7.18c0.41-0.1,0.83-0.18,1.24-0.22
			C195.18,136.22,195.75,136.2,196.12,136.17z"/>
		<path class="st14" d="M205.08,158.98c1.5,0.06,3.05,0.73,3.97,2.44c0.79,1.47,0.67,2.98-0.03,4.45c-1.16,2.45-3.96,3.95-6.64,3.58
			c-3.15-0.43-4.87-3.53-3.6-6.53C199.74,160.59,202.17,158.98,205.08,158.98z"/>
	</g>
</g>
<g>
	<path class="st19" d="M227.07,257.74c-0.7-0.37-1.46-0.63-1.96-1.3c-0.52-0.69-0.73-1.48-0.73-2.3c-0.01-4,0-7.99,0.01-11.99
		c0.26,0.44,0.49,0.91,0.86,1.28c0.85,0.83,1.88,0.96,2.9,0.34c0.52-0.32,0.92-0.78,1.3-1.26c1.02-1.29,1.82-2.74,2.93-3.95
		c1.11-1.22,2.42-1.99,4.15-1.87c1.38,0.09,2.52,0.69,3.6,1.47c0.79,0.57,1.53,1.2,2.38,1.68c2.29,1.32,4.36,0.93,6.04-1.12
		c1.14-1.39,1.98-2.99,3.09-4.4c1.84-2.36,4-2.76,6.52-1.15c0.53,0.34,1.04,0.7,1.55,1.06c0.86,0.59,1.76,1.12,2.83,1.19
		c1.65,0.1,2.78-0.8,3.69-2.03c0.71-0.95,1.33-1.97,2.04-2.92c1.61-2.15,3.6-2.4,5.71-0.76c0.65,0.5,1.26,1.05,1.88,1.58
		c0,0.03,0.01,0.07,0.01,0.1c0,4.67,0,9.35,0,14.02c-2.67,0.7-5.34,1.4-8.01,2.1c-10.1,2.62-20.21,5.23-30.31,7.84
		c-3.03,0.78-6.06,1.55-9.09,2.32c-0.04,0.01-0.07,0.05-0.1,0.08C227.94,257.74,227.5,257.74,227.07,257.74z"/>
	<path class="st20" d="M224.33,228.14c-0.13-0.51,0.15-0.93,0.32-1.35c3.75-9.48,7.51-18.95,11.28-28.42
		c0.23-0.57,0.51-1.1,1.08-1.4c0.14,0.05,0.28,0.12,0.43,0.14c3.26,0.39,6.46,1.08,9.64,1.9c1.24,0.32,2.49,0.64,3.73,0.97
		c0,1.37,0.11,2.72,0.91,3.9c0.35,0.78,0.91,1.39,1.59,1.91c2.89,2.19,7.35,2.42,9.98-0.86c0.08,0.17,0.24,0.23,0.39,0.32
		c1.84,1.01,3.67,2.04,5.38,3.27c0.92,0.67,1.64,1.51,1.88,2.66c-1.31,0.06-2.56,0.41-3.8,0.77c-0.86,0.25-1.33,1.34-1.07,2.18
		c0.25,0.83,1.2,1.42,2.1,1.26c0.93-0.17,1.86-0.39,2.79-0.59c-0.59,1.88-1.91,2.99-3.76,3.48c-3.97,1.05-7.94,2.07-11.92,3.1
		c-7.64,1.96-15.28,3.92-22.92,5.88c-2.5,0.64-4.99,1.3-7.49,1.94C224.41,228.97,224.59,228.45,224.33,228.14z M232.84,224.66
		c0.26,0.02,0.58-0.1,0.9-0.26c0.78-0.41,1.58-0.81,2.36-1.23c0.99-0.53,1.31-1.49,0.84-2.46c-0.44-0.9-1.44-1.22-2.44-0.74
		c-0.89,0.43-1.77,0.9-2.64,1.38c-0.75,0.41-1.04,1.17-0.82,1.99C231.27,224.19,231.89,224.66,232.84,224.66z M243.11,216.7
		c0.75,0.01,1.45-0.5,1.72-1.25c0.26-0.75,0.08-1.43-0.53-1.91c-0.78-0.61-1.56-1.23-2.36-1.81c-0.87-0.64-1.88-0.48-2.51,0.36
		c-0.61,0.81-0.47,1.79,0.36,2.46c0.74,0.6,1.5,1.16,2.25,1.74C242.36,216.53,242.71,216.69,243.11,216.7z M243.03,206.19
		c1.44,0.02,2.32-1.33,1.75-2.5c-0.46-0.93-0.94-1.85-1.44-2.75c-0.49-0.88-1.46-1.16-2.34-0.72c-0.83,0.41-1.19,1.38-0.76,2.26
		c0.47,0.97,0.98,1.92,1.5,2.87C242.04,205.92,242.55,206.16,243.03,206.19z M258.39,213.76c-0.01-0.71-0.31-1.27-0.95-1.58
		c-0.65-0.32-1.31-0.25-1.9,0.18c-0.73,0.54-1.44,1.1-2.16,1.66c-0.89,0.7-1.05,1.74-0.4,2.63c0.59,0.8,1.59,0.9,2.52,0.21
		c0.75-0.55,1.48-1.13,2.21-1.7C258.18,214.81,258.4,214.34,258.39,213.76z"/>
	<path class="st20" d="M224.33,228.14c0.25,0.31,0.07,0.84,0.53,1.05c0.52,1.2,1.7,1.37,2.86,1.08c3.2-0.78,6.38-1.62,9.57-2.43
		c3.06-0.78,6.13-1.54,9.2-2.33c5.58-1.44,11.16-2.91,16.74-4.36c3.35-0.87,6.71-1.74,10.07-2.58c0.85-0.21,1.69-0.54,2.58-0.55
		c0,4.42-0.01,8.85-0.01,13.27c-0.63-0.53-1.24-1.08-1.88-1.58c-2.11-1.65-4.1-1.39-5.71,0.76c-0.71,0.95-1.33,1.97-2.04,2.92
		c-0.92,1.22-2.04,2.13-3.69,2.03c-1.08-0.07-1.97-0.59-2.83-1.19c-0.52-0.35-1.03-0.72-1.55-1.06c-2.52-1.6-4.68-1.21-6.52,1.15
		c-1.1,1.42-1.95,3.01-3.09,4.4c-1.67,2.04-3.75,2.44-6.04,1.12c-0.85-0.49-1.59-1.12-2.38-1.68c-1.08-0.78-2.23-1.38-3.6-1.47
		c-1.73-0.12-3.04,0.65-4.15,1.87c-1.11,1.22-1.92,2.67-2.93,3.95c-0.38,0.48-0.77,0.94-1.3,1.26c-1.02,0.62-2.05,0.49-2.9-0.34
		c-0.38-0.37-0.6-0.84-0.86-1.28c-0.03-0.21-0.08-0.43-0.08-0.64c0-4.35,0-8.7,0-13.04C224.3,228.35,224.32,228.24,224.33,228.14z"
		/>
	<path class="st20" d="M275.88,218.01c-0.9,0.01-1.73,0.34-2.58,0.55c-3.36,0.84-6.71,1.71-10.07,2.58
		c-5.58,1.45-11.16,2.91-16.74,4.36c-3.06,0.79-6.13,1.55-9.2,2.33c-3.19,0.81-6.37,1.66-9.57,2.43c-1.17,0.28-2.34,0.11-2.86-1.08
		c2.5-0.65,4.99-1.3,7.49-1.94c7.64-1.96,15.28-3.91,22.92-5.88c3.98-1.02,7.95-2.04,11.92-3.1c1.84-0.49,3.17-1.6,3.76-3.48
		c0.05-0.03,0.1-0.07,0.15-0.1c0.84-0.28,1.3-0.91,1.3-1.76c0-0.82-0.46-1.39-1.32-1.65c-0.05-0.03-0.09-0.07-0.14-0.1
		c-0.24-1.16-0.95-2-1.88-2.66c-1.71-1.23-3.54-2.26-5.38-3.27c-0.15-0.08-0.32-0.14-0.39-0.32c0.6-0.8,1.04-1.69,1.41-2.61
		c5.27,2.11,10.27,4.69,14.63,8.39c0.51,0.43,0.97,0.92,1.48,1.35c1.04,0.86,1.36,1.95,1.13,3.24c-0.06,0.03-0.15,0.04-0.17,0.08
		c-0.5,1.02-1.41,1.41-2.45,1.66C278.16,217.31,276.97,217.51,275.88,218.01z"/>
	<path class="st20" d="M275.88,218.01c1.09-0.51,2.28-0.7,3.44-0.98c1.05-0.25,1.95-0.64,2.45-1.66c0.02-0.04,0.11-0.06,0.17-0.08
		c0.01,2.2,0.03,4.41,0.03,6.61c0,3.2-0.02,6.4-0.02,9.59c-0.89,0.94-1.94,1.49-3.27,1.29c-1.08-0.16-1.95-0.76-2.78-1.4
		c-0.01-0.03-0.01-0.07-0.01-0.1C275.87,226.86,275.88,222.44,275.88,218.01z"/>
	<path class="st21" d="M251.73,203.87c-0.8-1.18-0.92-2.53-0.91-3.9c0.1-0.6,0.19-1.2,0.29-1.79c0.36-0.82,0.69-1.66,1.27-2.37
		c1.47-1.81,3.53-2.18,5.52-0.97c0.2,0.12,0.4,0.24,0.61,0.36c0.44,0.54,0.95,0.81,1.65,0.5c0.71-0.01,1.43,0,2.11,0.28
		c0.29,1.79,0.13,3.48-0.74,5.13c-1.45,2.75-4.27,4.14-7.34,3.57C253.31,204.51,252.54,204.13,251.73,203.87z M255.49,196.59
		c-0.03-0.27-0.14-0.53-0.45-0.68c-0.33-0.16-0.63-0.11-0.91,0.1c-0.77,0.58-1.25,1.35-1.54,2.27c-0.15,0.49-0.1,0.92,0.39,1.16
		c0.45,0.22,0.96-0.06,1.17-0.62c0.22-0.6,0.53-1.13,1.02-1.55C255.36,197.1,255.47,196.89,255.49,196.59z M252.34,201.22
		c-0.01,0.59,0.34,0.98,0.88,0.95c0.52-0.03,0.77-0.34,0.78-0.84c0.02-0.54-0.34-1-0.78-1.02
		C252.75,200.29,252.35,200.7,252.34,201.22z"/>
	<path class="st19" d="M275.88,231.38c0.84,0.65,1.71,1.24,2.78,1.4c1.33,0.2,2.38-0.35,3.27-1.29c0.01,3.28,0.06,6.56,0.01,9.84
		c-0.02,1.59-1.03,2.75-2.56,3.19c-1.16,0.33-2.32,0.66-3.5,0.88C275.88,240.73,275.88,236.06,275.88,231.38z"/>
	<path class="st21" d="M251.73,203.87c0.82,0.26,1.58,0.64,2.44,0.8c3.07,0.57,5.89-0.83,7.34-3.57c0.87-1.64,1.04-3.34,0.74-5.13
		c1.62,0.54,2.59,1.9,2.72,3.77c0.06,0.87-0.13,1.71-0.27,2.56c-0.37,0.92-0.81,1.81-1.41,2.61c-2.62,3.28-7.08,3.05-9.98,0.86
		C252.63,205.26,252.08,204.65,251.73,203.87z"/>
	<path class="st22" d="M251.1,198.17c-0.09,0.6-0.19,1.2-0.29,1.79c-1.24-0.32-2.49-0.65-3.73-0.97c-3.18-0.81-6.38-1.5-9.64-1.9
		c-0.15-0.02-0.28-0.09-0.43-0.14c0.57-0.48,1.25-0.53,1.95-0.48c3.51,0.22,6.98,0.67,10.43,1.35
		C249.96,197.95,250.53,198.06,251.1,198.17z"/>
	<path class="st23" d="M260.15,195.7c-0.7,0.31-1.21,0.04-1.65-0.5c0.65-1.36,1.48-2.57,2.65-3.53c0.58-0.48,0.99-0.48,1.33-0.03
		c0.35,0.46,0.26,0.87-0.3,1.31C261.24,193.67,260.53,194.56,260.15,195.7z"/>
	<path class="st24" d="M232.84,224.66c-0.95,0-1.56-0.48-1.8-1.32c-0.23-0.81,0.07-1.57,0.82-1.99c0.87-0.48,1.75-0.95,2.64-1.38
		c0.99-0.48,2-0.16,2.44,0.74c0.47,0.96,0.14,1.93-0.84,2.46c-0.78,0.42-1.57,0.81-2.36,1.23
		C233.42,224.57,233.1,224.69,232.84,224.66z"/>
	<path class="st24" d="M243.11,216.7c-0.4-0.01-0.75-0.17-1.07-0.41c-0.75-0.58-1.51-1.15-2.25-1.74c-0.84-0.67-0.97-1.65-0.36-2.46
		c0.63-0.84,1.64-1,2.51-0.36c0.8,0.59,1.58,1.2,2.36,1.81c0.61,0.48,0.8,1.17,0.53,1.91C244.56,216.2,243.86,216.71,243.11,216.7z"
		/>
	<path class="st24" d="M243.03,206.19c-0.48-0.03-0.99-0.28-1.29-0.84c-0.51-0.95-1.03-1.9-1.5-2.87c-0.42-0.88-0.07-1.85,0.76-2.26
		c0.88-0.44,1.85-0.15,2.34,0.72c0.5,0.91,0.98,1.83,1.44,2.75C245.35,204.86,244.47,206.21,243.03,206.19z"/>
	<path class="st25" d="M258.39,213.76c0.01,0.58-0.21,1.05-0.67,1.41c-0.73,0.57-1.46,1.15-2.21,1.7c-0.94,0.69-1.94,0.59-2.52-0.21
		c-0.65-0.89-0.5-1.93,0.4-2.63c0.71-0.56,1.43-1.12,2.16-1.66c0.59-0.43,1.25-0.5,1.9-0.18
		C258.09,212.49,258.38,213.05,258.39,213.76z"/>
	<path class="st25" d="M271.1,214.69c-0.05,0.03-0.1,0.07-0.15,0.1c-0.93,0.2-1.85,0.41-2.79,0.59c-0.89,0.17-1.85-0.42-2.1-1.26
		c-0.25-0.84,0.21-1.92,1.07-2.18c1.24-0.36,2.49-0.72,3.8-0.77c0.05,0.03,0.09,0.07,0.14,0.1
		C271.43,212.41,271.34,213.55,271.1,214.69z"/>
	<path class="st25" d="M271.1,214.69c0.24-1.14,0.33-2.28-0.02-3.41c0.86,0.26,1.32,0.83,1.32,1.65
		C272.4,213.77,271.94,214.4,271.1,214.69z"/>
	<path class="st26" d="M255.49,196.59c-0.02,0.3-0.13,0.51-0.32,0.67c-0.49,0.42-0.8,0.95-1.02,1.55c-0.21,0.56-0.71,0.84-1.17,0.62
		c-0.5-0.24-0.54-0.67-0.39-1.16c0.29-0.91,0.77-1.69,1.54-2.27c0.28-0.21,0.58-0.26,0.91-0.1
		C255.34,196.06,255.46,196.32,255.49,196.59z"/>
	<path class="st24" d="M252.34,201.22c0.01-0.51,0.41-0.93,0.88-0.91c0.44,0.02,0.8,0.48,0.78,1.02c-0.01,0.5-0.27,0.81-0.78,0.84
		C252.68,202.2,252.33,201.81,252.34,201.22z"/>
</g>
</svg>
