<?xml version="1.0" encoding="utf-8"?>
<!-- Generator: Adobe Illustrator 25.2.0, SVG Export Plug-In . SVG Version: 6.00 Build 0)  -->
<svg version="1.1" id="圖層_1" xmlns="http://www.w3.org/2000/svg" xmlns:xlink="http://www.w3.org/1999/xlink" x="0px" y="0px"
	 viewBox="0 0 330 330" style="enable-background:new 0 0 330 330;" xml:space="preserve">
<style type="text/css">
	.st0{fill:#33A574;}
	.st1{fill:#FADFDB;}
	.st2{fill:#AB71AE;}
	.st3{fill:#FADFDB;stroke:#3E3A39;stroke-width:13;stroke-linecap:round;stroke-linejoin:round;stroke-miterlimit:10;}
	.st4{fill:#FADFDB;stroke:#3E3A39;stroke-width:12.0214;stroke-linecap:round;stroke-linejoin:round;stroke-miterlimit:10;}
	.st5{fill:#3E3A39;}
	.st6{fill:#F1BC52;}
	.st7{fill:#F39800;}
	.st8{fill:#473535;}
	.st9{fill:#FD7D27;}
	.st10{fill:#FEFEFE;}
	.st11{fill:#FD81B5;}
	.st12{fill:#595757;}
	.st13{fill:#8B8995;}
	.st14{fill:#FFFFFF;}
	.st15{fill:#3ABFF7;}
	.st16{fill:#3E3A39;stroke:#3E3A39;stroke-width:8;stroke-miterlimit:10;}
	.st17{fill:#FEBF7B;}
	.st18{fill:#9C511F;}
	.st19{fill:#E72423;}
	.st20{fill:#A35928;}
	.st21{fill:#DC2121;}
	.st22{fill:#F5F4F5;}
	.st23{fill:#F5F4F6;}
	.st24{fill:#F6F1F2;}
	.st25{fill:#D5A88A;}
	.st26{fill:#804F43;}
	.st27{fill:#F3F5F7;}
	.st28{fill:#FDFEFD;}
	.st29{fill:#5BC266;}
	.st30{fill:#727171;}
	.st31{fill:#006934;}
	.st32{fill:#8FC31F;}
	.st33{fill:#7789A3;}
	.st34{fill:#FDFDFC;}
	.st35{fill:#E8E153;}
	.st36{fill:#C4C8F6;}
	.st37{fill:#FDA732;}
	.st38{fill:#FDDA41;}
	.st39{fill:#FD9923;}
	.st40{fill:none;stroke:#7E318E;stroke-width:4.2517;stroke-linecap:round;stroke-linejoin:round;stroke-miterlimit:10;}
	.st41{fill:#FEB643;}
	.st42{fill:#994C0F;}
	.st43{fill:#713708;}
	.st44{clip-path:url(#SVGID_2_);fill:#FD7D27;}
</style>
<g>
	<circle class="st15" cx="165" cy="165" r="165"/>
	<g>
		<circle class="st1" cx="165" cy="165" r="101.36"/>
	</g>
	<g>
		<path class="st5" d="M164.12,215.75c-15.72-0.59-29.12-10.6-33.66-25.14c-1.45-4.63,0.15-8.56,4-9.88c4-1.37,7.67,0.64,9.35,5.13
			c3.71,9.92,11.48,15.7,21.14,15.71c9.7,0.01,17.67-5.82,21.28-15.57c1.69-4.56,5.22-6.6,9.21-5.32c3.9,1.25,5.59,5.19,4.2,9.8
			C195.1,205.55,179.92,216.35,164.12,215.75z"/>
		<path class="st5" d="M133.17,156.23c-9.35,0-17.64-6.24-19.78-14.89c-0.98-3.96,0.77-7.37,4.44-8.65c3.41-1.19,7.32,0.28,8.7,3.76
			c1.25,3.16,2.91,5.55,6.5,5.66c3.83,0.12,5.54-2.44,6.9-5.67c1.55-3.69,5.38-5.04,9.03-3.6c3.67,1.44,5.23,5.42,3.8,9.71
			C150.04,150.67,142.09,156.23,133.17,156.23z"/>
		<path class="st5" d="M196.79,156.23c-8.66-0.02-16.17-5.11-19.23-13.03c-1.77-4.58-0.52-8.6,3.19-10.27
			c3.97-1.79,7.69-0.08,9.8,4.62c1.28,2.84,3.27,4.69,6.49,4.57c3.01-0.11,4.87-1.87,6.04-4.63c1.96-4.61,5.54-6.28,9.5-4.65
			c3.87,1.59,5.26,5.48,3.61,10.06C213.29,150.93,205.56,156.25,196.79,156.23z"/>
	</g>
</g>
<g>
	<path class="st41" d="M164.93,92.85c-9.15,0-18.31,0-27.46,0c-3.25,0-5.17-1.64-5.81-4.85c-2.5-12.53-5.03-25.06-7.52-37.6
		c-0.28-1.4-0.79-2.79-0.53-4.25c0.7-3.98,5.2-5.84,8.46-3.42c3.14,2.33,6.19,4.79,9.28,7.19c0.7,0.55,1.4,1.11,2.12,1.63
		c2.28,1.65,5.33,1.33,7.17-0.8c3.22-3.72,6.42-7.46,9.6-11.22c1.15-1.36,2.39-2.51,4.26-2.66c1.85-0.15,3.39,0.48,4.6,1.89
		c2.33,2.7,4.65,5.41,6.97,8.12c1.11,1.29,2.19,2.6,3.31,3.87c1.89,2.14,4.95,2.48,7.24,0.73c3.73-2.84,7.42-5.74,11.13-8.61
		c1.89-1.46,4.2-1.62,6.12-0.44c2.02,1.24,2.93,3.29,2.45,5.7c-2.33,11.72-4.67,23.44-7.01,35.15c-0.33,1.63-0.66,3.27-0.98,4.9
		c-0.57,2.96-2.61,4.67-5.62,4.67C183.47,92.85,174.2,92.85,164.93,92.85z"/>
</g>
</svg>
