<?xml version="1.0" encoding="utf-8"?>
<!-- Generator: Adobe Illustrator 25.2.0, SVG Export Plug-In . SVG Version: 6.00 Build 0)  -->
<svg version="1.1" id="圖層_1" xmlns="http://www.w3.org/2000/svg" xmlns:xlink="http://www.w3.org/1999/xlink" x="0px" y="0px"
	 viewBox="0 0 330 330" style="enable-background:new 0 0 330 330;" xml:space="preserve">
<style type="text/css">
	.st0{fill:#33A574;}
	.st1{fill:#FADFDB;}
	.st2{fill:#AB71AE;}
	.st3{fill:#FADFDB;stroke:#3E3A39;stroke-width:13;stroke-linecap:round;stroke-linejoin:round;stroke-miterlimit:10;}
	.st4{fill:#FADFDB;stroke:#3E3A39;stroke-width:12.0214;stroke-linecap:round;stroke-linejoin:round;stroke-miterlimit:10;}
	.st5{fill:#3E3A39;}
	.st6{fill:#F1BC52;}
	.st7{fill:#F39800;}
	.st8{fill:#473535;}
	.st9{fill:#FD7D27;}
	.st10{fill:#FEFEFE;}
	.st11{fill:#FD81B5;}
	.st12{fill:#595757;}
	.st13{fill:#8B8995;}
	.st14{fill:#FFFFFF;}
	.st15{fill:#3ABFF7;}
	.st16{fill:#3E3A39;stroke:#3E3A39;stroke-width:8;stroke-miterlimit:10;}
	.st17{fill:#FEBF7B;}
	.st18{fill:#9C511F;}
	.st19{fill:#E72423;}
	.st20{fill:#A35928;}
	.st21{fill:#DC2121;}
	.st22{fill:#F5F4F5;}
	.st23{fill:#F5F4F6;}
	.st24{fill:#F6F1F2;}
	.st25{fill:#D5A88A;}
	.st26{fill:#804F43;}
	.st27{fill:#F3F5F7;}
	.st28{fill:#FDFEFD;}
	.st29{fill:#5BC266;}
	.st30{fill:#727171;}
	.st31{fill:#006934;}
	.st32{fill:#8FC31F;}
	.st33{fill:#7789A3;}
	.st34{fill:#FDFDFC;}
	.st35{fill:#E8E153;}
	.st36{fill:#C4C8F6;}
	.st37{fill:#FDA732;}
	.st38{fill:#FDDA41;}
	.st39{fill:#FD9923;}
	.st40{fill:none;stroke:#7E318E;stroke-width:4.2517;stroke-linecap:round;stroke-linejoin:round;stroke-miterlimit:10;}
	.st41{font-family:'GenSenRoundedTW-H';}
	.st42{font-size:35.0174px;}
	.st43{fill:#FEB643;}
	.st44{fill:#994C0F;}
	.st45{fill:#713708;}
	.st46{clip-path:url(#SVGID_2_);fill:#FD7D27;}
</style>
<circle class="st0" cx="165" cy="165" r="165"/>
<g>
	<circle class="st1" cx="165" cy="165" r="101.36"/>
</g>
<g>
	<path class="st11" d="M247.93,214.9c2.39-6.41,9.11-10.54,16.12-9.88c6.76,0.63,12.6,5.96,13.83,12.52
		c0.84,4.48-0.38,8.47-2.74,12.2c-2.81,4.45-6.54,8.07-10.55,11.41c-4.63,3.85-9.6,7.19-14.79,10.23c-0.63,0.37-1.26,0.75-2.05,0.64
		c-0.01-12.02-0.02-24.04-0.01-36.06C247.73,215.6,247.86,215.25,247.93,214.9z"/>
	<path class="st11" d="M247.93,214.9c-0.07,0.35-0.2,0.71-0.2,1.06c0,12.02,0.01,24.04,0.01,36.06c-0.65,0.06-1.23-0.17-1.77-0.49
		c-7.24-4.2-14.12-8.91-20.08-14.84c-3.13-3.12-5.89-6.52-7.53-10.7c-3.56-9.09,2.51-19.43,12.2-20.8
		c7.14-1.01,13.63,2.52,16.69,9.07C247.4,214.53,247.35,215.06,247.93,214.9z"/>
</g>
<text transform="matrix(1 0 0 1 8.2582 -13.6878)" class="st14 st41 st42">INFJ</text>
<g>
	<path class="st5" d="M134.41,130.25c5.51,0.08,10.15,1.84,13.95,6.16c4.88,5.56,6.28,13.98,3.56,21.73
		c-2.78,7.91-7.85,12.85-14.57,15.39c-5.16,1.95-10.33,1.82-15.34-0.8c-8.89-4.65-12.52-16.28-8.32-26.83
		c3.23-8.1,8.77-12.8,15.93-14.93c0.71-0.21,1.43-0.37,2.16-0.47C132.77,130.37,133.77,130.31,134.41,130.25z"/>
	<path class="st5" d="M107.84,155.08c0.1-8.09,2.59-14.48,7.77-19.75c4-4.07,8.85-6.59,14.55-7.21c7.42-0.81,13.95,1.29,19.41,6.4
		c4.37,4.09,7.12,9.13,8.04,15.05c1.28,8.16-0.42,15.64-5.72,22.1c-3.91,4.77-8.97,7.76-15.08,8.74
		c-6.86,1.09-13.12-0.55-18.63-4.74c-5.53-4.22-8.78-9.89-9.93-16.74C108,157.42,107.92,155.88,107.84,155.08z M131.14,132.21
		c-0.42,0.03-1.07,0.06-1.72,0.14c-0.47,0.05-0.95,0.14-1.41,0.25c-4.68,1.16-8.3,3.73-10.41,8.14c-2.75,5.75-0.37,12.1,5.44,14.63
		c3.27,1.43,6.65,1.5,10.02,0.44c4.39-1.39,7.71-4.08,9.52-8.39c1.78-4.23,0.86-8.82-2.33-11.85
		C137.77,133.21,134.74,132.25,131.14,132.21z M141.25,155.66c-3.76,0-6.91,2.08-8.18,5.11c-1.63,3.89,0.58,7.9,4.67,8.46
		c3.47,0.47,7.1-1.47,8.61-4.64c0.91-1.91,1.07-3.86,0.04-5.77C145.2,156.6,143.19,155.74,141.25,155.66z"/>
	<path class="st5" d="M222.14,153.47c-0.08,7.39-1.98,13.32-6.27,18.38c-4.07,4.81-9.24,7.82-15.51,8.65
		c-7.52,0.99-14.15-1.16-19.77-6.24c-4.73-4.27-7.56-9.66-8.33-15.96c-1.31-10.67,2.24-19.42,10.93-25.89
		c3.78-2.81,8.12-4.26,12.84-4.43c6.97-0.25,13.02,2.02,18.01,6.91c4.07,3.98,6.62,8.79,7.62,14.39
		C221.97,150.92,222.05,152.6,222.14,153.47z M207.58,142.97c-0.11-3.77-1.8-6.8-5.12-8.85c-3.07-1.9-6.44-2.32-9.93-1.59
		c-4.87,1.02-8.6,3.65-10.82,8.18c-2.03,4.15-1.39,8.74,1.71,12.07c2.35,2.52,5.38,3.62,8.77,3.71c4.3,0.11,8.06-1.34,11.19-4.28
		C206,149.75,207.49,146.74,207.58,142.97z M196.65,162.88c-0.03,3,1.49,5.16,3.88,6.01c4.33,1.55,9.64-1.49,10.51-6.01
		c0.64-3.33-1.15-6.2-4.41-7.01c-1.8-0.45-3.56-0.23-5.21,0.58C198.55,157.86,196.85,160.11,196.65,162.88z"/>
	<path class="st14" d="M131.97,135.07c3.18,0.04,5.85,0.88,8.04,2.96c2.81,2.67,3.62,6.72,2.05,10.45c-1.6,3.8-4.52,6.18-8.4,7.4
		c-2.98,0.94-5.95,0.88-8.84-0.38c-5.12-2.24-7.22-7.83-4.79-12.9c1.86-3.89,5.05-6.16,9.18-7.18c0.41-0.1,0.83-0.18,1.24-0.22
		C131.02,135.12,131.59,135.09,131.97,135.07z"/>
	<path class="st14" d="M140.92,157.88c1.5,0.06,3.05,0.73,3.97,2.44c0.79,1.47,0.67,2.98-0.03,4.45c-1.16,2.45-3.96,3.95-6.64,3.58
		c-3.15-0.43-4.87-3.53-3.6-6.53C135.59,159.49,138.01,157.88,140.92,157.88z"/>
	<g>
		<path class="st5" d="M198.56,130.25c5.51,0.08,10.15,1.84,13.95,6.16c4.88,5.56,6.28,13.98,3.56,21.73
			c-2.78,7.91-7.85,12.85-14.57,15.39c-5.16,1.95-10.33,1.82-15.34-0.8c-8.89-4.65-12.52-16.28-8.32-26.83
			c3.23-8.1,8.77-12.8,15.93-14.93c0.71-0.21,1.43-0.37,2.16-0.47C196.92,130.36,197.92,130.31,198.56,130.25z"/>
		<path class="st5" d="M171.99,155.07c0.1-8.09,2.59-14.48,7.77-19.75c4-4.07,8.85-6.59,14.55-7.21c7.42-0.81,13.95,1.29,19.41,6.4
			c4.37,4.09,7.12,9.13,8.04,15.05c1.28,8.16-0.42,15.64-5.72,22.1c-3.91,4.77-8.97,7.76-15.08,8.74
			c-6.86,1.09-13.12-0.55-18.63-4.74c-5.53-4.22-8.78-9.89-9.93-16.74C172.14,157.42,172.07,155.88,171.99,155.07z M195.28,132.2
			c-0.42,0.03-1.07,0.06-1.72,0.14c-0.47,0.05-0.95,0.14-1.41,0.25c-4.68,1.16-8.3,3.73-10.41,8.14c-2.75,5.75-0.37,12.1,5.44,14.63
			c3.27,1.43,6.65,1.5,10.02,0.44c4.39-1.39,7.71-4.08,9.52-8.39c1.78-4.23,0.86-8.82-2.33-11.85
			C201.92,133.2,198.89,132.25,195.28,132.2z M205.39,155.65c-3.76,0-6.91,2.08-8.18,5.11c-1.63,3.89,0.58,7.9,4.67,8.46
			c3.47,0.47,7.1-1.47,8.61-4.64c0.91-1.91,1.07-3.86,0.04-5.77C209.34,156.6,207.34,155.73,205.39,155.65z"/>
		<path class="st14" d="M196.11,135.06c3.18,0.04,5.85,0.88,8.04,2.96c2.81,2.67,3.62,6.72,2.05,10.45c-1.6,3.8-4.52,6.18-8.4,7.4
			c-2.98,0.94-5.95,0.88-8.84-0.38c-5.12-2.24-7.22-7.83-4.79-12.9c1.86-3.89,5.05-6.16,9.18-7.18c0.41-0.1,0.83-0.18,1.24-0.22
			C195.17,135.12,195.74,135.09,196.11,135.06z"/>
		<path class="st14" d="M205.07,157.87c1.5,0.06,3.05,0.73,3.97,2.44c0.79,1.47,0.67,2.98-0.03,4.45c-1.16,2.45-3.96,3.95-6.64,3.58
			c-3.15-0.43-4.87-3.53-3.6-6.53C199.73,159.48,202.16,157.87,205.07,157.87z"/>
	</g>
</g>
<g>
	<path class="st8" d="M192.82,214.86c-0.85-6.67-4.18-11.78-9.85-15.37c-0.09-0.06-0.2-0.07-0.31-0.11
		c-0.76-0.75-1.76-1.08-2.71-1.46c-3.78-1.52-7.71-1.96-11.7-1.2c-3.99,0.76-7.53,2.51-10.51,5.32c-0.21,0.2-0.48,0.37-0.56,0.69
		c-2.41,2.26-3.99,5.04-5.03,8.14c-0.99,2.95-1.27,5.98-0.87,9.06c0.22,1.73,1.08,3.01,2.71,3.71c0.84,0.44,1.73,0.47,2.64,0.35
		c10.67-1.39,21.35-2.79,32.02-4.19c0.9-0.12,1.76-0.39,2.47-1.01C192.4,217.8,193.02,216.46,192.82,214.86z"/>
	<g>
		<defs>
			<path id="SVGID_1_" d="M192.82,214.86c-0.85-6.67-4.18-11.78-9.85-15.37c-0.09-0.06-0.2-0.07-0.31-0.11
				c-0.76-0.75-1.76-1.08-2.71-1.46c-3.78-1.52-7.71-1.96-11.7-1.2c-3.99,0.76-7.53,2.51-10.51,5.32c-0.21,0.2-0.48,0.37-0.56,0.69
				c-2.41,2.26-3.99,5.04-5.03,8.14c-0.99,2.95-1.27,5.98-0.87,9.06c0.22,1.73,1.08,3.01,2.71,3.71c0.84,0.44,1.73,0.47,2.64,0.35
				c10.67-1.39,21.35-2.79,32.02-4.19c0.9-0.12,1.76-0.39,2.47-1.01C192.4,217.8,193.02,216.46,192.82,214.86z"/>
		</defs>
		<clipPath id="SVGID_2_">
			<use xlink:href="#SVGID_1_"  style="overflow:visible;"/>
		</clipPath>
		<path class="st46" d="M186.23,220.1c-2.88-3.05-6.45-4.71-10.6-4.88c-6.2-0.25-11.06,2.3-14.51,7.49
			c-0.15,0.22-0.25,0.48-0.37,0.73c0.76,0.75,1.76,1.08,2.7,1.46c3.78,1.52,7.71,1.96,11.7,1.21c3.99-0.75,7.53-2.51,10.51-5.31
			C185.88,220.59,186.15,220.42,186.23,220.1z"/>
	</g>
</g>
</svg>
