<svg version="1.1" id="圖層_1" xmlns="http://www.w3.org/2000/svg" xmlns:xlink="http://www.w3.org/1999/xlink" x="0px" y="0px"
	 viewBox="0 0 330 330" style="enable-background:new 0 0 330 330;" xml:space="preserve">
<style type="text/css">
	.st0_INFJ{fill:#F6D538;}
	.st1_INFJ{fill:#FADFDB;}
	.st2_INFJ{fill:#3E3A39;}
	.st3_INFJ{fill:#473535;}
	.st4_INFJ{fill:#FD7D27;}
	.st5_INFJ{fill:#F39800;}
	.st6_INFJ{fill:#FEFEFE;}
</style>
<g>
	<circle class="st0_INFJ" cx="165" cy="165" r="165"/>
	<g>
		<circle class="st1_INFJ" cx="165" cy="165" r="101.36"/>
	</g>
	<path class="st2_INFJ" d="M202,152.6c4.71,2.73,9.24,5.34,13.77,7.96c2.59,1.5,3.98,3.72,3.77,6.74c-0.37,5.28-5.88,8.13-10.63,5.44
		c-7.29-4.12-14.51-8.35-21.77-12.54c-0.98-0.56-1.98-1.09-2.92-1.71c-4.43-2.91-4.52-9.1,0.02-11.81
		c8.27-4.94,16.64-9.72,25.03-14.46c3.39-1.91,7.46-0.67,9.35,2.59c1.91,3.28,0.99,7.38-2.34,9.43c-4.13,2.54-8.38,4.89-12.58,7.32
		C203.2,151.84,202.71,152.16,202,152.6z"/>
	<path class="st2_INFJ" d="M131.34,152.57c-4.9-2.83-9.51-5.46-14.08-8.15c-2.8-1.65-4.02-4.39-3.44-7.44c0.54-2.9,2.76-5.03,5.79-5.57
		c1.65-0.3,3.18,0.09,4.6,0.91c8.13,4.67,16.28,9.29,24.35,14.06c5.16,3.05,5.11,9.39-0.09,12.45c-7.97,4.68-15.98,9.29-24.01,13.86
		c-3.75,2.13-7.87,1.06-9.87-2.42c-2-3.47-0.79-7.54,2.95-9.72C122.01,157.92,126.51,155.35,131.34,152.57z"/>
	<g>
		<path class="st3_INFJ" d="M190.19,189.43c2.14,0.87,3.51,2.46,3.85,4.7c1.45,9.39-1.07,17.63-7.37,24.72c-0.1,0.11-0.25,0.18-0.37,0.26
			c-0.26-0.28-0.5-0.6-0.79-0.84c-6.7-5.71-14.3-7.27-22.62-4.51c-5.57,1.85-9.78,5.49-12.49,10.76c-4.15-2.13-7.39-5.29-10.01-9.09
			c-2.5-3.62-4.05-7.62-4.73-11.96c-0.38-2.44,0.28-4.51,2.23-6.1c0.1,0.53,0.2,1.06,0.3,1.59c0.85,4.4,4.53,7.05,8.97,6.46
			c0.77-0.1,1.53-0.23,2.29-0.34c11.31-1.71,22.63-3.42,33.94-5.14c4.88-0.74,7.61-4.45,6.92-9.35
			C190.26,190.19,190.23,189.81,190.19,189.43z"/>
		<path class="st3_INFJ" d="M190.19,189.43c0.04,0.38,0.07,0.77,0.12,1.15c0.69,4.9-2.03,8.61-6.92,9.35
			c-11.31,1.72-22.63,3.43-33.94,5.14c-0.76,0.12-1.53,0.24-2.29,0.34c-4.44,0.59-8.12-2.06-8.97-6.46c-0.1-0.53-0.2-1.06-0.3-1.59
			c0.96-0.92,2.17-1.32,3.44-1.51c15.04-2.28,30.08-4.56,45.12-6.83C187.73,188.83,188.99,188.86,190.19,189.43z"/>
		<path class="st4_INFJ" d="M150.4,224.52c2.72-5.27,6.93-8.91,12.49-10.76c8.32-2.76,15.92-1.19,22.62,4.51
			c0.29,0.25,0.52,0.56,0.79,0.84c-0.73,1.32-1.97,2.15-3.1,3.04c-4.54,3.54-9.71,5.67-15.42,6.2c-5.71,0.53-11.21-0.47-16.35-3.12
			C151.06,225.05,150.63,224.92,150.4,224.52z"/>
	</g>
	<g>
		<path class="st5_INFJ" d="M79.12,220.43c1.07-0.99,2.28-0.67,3.51-0.42c3.11,0.64,6.22,1.26,9.33,1.87c1.27,0.25,2.13-0.62,1.88-1.91
			c-0.6-3.06-1.19-6.12-1.83-9.18c-0.12-0.56-0.03-0.98,0.29-1.45c3.57-5.25,5.15-11.06,4.58-17.38c-0.58-6.41-3.27-11.89-7.72-16.5
			c-5.58-5.78-12.46-9.04-20.37-10.1c-8.93-1.19-17.33,0.43-24.94,5.37c-6.44,4.18-10.89,9.9-12.82,17.44
			c-0.64,2.52-0.76,5.09-0.74,7.67c0.07,0.65,0.12,1.3,0.21,1.94c1.1,7.34,4.66,13.28,10.35,17.97c5.33,4.38,11.47,6.84,18.31,7.67
			c4.49,0.54,8.92,0.26,13.32-0.76C74.77,222.13,76.94,221.27,79.12,220.43z M81.01,199.66c-2.96,0.01-5.33-2.32-5.35-5.25
			c-0.02-2.97,2.36-5.4,5.3-5.41c2.93-0.01,5.33,2.36,5.34,5.28C86.32,197.29,84.01,199.65,81.01,199.66z M63.61,199.66
			c-2.95-0.01-5.3-2.36-5.3-5.31c-0.01-2.95,2.43-5.37,5.37-5.35c2.96,0.02,5.31,2.42,5.28,5.41
			C68.94,197.36,66.58,199.67,63.61,199.66z M46.27,199.66c-2.95-0.01-5.31-2.36-5.31-5.3c-0.01-2.95,2.42-5.37,5.36-5.36
			c2.94,0.02,5.28,2.38,5.29,5.33C51.62,197.33,49.28,199.67,46.27,199.66z"/>
		<path class="st6_INFJ" d="M81.01,199.66c2.99-0.01,5.31-2.37,5.29-5.38c-0.02-2.92-2.42-5.29-5.34-5.28c-2.94,0.01-5.32,2.44-5.3,5.41
			C75.68,197.35,78.05,199.67,81.01,199.66z"/>
		<path class="st6_INFJ" d="M63.61,199.66c2.97,0.01,5.33-2.3,5.35-5.24c0.02-2.99-2.32-5.39-5.28-5.41c-2.94-0.02-5.37,2.4-5.37,5.35
			C58.31,197.3,60.66,199.65,63.61,199.66z"/>
		<path class="st6_INFJ" d="M46.27,199.66c3,0.01,5.34-2.33,5.34-5.33c0-2.94-2.35-5.31-5.29-5.33c-2.94-0.02-5.37,2.41-5.36,5.36
			C40.97,197.3,43.33,199.65,46.27,199.66z"/>
	</g>
</g>
</svg>