<?xml version="1.0" encoding="utf-8"?>
<!-- Generator: Adobe Illustrator 25.2.0, SVG Export Plug-In . SVG Version: 6.00 Build 0)  -->
<svg version="1.1" id="圖層_1" xmlns="http://www.w3.org/2000/svg" xmlns:xlink="http://www.w3.org/1999/xlink" x="0px" y="0px"
	 viewBox="0 0 330 330" style="enable-background:new 0 0 330 330;" xml:space="preserve">
<style type="text/css">
	.st0{fill:#33A574;}
	.st1{fill:#FADFDB;}
	.st2{fill:#AB71AE;}
	.st3{fill:#FADFDB;stroke:#3E3A39;stroke-width:13;stroke-linecap:round;stroke-linejoin:round;stroke-miterlimit:10;}
	.st4{fill:#FADFDB;stroke:#3E3A39;stroke-width:12.0214;stroke-linecap:round;stroke-linejoin:round;stroke-miterlimit:10;}
	.st5{fill:#3E3A39;}
	.st6{fill:#F1BC52;}
	.st7{fill:#F39800;}
	.st8{fill:#473535;}
	.st9{fill:#FD7D27;}
	.st10{fill:#FEFEFE;}
	.st11{fill:#FD81B5;}
	.st12{fill:#595757;}
	.st13{fill:#8B8995;}
	.st14{fill:#FFFFFF;}
	.st15{fill:#3ABFF7;}
	.st16{fill:#3E3A39;stroke:#3E3A39;stroke-width:8;stroke-miterlimit:10;}
	.st17{fill:#FEBF7B;}
	.st18{fill:#9C511F;}
	.st19{fill:#E72423;}
	.st20{fill:#A35928;}
	.st21{fill:#DC2121;}
	.st22{fill:#F5F4F5;}
	.st23{fill:#F5F4F6;}
	.st24{fill:#F6F1F2;}
	.st25{fill:#D5A88A;}
	.st26{fill:#804F43;}
	.st27{fill:#F3F5F7;}
	.st28{fill:#FDFEFD;}
	.st29{fill:#5BC266;}
	.st30{fill:#727171;}
	.st31{fill:#006934;}
	.st32{fill:#8FC31F;}
	.st33{fill:#7789A3;}
	.st34{fill:#FDFDFC;}
	.st35{fill:#E8E153;}
	.st36{fill:#C4C8F6;}
	.st37{fill:#FDA732;}
	.st38{fill:#FDDA41;}
	.st39{fill:#FD9923;}
	.st40{fill:none;stroke:#7E318E;stroke-width:4.2517;stroke-linecap:round;stroke-linejoin:round;stroke-miterlimit:10;}
	.st41{fill:#FEB643;}
	.st42{fill:#994C0F;}
	.st43{fill:#713708;}
	.st44{clip-path:url(#SVGID_2_);fill:#FD7D27;}
</style>
<circle class="st0" cx="165" cy="165" r="165"/>
<g>
	<circle class="st1" cx="165" cy="165" r="101.36"/>
</g>
<g>
	<path class="st5" d="M164.12,215.75c-15.72-0.59-29.12-10.6-33.66-25.14c-1.45-4.63,0.15-8.56,4-9.88c4-1.37,7.67,0.64,9.35,5.13
		c3.71,9.92,11.48,15.7,21.14,15.71c9.7,0.01,17.67-5.82,21.28-15.57c1.69-4.56,5.22-6.6,9.21-5.32c3.9,1.25,5.59,5.19,4.2,9.8
		C195.1,205.55,179.92,216.35,164.12,215.75z"/>
</g>
<g>
	<path class="st5" d="M186.85,129.94c2.2,0.04,3.86,0.75,5.37,1.95c6.05,4.79,12.15,9.53,18.17,14.35c3.76,3.02,4.4,7.54,1.68,10.87
		c-2.57,3.15-7.04,3.52-10.7,0.68c-6.31-4.89-12.57-9.85-18.78-14.87c-2.64-2.14-3.42-4.98-2.23-8.24
		C181.52,131.55,183.95,130.23,186.85,129.94z"/>
	<path class="st5" d="M150.13,137.97c0.06,2.02-1.2,3.85-3.04,5.31c-6.15,4.88-12.29,9.78-18.51,14.56
		c-3.64,2.8-8.19,2.36-10.71-0.8c-2.54-3.18-1.97-7.75,1.54-10.59c6.21-5.02,12.51-9.92,18.8-14.84c2.56-2,5.38-2.22,8.22-0.7
		C149.02,132.29,150.15,134.59,150.13,137.97z"/>
</g>
<g>
	<path class="st31" d="M253.62,224.73c1.53-0.96,2.96-2.1,4.7-2.7c5.19-1.79,10.46,0.75,11.81,5.92c1.32,5.04-1.87,9.58-6.88,10.56
		c-1.64,0.32-3.3,0.42-5.18,0.33c1.28,0.87,2.33,1.71,3.28,2.67c4.54,4.59,2.88,12.64-3.65,14.58c-3.78,1.12-8.04-0.67-9.94-4.22
		c-0.67-1.26-1.19-2.58-1.64-4.14c-0.34,0.93-0.61,1.69-0.91,2.44c-1.29,3.31-3.49,5.56-7.13,6.14c-2.67,0.43-5-0.36-7.01-2.11
		c-3.83-3.37-3.85-9.31-0.1-12.84c0.89-0.84,1.79-1.65,2.95-2.44c-1.44-0.13-2.73-0.04-4.01-0.21c-4.25-0.55-7.18-3.05-8.05-7.2
		c-0.52-2.49,0.16-4.79,1.77-6.76c1.8-2.21,4.2-3.33,7.01-3.35c2.22-0.02,4.23,0.86,6.06,2.1c0.58,0.39,1.16,0.79,1.92,1.3
		c-0.41-1.45-0.78-2.68-1.03-3.95c-1.04-5.21,3.03-10.19,8.34-10.27c5.29-0.08,9.07,4.34,8.72,9.38c-0.09,1.33-0.44,2.63-0.86,3.91
		c-0.09,0.28-0.14,0.57-0.2,0.86c-0.03,0.03-0.05,0.06-0.08,0.09C253.56,224.78,253.59,224.75,253.62,224.73z M240.39,234.88
		c-0.3,3.52,3.09,5.78,5.57,5.76c3.19-0.02,5.91-2.61,5.84-5.73c-0.07-3.15-2.32-5.64-5.7-5.74
		C243.1,229.1,240.17,231.94,240.39,234.88z"/>
	<path class="st32" d="M278.86,186.3c2.62,0.62,4.41,2.06,5.28,4.51c0.58,1.62,0.51,3.27-0.11,4.87c-0.75,1.92-2.1,3.23-4.09,3.86
		c-1.95,0.62-3.76,0.26-5.55-0.8c-0.21,0.91-0.03,1.75-0.2,2.57c-0.64,3.07-3.25,5.37-6.09,5.56c-3.68,0.25-6.58-2.41-7.17-5.29
		c-0.18-0.87-0.23-1.74-0.08-2.6c0.1-0.55,0.03-0.67-0.52-0.48c-2.17,0.72-4.15,0.31-5.97-1.03c-1.55-1.14-2.35-2.73-2.53-4.58
		c-0.39-4.08,2.21-6.87,5.7-7.61c-1.9-1.93-2.6-4.19-1.99-6.79c0.41-1.75,1.43-3.13,2.96-4.05c1.81-1.09,3.75-1.41,5.82-0.68
		c2.05,0.71,3.36,2.17,4.24,4.13c3.13-4.95,7.88-4.46,10.38-2.5c1.72,1.34,2.66,3.16,2.67,5.41
		C281.61,183.03,280.58,184.77,278.86,186.3z M263.99,189.09c0,2.47,1.68,4.21,4.08,4.21c2.18,0,4.07-1.85,4.03-4.03
		c-0.04-2.36-1.68-4.22-4.31-4.21C265.9,185.07,263.86,186.72,263.99,189.09z"/>
	<path class="st10" d="M240.39,234.88c-0.21-2.94,2.71-5.79,5.71-5.7c3.38,0.1,5.62,2.59,5.7,5.74c0.07,3.12-2.65,5.71-5.84,5.73
		C243.47,240.66,240.09,238.4,240.39,234.88z"/>
	<path class="st10" d="M264.09,229.04c-0.03,0.03-0.06,0.05-0.09,0.08c0.03-0.03,0.05-0.06,0.08-0.09
		C264.08,229.03,264.09,229.04,264.09,229.04z"/>
	<path class="st10" d="M263.99,189.09c-0.13-2.36,1.91-4.02,3.8-4.03c2.62-0.01,4.26,1.85,4.31,4.21c0.04,2.17-1.85,4.02-4.03,4.03
		C265.68,193.3,263.99,191.56,263.99,189.09z"/>
</g>
</svg>
