<?xml version="1.0" encoding="utf-8"?>
<!-- Generator: Adobe Illustrator 25.2.0, SVG Export Plug-In . SVG Version: 6.00 Build 0)  -->
<svg version="1.1" id="圖層_1" xmlns="http://www.w3.org/2000/svg" xmlns:xlink="http://www.w3.org/1999/xlink" x="0px" y="0px"
	 viewBox="0 0 330 330" style="enable-background:new 0 0 330 330;" xml:space="preserve">
<style type="text/css">
	.st0{fill:#33A574;}
	.st1{fill:#FADFDB;}
	.st2{fill:#AB71AE;}
	.st3{fill:#FADFDB;stroke:#3E3A39;stroke-width:13;stroke-linecap:round;stroke-linejoin:round;stroke-miterlimit:10;}
	.st4{fill:#FADFDB;stroke:#3E3A39;stroke-width:12.0214;stroke-linecap:round;stroke-linejoin:round;stroke-miterlimit:10;}
	.st5{fill:#3E3A39;}
	.st6{fill:#F1BC52;}
	.st7{fill:#F39800;}
	.st8{fill:#473535;}
	.st9{fill:#FD7D27;}
	.st10{fill:#FEFEFE;}
	.st11{fill:#FD81B5;}
	.st12{fill:#595757;}
	.st13{fill:#8B8995;}
	.st14{fill:#FFFFFF;}
	.st15{fill:#3ABFF7;}
	.st16{fill:#3E3A39;stroke:#3E3A39;stroke-width:8;stroke-miterlimit:10;}
	.st17{fill:#FEBF7B;}
	.st18{fill:#9C511F;}
	.st19{fill:#E72423;}
	.st20{fill:#A35928;}
	.st21{fill:#DC2121;}
	.st22{fill:#F5F4F5;}
	.st23{fill:#F5F4F6;}
	.st24{fill:#F6F1F2;}
	.st25{fill:#D5A88A;}
	.st26{fill:#804F43;}
	.st27{fill:#F3F5F7;}
	.st28{fill:#FDFEFD;}
	.st29{fill:#5BC266;}
	.st30{fill:#727171;}
	.st31{fill:#006934;}
	.st32{font-family:'GenSenRoundedTW-H';}
	.st33{font-size:35.0174px;}
	.st34{fill:#8FC31F;}
	.st35{fill:#7789A3;}
	.st36{fill:#FDFDFC;}
	.st37{fill:#E8E153;}
	.st38{fill:#C4C8F6;}
	.st39{fill:#FDA732;}
	.st40{fill:#FDDA41;}
	.st41{fill:#FD9923;}
	.st42{fill:none;stroke:#7E318E;stroke-width:4.2517;stroke-linecap:round;stroke-linejoin:round;stroke-miterlimit:10;}
	.st43{fill:#FEB643;}
	.st44{fill:#994C0F;}
	.st45{fill:#713708;}
	.st46{clip-path:url(#SVGID_2_);fill:#FD7D27;}
</style>
<circle class="st2" cx="165" cy="165" r="165"/>
<g>
	<g>
		<circle class="st1" cx="165" cy="165" r="101.36"/>
	</g>
	<path class="st3" d="M159.42,213.28c2.84,1.6,14.32,1.29,20.35-0.79c6.6-2.28,10.18-7.82,11.91-10.81"/>
	<g>
		<g>
			<line class="st4" x1="105.76" y1="139.35" x2="140.19" y2="139.35"/>
			<g>
				<ellipse class="st5" cx="131.88" cy="151.59" rx="14.72" ry="17.17"/>
			</g>
			<path class="st5" d="M143.87,154.49h-6.55v-21.17h6.82c1.36,0,2.47,1.1,2.47,2.47v15.96
				C146.6,153.26,145.38,154.49,143.87,154.49z"/>
		</g>
		<g>
			<line class="st4" x1="183.4" y1="139.35" x2="217.82" y2="139.35"/>
			<g>
				<ellipse class="st5" cx="209.52" cy="151.59" rx="14.72" ry="17.17"/>
			</g>
			<path class="st5" d="M221.5,154.49h-6.55v-21.17h6.82c1.36,0,2.47,1.1,2.47,2.47v15.96C224.24,153.26,223.01,154.49,221.5,154.49
				z"/>
		</g>
	</g>
</g>
<text transform="matrix(1 0 0 1 6.0221 -13.6877)" class="st14 st32 st33">INTJ</text>
<g>
	<path class="st34" d="M271.63,203.22c1.16,0.79,2.33,1.54,3.32,2.55c2.89,2.91,4.89,6.41,6.61,10.08
		c2.89,6.18,4.8,12.68,6.11,19.37c0.74,3.8,1.26,7.62,1.47,11.48c0.01,0.14,0,0.29,0.13,0.4c0,0.05,0,0.1,0,0.15
		c-0.26,0-0.28,0.22-0.34,0.4c-1.12,3.29-4.24,4.95-7.29,4.96c-9.85,0.05-19.7,0.02-29.55,0.02c-0.01-0.31-0.02-0.63-0.02-0.94
		c0-10.38-0.03-20.77,0.02-31.15c0.01-1.88-1.19-3.66-3.6-3.59c-2.78,0.09-5.56,0-8.35-0.01c1.89-4.24,4.09-8.28,7.49-11.54
		c0.88-0.84,1.86-1.54,2.96-2.07c0.35,0.09,0.7,0.17,1.07,0.17c6.29-0.01,12.58-0.01,18.87,0
		C270.92,203.48,271.29,203.43,271.63,203.22z M265.22,227.04c0.56,0,1.12-0.03,1.67,0.01c0.52,0.04,0.62-0.2,0.57-0.64
		c-0.2-1.77-0.96-3.28-2.67-3.83c-1.44-0.46-2-1.13-1.71-2.57c0.08-0.38-0.12-0.51-0.5-0.5c-0.58,0.02-1.16,0.01-1.74,0.01
		c-1.91,0-1.91,0-1.93,1.93c0,0.02,0,0.05,0,0.07c0.05,0.42-0.09,0.63-0.55,0.76c-1.52,0.42-2.74,1.27-3.24,2.84
		c-0.79,2.47-0.25,4.27,2.1,5.38c0.68,0.32,1.39,0.54,2.11,0.76c1.11,0.33,2.22,0.66,3.32,1.05c0.6,0.21,0.94,0.69,0.86,1.36
		c-0.08,0.64-0.53,0.94-1.12,1.07c-0.92,0.21-1.82,0.17-2.72-0.13c-0.55-0.18-0.96-0.52-1.05-1.09c-0.07-0.43-0.28-0.49-0.64-0.49
		c-1.04,0.01-2.08,0.04-3.12-0.01c-0.6-0.03-0.7,0.23-0.63,0.73c0.24,1.93,1.25,3.39,3.04,3.99c1.36,0.46,1.95,1.08,1.66,2.48
		c-0.08,0.38,0.14,0.51,0.5,0.5c0.63-0.02,1.26-0.01,1.89-0.01c1.74,0,1.76,0,1.77-1.76c0-0.44,0.11-0.66,0.57-0.74
		c0.72-0.13,1.39-0.41,2.02-0.78c1.51-0.87,2.3-2.2,2.32-3.93c0.01-1.79-0.76-3.17-2.37-4.03c-0.86-0.46-1.79-0.72-2.72-0.99
		c-0.97-0.29-1.99-0.4-2.91-0.87c-0.45-0.23-0.86-0.51-0.8-1.09c0.06-0.58,0.53-0.77,1.02-0.89c1.11-0.28,2.43-0.04,2.64,0.65
		c0.26,0.86,0.81,0.77,1.43,0.76C264.59,227.03,264.91,227.04,265.22,227.04z"/>
	<path class="st5" d="M240.13,216.93c2.78,0.01,5.57,0.09,8.35,0.01c2.41-0.08,3.61,1.71,3.6,3.59
		c-0.05,10.38-0.03,20.77-0.02,31.15c0,0.31,0.02,0.63,0.02,0.94c-0.01,0.36-0.02,0.72-0.02,1.08c0,2.35-0.51,3.12-2.62,4.01
		c-10.75,0-21.51,0-32.26,0c-0.04-0.15-0.17-0.15-0.28-0.2c-1.4-0.6-2.05-1.68-2.05-3.2c0.01-7.75,0-15.5,0-23.25
		c0-3.56,0-7.12,0-10.68c0-2.16,1.25-3.44,3.42-3.44c6.97-0.01,13.94,0,20.92,0C239.5,216.94,239.82,216.93,240.13,216.93z
		 M233.42,228.76c4.04,0,8.08,0,12.13,0c0.87,0,1.2-0.29,1.22-1.16c0.03-1.38,0.03-2.76,0-4.14c-0.02-0.91-0.34-1.2-1.25-1.2
		c-8.04,0-16.07,0-24.11,0c-0.92,0-1.24,0.29-1.26,1.2c-0.03,1.36-0.02,2.71,0,4.07c0.02,0.95,0.33,1.24,1.29,1.24
		C225.43,228.76,229.42,228.76,233.42,228.76z M246.76,244.47c0-2.4,0.01-4.79,0-7.19c0-1.02-0.34-1.34-1.36-1.35
		c-1.55-0.01-3.1-0.01-4.65,0c-0.9,0.01-1.27,0.34-1.27,1.22c-0.01,4.91-0.01,9.83,0,14.74c0,0.85,0.35,1.18,1.21,1.18
		c1.55,0.01,3.1,0,4.65,0c1.13,0,1.42-0.28,1.42-1.42C246.76,249.27,246.76,246.87,246.76,244.47z M227.45,249.5
		c0-0.77,0.01-1.55,0-2.32c-0.01-0.97-0.36-1.34-1.3-1.35c-1.57-0.01-3.14-0.01-4.71,0c-0.91,0.01-1.28,0.38-1.29,1.28
		c-0.02,1.57-0.01,3.14,0,4.71c0.01,0.93,0.36,1.3,1.27,1.3c1.59,0.02,3.19,0.02,4.78,0c0.87-0.01,1.23-0.38,1.26-1.24
		C227.46,251.09,227.45,250.29,227.45,249.5z M223.83,243.2c0.82,0,1.64,0.01,2.46,0c0.75-0.01,1.13-0.35,1.14-1.1
		c0.03-1.67,0.03-3.34,0-5c-0.01-0.78-0.4-1.15-1.19-1.16c-1.64-0.02-3.29-0.02-4.93,0c-0.78,0.01-1.17,0.37-1.18,1.16
		c-0.03,1.67-0.03,3.34,0,5c0.01,0.75,0.39,1.08,1.15,1.1C222.14,243.21,222.99,243.2,223.83,243.2z M237.09,249.5
		c0-0.85,0-1.7,0-2.54c0-0.67-0.35-1.09-1-1.1c-1.74-0.04-3.49-0.04-5.23,0c-0.7,0.01-1.03,0.42-1.03,1.15
		c-0.01,1.67-0.01,3.34,0,5.01c0.01,0.71,0.36,1.1,1.07,1.11c1.69,0.03,3.39,0.03,5.09,0c0.75-0.01,1.09-0.39,1.11-1.15
		C237.1,251.15,237.09,250.33,237.09,249.5z M233.47,243.19c0.82,0,1.65,0.01,2.47,0c0.8-0.01,1.14-0.36,1.14-1.16
		c0.01-1.62,0.01-3.24,0-4.87c0-0.83-0.36-1.22-1.18-1.23c-1.65-0.02-3.29-0.02-4.94,0c-0.78,0.01-1.14,0.4-1.14,1.19
		c-0.01,1.65-0.01,3.29,0,4.94c0.01,0.77,0.35,1.11,1.1,1.13C231.78,243.21,232.63,243.19,233.47,243.19z"/>
	<path class="st34" d="M249.44,257.7c2.11-0.88,2.62-1.66,2.62-4.01c0-0.36,0.02-0.72,0.02-1.08c9.85,0,19.7,0.03,29.55-0.02
		c3.05-0.02,6.16-1.67,7.29-4.96c0.06-0.18,0.08-0.39,0.34-0.4c0,1.5,0,3,0,4.51c-0.04,0.06-0.1,0.12-0.11,0.18
		c-0.33,1.8-1.33,3.16-2.76,4.26c-1.05,0.81-2.29,1.14-3.52,1.52C271.73,257.7,260.59,257.7,249.44,257.7z"/>
	<path class="st34" d="M251.18,196.35c-1.34-3.21-2.69-6.42-4.02-9.63c-0.18-0.44-0.34-0.91-0.43-1.38
		c-0.24-1.2,0.39-1.98,1.61-2.05c0.86-0.05,1.69,0.13,2.49,0.39c1.96,0.65,3.93,0.69,5.92,0.17c2.94-0.78,5.88-0.74,8.81,0.02
		c1.95,0.51,3.86,0.42,5.77-0.19c0.71-0.23,1.45-0.39,2.2-0.39c1.58,0,2.25,0.86,1.81,2.41c-0.5,1.72-1.33,3.32-1.99,4.98
		c-0.76,1.91-1.55,3.8-2.33,5.7C264.41,196.36,257.79,196.35,251.18,196.35z"/>
	<path class="st35" d="M251.18,196.35c6.62,0.01,13.23,0.01,19.85,0.02c1,0.34,1.34,0.77,1.35,1.78c0.02,1.18,0.01,2.36,0,3.54
		c0,0.63-0.16,1.19-0.75,1.54c-0.34,0.22-0.71,0.27-1.11,0.27c-6.29-0.01-12.58-0.01-18.87,0c-0.37,0-0.72-0.07-1.07-0.17
		c-0.6-0.48-0.78-1.1-0.75-1.85c0.04-1.09,0.01-2.18,0.01-3.27C249.84,197.05,250.08,196.73,251.18,196.35z"/>
	<path class="st36" d="M265.22,227.04c-0.31,0-0.63-0.01-0.94,0c-0.61,0.01-1.17,0.11-1.43-0.76c-0.2-0.69-1.52-0.93-2.64-0.65
		c-0.49,0.12-0.95,0.31-1.02,0.89c-0.06,0.58,0.35,0.86,0.8,1.09c0.92,0.47,1.94,0.58,2.91,0.87c0.93,0.27,1.86,0.53,2.72,0.99
		c1.61,0.86,2.38,2.24,2.37,4.03c-0.01,1.73-0.81,3.06-2.32,3.93c-0.63,0.37-1.3,0.65-2.02,0.78c-0.46,0.08-0.57,0.3-0.57,0.74
		c-0.01,1.76-0.02,1.76-1.77,1.76c-0.63,0-1.26-0.01-1.89,0.01c-0.37,0.01-0.58-0.12-0.5-0.5c0.29-1.4-0.3-2.02-1.66-2.48
		c-1.79-0.6-2.8-2.07-3.04-3.99c-0.06-0.5,0.04-0.76,0.63-0.73c1.04,0.05,2.08,0.02,3.12,0.01c0.36,0,0.57,0.07,0.64,0.49
		c0.09,0.57,0.51,0.91,1.05,1.09c0.9,0.29,1.8,0.33,2.72,0.13c0.59-0.13,1.04-0.43,1.12-1.07c0.08-0.67-0.26-1.15-0.86-1.36
		c-1.09-0.39-2.21-0.71-3.32-1.05c-0.72-0.22-1.43-0.44-2.11-0.76c-2.35-1.11-2.9-2.91-2.1-5.38c0.5-1.57,1.72-2.42,3.24-2.84
		c0.46-0.13,0.6-0.34,0.55-0.76c0-0.02,0-0.05,0-0.07c0.02-1.93,0.02-1.93,1.93-1.93c0.58,0,1.16,0.02,1.74-0.01
		c0.37-0.01,0.57,0.12,0.5,0.5c-0.29,1.44,0.27,2.11,1.71,2.57c1.7,0.55,2.47,2.06,2.67,3.83c0.05,0.44-0.05,0.68-0.57,0.64
		C266.34,227.01,265.78,227.04,265.22,227.04z"/>
	<path class="st14" d="M233.42,228.76c-3.99,0-7.99,0-11.98,0c-0.96,0-1.28-0.29-1.29-1.24c-0.02-1.36-0.02-2.71,0-4.07
		c0.02-0.91,0.34-1.2,1.26-1.2c8.04,0,16.07,0,24.11,0c0.91,0,1.24,0.3,1.25,1.2c0.02,1.38,0.03,2.76,0,4.14
		c-0.02,0.87-0.35,1.16-1.22,1.16C241.5,228.76,237.46,228.76,233.42,228.76z"/>
	<path class="st37" d="M246.76,244.47c0,2.4,0,4.79,0,7.19c0,1.14-0.28,1.41-1.42,1.42c-1.55,0-3.1,0.01-4.65,0
		c-0.86-0.01-1.21-0.33-1.21-1.18c-0.01-4.91-0.01-9.83,0-14.74c0-0.87,0.37-1.21,1.27-1.22c1.55-0.01,3.1-0.01,4.65,0
		c1.02,0,1.35,0.33,1.36,1.35C246.77,239.68,246.76,242.08,246.76,244.47z"/>
	<path class="st14" d="M227.45,249.5c0,0.8,0.02,1.6,0,2.39c-0.02,0.87-0.39,1.23-1.26,1.24c-1.59,0.02-3.19,0.02-4.78,0
		c-0.9-0.01-1.26-0.38-1.27-1.3c-0.01-1.57-0.01-3.14,0-4.71c0.01-0.91,0.38-1.28,1.29-1.28c1.57-0.01,3.14-0.01,4.71,0
		c0.94,0.01,1.29,0.38,1.3,1.35C227.46,247.95,227.45,248.72,227.45,249.5z"/>
	<path class="st14" d="M223.83,243.2c-0.85,0-1.69,0.01-2.54,0c-0.76-0.01-1.14-0.35-1.15-1.1c-0.03-1.67-0.03-3.34,0-5
		c0.01-0.79,0.4-1.15,1.18-1.16c1.64-0.02,3.29-0.02,4.93,0c0.78,0.01,1.17,0.37,1.19,1.16c0.03,1.67,0.03,3.34,0,5
		c-0.01,0.75-0.39,1.09-1.14,1.1C225.48,243.21,224.65,243.2,223.83,243.2z"/>
	<path class="st14" d="M237.09,249.5c0,0.82,0.01,1.65,0,2.47c-0.01,0.76-0.35,1.14-1.11,1.15c-1.69,0.03-3.39,0.03-5.09,0
		c-0.71-0.01-1.06-0.4-1.07-1.11c-0.02-1.67-0.01-3.34,0-5.01c0.01-0.73,0.33-1.13,1.03-1.15c1.74-0.04,3.49-0.03,5.23,0
		c0.65,0.01,1,0.44,1,1.1C237.09,247.81,237.09,248.65,237.09,249.5z"/>
	<path class="st14" d="M233.47,243.19c-0.85,0-1.69,0.01-2.54,0c-0.76-0.01-1.1-0.36-1.1-1.13c-0.01-1.65-0.01-3.29,0-4.94
		c0.01-0.79,0.37-1.18,1.14-1.19c1.65-0.02,3.29-0.02,4.94,0c0.82,0.01,1.18,0.4,1.18,1.23c0.01,1.62,0.01,3.24,0,4.87
		c-0.01,0.81-0.35,1.15-1.14,1.16C235.12,243.21,234.3,243.19,233.47,243.19z"/>
</g>
</svg>
