<?xml version="1.0" encoding="utf-8"?>
<!-- Generator: Adobe Illustrator 25.2.0, SVG Export Plug-In . SVG Version: 6.00 Build 0)  -->
<svg version="1.1" id="圖層_1" xmlns="http://www.w3.org/2000/svg" xmlns:xlink="http://www.w3.org/1999/xlink" x="0px" y="0px"
	 viewBox="0 0 330 330" style="enable-background:new 0 0 330 330;" xml:space="preserve">
<style type="text/css">
	.st0{fill:#33A574;}
	.st1{fill:#FADFDB;}
	.st2{fill:#AB71AE;}
	.st3{fill:#FADFDB;stroke:#3E3A39;stroke-width:13;stroke-linecap:round;stroke-linejoin:round;stroke-miterlimit:10;}
	.st4{fill:#FADFDB;stroke:#3E3A39;stroke-width:12.0214;stroke-linecap:round;stroke-linejoin:round;stroke-miterlimit:10;}
	.st5{fill:#3E3A39;}
	.st6{fill:#F1BC52;}
	.st7{fill:#F39800;}
	.st8{fill:#473535;}
	.st9{fill:#FD7D27;}
	.st10{fill:#FEFEFE;}
	.st11{fill:#FD81B5;}
	.st12{fill:#595757;}
	.st13{fill:#8B8995;}
	.st14{fill:#FFFFFF;}
	.st15{fill:#3ABFF7;}
	.st16{fill:#3E3A39;stroke:#3E3A39;stroke-width:8;stroke-miterlimit:10;}
	.st17{fill:#FEBF7B;}
	.st18{fill:#9C511F;}
	.st19{fill:#E72423;}
	.st20{fill:#A35928;}
	.st21{fill:#DC2121;}
	.st22{fill:#F5F4F5;}
	.st23{fill:#F5F4F6;}
	.st24{fill:#F6F1F2;}
	.st25{fill:#D5A88A;}
	.st26{fill:#804F43;}
	.st27{fill:#F3F5F7;}
	.st28{fill:#FDFEFD;}
	.st29{fill:#5BC266;}
	.st30{fill:#727171;}
	.st31{fill:#006934;}
	.st32{font-family:'GenSenRoundedTW-H';}
	.st33{font-size:35.0174px;}
	.st34{fill:#8FC31F;}
	.st35{fill:#7789A3;}
	.st36{fill:#FDFDFC;}
	.st37{fill:#E8E153;}
	.st38{fill:#C4C8F6;}
	.st39{fill:#FDA732;}
	.st40{fill:#FDDA41;}
	.st41{fill:#FD9923;}
	.st42{fill:none;stroke:#7E318E;stroke-width:4.2517;stroke-linecap:round;stroke-linejoin:round;stroke-miterlimit:10;}
	.st43{fill:#FEB643;}
	.st44{fill:#994C0F;}
	.st45{fill:#713708;}
	.st46{clip-path:url(#SVGID_2_);fill:#FD7D27;}
</style>
<g>
	<circle class="st2" cx="165" cy="165" r="165"/>
	<g>
		<circle class="st1" cx="165" cy="165" r="101.36"/>
	</g>
</g>
<g>
	<path class="st5" d="M200.38,152.6c4.71,2.73,9.24,5.34,13.77,7.96c2.59,1.5,3.98,3.72,3.77,6.74c-0.37,5.28-5.88,8.13-10.63,5.44
		c-7.29-4.12-14.51-8.35-21.77-12.54c-0.98-0.56-1.98-1.09-2.92-1.71c-4.43-2.91-4.52-9.1,0.02-11.81
		c8.27-4.94,16.64-9.72,25.03-14.46c3.39-1.91,7.46-0.67,9.35,2.59c1.91,3.28,0.99,7.38-2.34,9.43c-4.13,2.54-8.38,4.89-12.58,7.32
		C201.58,151.84,201.09,152.16,200.38,152.6z"/>
	<path class="st5" d="M129.72,152.57c-4.9-2.83-9.51-5.46-14.08-8.15c-2.8-1.65-4.02-4.39-3.44-7.44c0.54-2.9,2.76-5.03,5.79-5.57
		c1.65-0.3,3.18,0.09,4.6,0.91c8.13,4.67,16.28,9.29,24.35,14.06c5.16,3.05,5.11,9.39-0.09,12.45c-7.97,4.68-15.98,9.29-24.01,13.86
		c-3.75,2.13-7.87,1.06-9.87-2.42c-2-3.47-0.79-7.54,2.95-9.72C120.39,157.92,124.89,155.35,129.72,152.57z"/>
</g>
<text transform="matrix(1 0 0 1 6.0222 -13.6877)" class="st14 st32 st33">INTP</text>
<path class="st42" d="M251.32,158.66c-0.16,0.08-0.27,0.14-0.34,0.15c-0.43,0.1-1.57-0.34-2-0.72c-0.41-0.39-1.01-1.41-1.29-2.24
	c-0.34-1.06-0.62-3.73-0.58-5.1c0.04-1.35,0.49-3.83,0.89-4.9c0.25-0.65,0.84-1.76,1.25-2.25c0.43-0.5,1.51-1.24,2.12-1.46
	c0.63-0.22,1.97-0.33,2.65-0.21c0.68,0.13,2,0.73,2.65,1.2c0.62,0.46,1.71,1.58,2.23,2.3c0.23,0.33,0.87,1.49,1.13,2.18
	c0.26,0.71,0.5,2.16,0.5,2.8c-0.01,0.61-0.23,1.51-0.48,1.96c-0.13,0.22-0.55,0.54-0.89,0.68c-0.27,0.1-1.29-0.06-1.81-0.31
	c-0.55-0.27-1.61-1.11-2.16-1.76c-0.7-0.84-1.95-3.38-2.44-4.9c-0.48-1.52-1-4.66-1-6.19c0-1.57,0.49-4.66,0.95-6
	c0.46-1.32,1.77-3.44,2.63-4.29c0.44-0.43,1.57-1.27,2.09-1.55c0.56-0.3,2.01-0.84,2.75-1c0.8-0.17,2.19-0.32,3.07-0.33
	c1.54-0.01,4.35,0.5,5.58,0.91c1.25,0.43,3.59,1.63,4.52,2.34c0.61,0.47,1.76,1.59,2.21,2.18c0.48,0.62,1.15,1.73,1.5,2.46
	c0.3,0.64,0.78,2.06,0.92,2.64c0.13,0.59,0.28,1.96,0.26,2.55c-0.03,0.72-0.29,2.03-0.57,2.64c-0.33,0.67-1.29,1.61-1.9,1.86
	c-0.65,0.25-2.06,0.21-2.94-0.11c-1.04-0.39-3.53-2.3-4.67-3.43c-1.01-1.01-2.92-3.36-3.79-4.68c-0.81-1.24-2.16-3.86-2.65-5.04
	c-0.59-1.43-1.39-3.92-1.72-5.37c-0.29-1.26-0.65-4.12-0.69-5.47c-0.05-1.5,0.12-4.56,0.35-5.96c0.28-1.65,1.13-4.43,1.68-5.51
	c0.34-0.64,1.06-1.76,1.51-2.28c0.46-0.52,1.47-1.44,2.03-1.83c0.57-0.38,1.8-1.04,2.46-1.28c1.39-0.51,4.4-0.99,5.9-1
	c1.76-0.01,4.67,0.4,5.8,0.72c1.26,0.36,3.74,1.5,4.93,2.34c1.1,0.78,3.05,2.77,3.81,3.88c0.97,1.42,2.28,4.38,2.63,5.8
	c0.38,1.58,0.63,4.62,0.57,5.98c-0.08,1.46-0.53,4.03-0.89,5.19c-0.43,1.37-1.56,3.65-2.2,4.45c-0.41,0.51-1.39,1.5-1.93,1.88
	c-0.4,0.28-1.94,1.17-2.63,1.4c-0.5,0.16,2.13-0.52,0.5-0.21c-0.05,0.01-1.1,0.37-1.1,0.37"/>
<path class="st5" d="M168.42,206.23c-1.93,3.06-3.63,5.91-5.48,8.67c-2.38,3.56-5.72,4.02-8.97,1.24c-2.14-1.83-4.2-3.76-6.25-5.7
	c-0.96-0.91-1.57-0.94-2.28,0.3c-1.41,2.44-2.92,4.83-4.46,7.2c-2.01,3.09-5.27,3.91-8.05,2.1c-2.65-1.72-3.24-4.84-1.35-7.97
	c2.86-4.74,5.77-9.47,8.77-14.13c2.08-3.23,5.61-3.75,8.58-1.29c2.25,1.86,4.4,3.85,6.5,5.89c1.12,1.09,1.68,0.97,2.44-0.37
	c1.34-2.37,2.8-4.66,4.29-6.94c2.41-3.7,5.88-4.21,9.2-1.34c1.98,1.71,4,3.41,5.79,5.31c1.46,1.55,2.11,1.12,3-0.51
	c1.26-2.29,2.69-4.5,4.15-6.67c2.37-3.52,5.9-4.03,9.01-1.27c4.07,3.61,8.08,7.29,12.06,11c2.74,2.55,3,5.92,0.78,8.26
	c-2.28,2.4-5.48,2.36-8.34-0.15c-1.82-1.6-3.73-3.12-5.33-4.91c-1.77-1.97-2.6-1.27-3.62,0.64c-1.13,2.13-2.46,4.17-3.81,6.17
	c-2.49,3.7-5.78,4.12-9.19,1.18C173.42,210.83,171.07,208.62,168.42,206.23z"/>
</svg>
