<?xml version="1.0" encoding="utf-8"?>
<!-- Generator: Adobe Illustrator 25.2.0, SVG Export Plug-In . SVG Version: 6.00 Build 0)  -->
<svg version="1.1" id="圖層_1" xmlns="http://www.w3.org/2000/svg" xmlns:xlink="http://www.w3.org/1999/xlink" x="0px" y="0px"
	 viewBox="0 0 330 330" style="enable-background:new 0 0 330 330;" xml:space="preserve">
<style type="text/css">
	.st0{fill:#33A574;}
	.st1{fill:#FADFDB;}
	.st2{fill:#AB71AE;}
	.st3{fill:#FADFDB;stroke:#3E3A39;stroke-width:13;stroke-linecap:round;stroke-linejoin:round;stroke-miterlimit:10;}
	.st4{fill:#FADFDB;stroke:#3E3A39;stroke-width:12.0214;stroke-linecap:round;stroke-linejoin:round;stroke-miterlimit:10;}
	.st5{fill:#3E3A39;}
	.st6{fill:#F1BC52;}
	.st7{fill:#F39800;}
	.st8{fill:#FFFFFF;}
	.st9{font-family:'GenSenRoundedTW-H';}
	.st10{font-size:35.0174px;}
	.st11{fill:#473535;}
	.st12{fill:#FD7D27;}
	.st13{fill:#FEFEFE;}
	.st14{fill:#FD81B5;}
	.st15{fill:#595757;}
	.st16{fill:#8B8995;}
	.st17{fill:#3ABFF7;}
	.st18{fill:#3E3A39;stroke:#3E3A39;stroke-width:8;stroke-miterlimit:10;}
	.st19{fill:#FEBF7B;}
	.st20{fill:#9C511F;}
	.st21{fill:#E72423;}
	.st22{fill:#A35928;}
	.st23{fill:#DC2121;}
	.st24{fill:#F5F4F5;}
	.st25{fill:#F5F4F6;}
	.st26{fill:#F6F1F2;}
	.st27{fill:#D5A88A;}
	.st28{fill:#804F43;}
	.st29{fill:#F3F5F7;}
	.st30{fill:#FDFEFD;}
	.st31{fill:#5BC266;}
	.st32{fill:#727171;}
	.st33{fill:#006934;}
	.st34{fill:#8FC31F;}
	.st35{fill:#7789A3;}
	.st36{fill:#FDFDFC;}
	.st37{fill:#E8E153;}
	.st38{fill:#C4C8F6;}
	.st39{fill:#FDA732;}
	.st40{fill:#FDDA41;}
	.st41{fill:#FD9923;}
	.st42{fill:none;stroke:#7E318E;stroke-width:4.2517;stroke-linecap:round;stroke-linejoin:round;stroke-miterlimit:10;}
	.st43{fill:#FEB643;}
	.st44{fill:#994C0F;}
	.st45{fill:#713708;}
	.st46{clip-path:url(#SVGID_2_);fill:#FD7D27;}
</style>
<text transform="matrix(1 0 0 1 14.9351 -13.6882)" class="st8 st9 st10">ISFJ</text>
<circle class="st17" cx="165" cy="165" r="165"/>
<g>
	<circle class="st1" cx="165" cy="165" r="101.36"/>
</g>
<g>
	<path class="st5" d="M186.83,129.74c2.2,0.04,3.86,0.75,5.37,1.95c6.05,4.79,12.15,9.53,18.17,14.35c3.76,3.02,4.4,7.54,1.68,10.87
		c-2.57,3.15-7.04,3.52-10.7,0.68c-6.31-4.89-12.57-9.85-18.78-14.87c-2.64-2.14-3.42-4.98-2.23-8.24
		C181.49,131.34,183.93,130.02,186.83,129.74z"/>
	<path class="st5" d="M150.11,137.77c0.06,2.02-1.2,3.85-3.04,5.31c-6.15,4.88-12.29,9.78-18.51,14.56
		c-3.64,2.8-8.19,2.36-10.71-0.8c-2.54-3.18-1.97-7.75,1.54-10.59c6.21-5.02,12.51-9.92,18.8-14.84c2.56-2,5.38-2.22,8.22-0.7
		C148.99,132.08,150.12,134.39,150.11,137.77z"/>
</g>
<g>
	<path class="st11" d="M191.46,182.22c1.98,1.18,3.1,2.95,3.11,5.23c0.03,9.5-3.69,17.27-10.99,23.34c-0.11,0.1-0.27,0.14-0.41,0.21
		c-0.22-0.32-0.4-0.66-0.65-0.95c-5.77-6.65-13.05-9.33-21.69-7.85c-5.78,0.99-10.49,3.97-13.96,8.77
		c-3.79-2.73-6.51-6.34-8.54-10.49c-1.93-3.95-2.87-8.14-2.89-12.54c-0.01-2.47,0.96-4.41,3.12-5.7c0.02,0.54,0.04,1.08,0.06,1.62
		c0.18,4.47,3.42,7.65,7.9,7.73c0.77,0.01,1.55,0,2.32,0c11.44,0,22.89,0.01,34.33,0c4.94,0,8.19-3.26,8.24-8.21
		C191.41,182.99,191.44,182.6,191.46,182.22z"/>
	<path class="st11" d="M191.46,182.22c-0.02,0.39-0.05,0.77-0.05,1.16c-0.05,4.95-3.3,8.21-8.24,8.21c-11.44,0.01-22.89,0-34.33,0
		c-0.77,0-1.55,0.01-2.32,0c-4.48-0.08-7.72-3.25-7.9-7.73c-0.02-0.54-0.04-1.08-0.06-1.62c1.09-0.77,2.34-0.98,3.63-0.98
		c15.21-0.01,30.42-0.01,45.63,0C189.11,181.26,190.35,181.48,191.46,182.22z"/>
	<path class="st12" d="M146.86,210.96c3.48-4.8,8.18-7.77,13.96-8.77c8.64-1.48,15.92,1.2,21.69,7.85c0.25,0.29,0.43,0.63,0.65,0.95
		c-0.92,1.19-2.27,1.83-3.52,2.54c-5.02,2.83-10.44,4.15-16.18,3.82c-5.73-0.33-11.01-2.14-15.7-5.53
		C147.43,211.59,147.03,211.39,146.86,210.96z"/>
</g>
<g>
	<path class="st14" d="M247.93,219.47c2.39-6.41,9.11-10.54,16.12-9.88c6.76,0.63,12.6,5.96,13.83,12.52
		c0.84,4.48-0.38,8.47-2.74,12.2c-2.81,4.45-6.54,8.07-10.55,11.41c-4.63,3.85-9.6,7.19-14.79,10.23c-0.63,0.37-1.26,0.75-2.05,0.64
		c-0.01-12.02-0.02-24.04-0.01-36.06C247.73,220.17,247.86,219.82,247.93,219.47z"/>
	<path class="st14" d="M247.93,219.47c-0.07,0.35-0.2,0.71-0.2,1.06c0,12.02,0.01,24.04,0.01,36.06c-0.65,0.06-1.23-0.17-1.77-0.49
		c-7.24-4.2-14.12-8.91-20.08-14.84c-3.13-3.12-5.89-6.52-7.53-10.7c-3.56-9.09,2.51-19.43,12.2-20.8
		c7.14-1.01,13.63,2.52,16.69,9.07C247.39,219.1,247.35,219.63,247.93,219.47z"/>
</g>
</svg>
