<?xml version="1.0" encoding="utf-8"?>
<!-- Generator: Adobe Illustrator 25.2.0, SVG Export Plug-In . SVG Version: 6.00 Build 0)  -->
<svg version="1.1" id="圖層_1" xmlns="http://www.w3.org/2000/svg" xmlns:xlink="http://www.w3.org/1999/xlink" x="0px" y="0px"
	 viewBox="0 0 330 330" style="enable-background:new 0 0 330 330;" xml:space="preserve">
<style type="text/css">
	.st0{fill:#33A574;}
	.st1{fill:#FADFDB;}
	.st2{fill:#AB71AE;}
	.st3{fill:#FADFDB;stroke:#3E3A39;stroke-width:13;stroke-linecap:round;stroke-linejoin:round;stroke-miterlimit:10;}
	.st4{fill:#FADFDB;stroke:#3E3A39;stroke-width:12.0214;stroke-linecap:round;stroke-linejoin:round;stroke-miterlimit:10;}
	.st5{fill:#3E3A39;}
	.st6{fill:#F1BC52;}
	.st7{fill:#F39800;}
	.st8{fill:#473535;}
	.st9{fill:#FD7D27;}
	.st10{fill:#FEFEFE;}
	.st11{fill:#FD81B5;}
	.st12{fill:#595757;}
	.st13{fill:#8B8995;}
	.st14{fill:#FFFFFF;}
	.st15{fill:#3ABFF7;}
	.st16{fill:#3E3A39;stroke:#3E3A39;stroke-width:8;stroke-miterlimit:10;}
	.st17{fill:#FEBF7B;}
	.st18{fill:#9C511F;}
	.st19{fill:#E72423;}
	.st20{fill:#A35928;}
	.st21{fill:#DC2121;}
	.st22{fill:#F5F4F5;}
	.st23{fill:#F5F4F6;}
	.st24{fill:#F6F1F2;}
	.st25{fill:#D5A88A;}
	.st26{fill:#804F43;}
	.st27{fill:#F3F5F7;}
	.st28{fill:#FDFEFD;}
	.st29{fill:#5BC266;}
	.st30{fill:#727171;}
	.st31{fill:#006934;}
	.st32{fill:#8FC31F;}
	.st33{fill:#7789A3;}
	.st34{fill:#FDFDFC;}
	.st35{fill:#E8E153;}
	.st36{fill:#C4C8F6;}
	.st37{fill:#FDA732;}
	.st38{fill:#FDDA41;}
	.st39{fill:#FD9923;}
	.st40{fill:none;stroke:#7E318E;stroke-width:4.2517;stroke-linecap:round;stroke-linejoin:round;stroke-miterlimit:10;}
	.st41{fill:#FEB643;}
	.st42{fill:#994C0F;}
	.st43{fill:#713708;}
	.st44{clip-path:url(#SVGID_2_);fill:#FD7D27;}
</style>
<circle class="st6" cx="165" cy="165" r="165"/>
<g>
	<circle class="st1" cx="165" cy="165" r="101.36"/>
	<g>
		<path class="st11" d="M223.61,150.53c-3.86,1.57-7.64,3.33-11.4,5.11c-0.98,0.46-1.23,1.38-1.41,2.34
			c-0.75,4.09-1.51,8.19-2.23,12.29c-0.21,1.2-0.71,2.1-1.95,2.45c-1.22,0.34-2-0.29-2.77-1.15c-2.67-2.98-5.44-5.87-8.05-8.9
			c-1.15-1.33-2.45-1.67-4.07-1.44c-3.91,0.56-7.83,1.1-11.75,1.65c-1.16,0.16-2.27,0.11-2.99-0.98c-0.73-1.1-0.45-2.15,0.18-3.24
			c2.12-3.64,4.17-7.32,6.27-10.96c0.6-1.04,0.54-2,0.02-3.05c-1.83-3.75-3.6-7.52-5.43-11.27c-0.54-1.11-0.79-2.21,0.05-3.25
			c0.8-0.99,1.87-0.98,3.05-0.73c4.15,0.9,8.32,1.71,12.47,2.59c0.89,0.19,1.69,0.06,2.32-0.5c1.14-1.01,2.18-2.12,3.27-3.18
			c1.46-1.08,2.61-2.49,3.98-3.67c1.3-1.12,2.32-2.56,3.9-3.36c0.41,0,0.83,0,1.24,0c1.41,0.58,1.82,1.75,1.96,3.15
			c0.38,3.81,0.82,7.62,1.24,11.42c0.04,0.37-0.02,0.78,0.3,1.04c1.62,1.33,2.87,3.07,4.78,4.06c2.63,1.37,5.22,2.81,7.84,4.2
			c1.05,0.56,1.83,1.25,1.78,2.57c-0.05,1.25-0.8,1.92-1.86,2.37C224.09,150.22,223.86,150.39,223.61,150.53z"/>
		<path class="st11" d="M106.41,150.53c-0.36-0.19-0.72-0.39-1.08-0.57c-0.92-0.45-1.5-1.13-1.54-2.2
			c-0.04-1.12,0.49-1.88,1.45-2.39c2.72-1.46,5.43-2.94,8.17-4.38c1.91-1,3.16-2.76,4.79-4.07c0.32-0.26,0.26-0.67,0.3-1.04
			c0.42-3.81,0.86-7.62,1.24-11.43c0.14-1.4,0.54-2.57,1.96-3.15c0.41,0,0.83,0,1.24,0c0.73,0.32,1.29,0.86,1.86,1.4
			c2,1.89,4.02,3.76,6.03,5.64c0.96,0.96,1.92,1.93,2.9,2.88c0.76,0.73,1.62,1.02,2.71,0.79c4.19-0.89,8.4-1.72,12.59-2.62
			c1.15-0.25,2.16-0.18,2.92,0.77c0.79,1,0.6,2.06,0.08,3.14c-1.84,3.79-3.63,7.6-5.49,11.37c-0.57,1.16-0.47,2.16,0.17,3.26
			c2.11,3.6,4.15,7.23,6.23,10.84c0.6,1.04,0.8,2.09,0.09,3.14c-0.7,1.04-1.75,1.14-2.87,0.98c-3.92-0.55-7.83-1.09-11.74-1.66
			c-1.65-0.24-3,0.04-4.19,1.43c-2.63,3.06-5.43,5.99-8.13,9c-0.74,0.83-1.53,1.37-2.69,1.05c-1.18-0.33-1.72-1.18-1.93-2.33
			c-0.73-4.05-1.52-8.1-2.2-12.16c-0.26-1.6-1.03-2.54-2.54-3.16C113.25,153.63,109.84,152.05,106.41,150.53z"/>
	</g>
	<g>
		<path class="st8" d="M190.19,189.42c2.14,0.87,3.51,2.46,3.85,4.7c1.45,9.39-1.07,17.63-7.37,24.72c-0.1,0.11-0.25,0.18-0.37,0.26
			c-0.26-0.28-0.5-0.6-0.79-0.84c-6.7-5.71-14.3-7.27-22.62-4.51c-5.57,1.85-9.78,5.49-12.49,10.76c-4.15-2.13-7.39-5.29-10.01-9.09
			c-2.5-3.62-4.05-7.62-4.73-11.96c-0.38-2.44,0.28-4.51,2.23-6.1c0.1,0.53,0.2,1.06,0.3,1.59c0.85,4.4,4.53,7.05,8.97,6.46
			c0.77-0.1,1.53-0.23,2.29-0.34c11.31-1.71,22.63-3.42,33.94-5.14c4.88-0.74,7.61-4.45,6.92-9.35
			C190.26,190.19,190.23,189.81,190.19,189.42z"/>
		<path class="st8" d="M190.19,189.42c0.04,0.38,0.07,0.77,0.12,1.15c0.69,4.9-2.03,8.61-6.92,9.35
			c-11.31,1.72-22.63,3.43-33.94,5.14c-0.76,0.12-1.53,0.24-2.29,0.34c-4.44,0.59-8.12-2.06-8.97-6.46c-0.1-0.53-0.2-1.06-0.3-1.59
			c0.96-0.92,2.17-1.32,3.44-1.51c15.04-2.28,30.08-4.56,45.12-6.83C187.73,188.83,188.99,188.86,190.19,189.42z"/>
		<path class="st9" d="M150.4,224.52c2.72-5.27,6.93-8.91,12.49-10.76c8.32-2.76,15.92-1.19,22.62,4.51
			c0.29,0.25,0.52,0.56,0.79,0.84c-0.73,1.32-1.97,2.15-3.1,3.04c-4.54,3.54-9.71,5.67-15.42,6.2c-5.71,0.53-11.21-0.47-16.35-3.12
			C151.06,225.05,150.63,224.92,150.4,224.52z"/>
	</g>
</g>
<g>
	<path class="st12" d="M279.78,213.89c3.7,1.93,6.76,4.52,8.72,8.28c0.3,0.57,0.42,1.25,0.9,1.73c0.35,1.29,0.71,2.58,1.06,3.88
		c-0.2,0.5,0.02,0.98,0.05,1.47c0.59,9.7-6.41,18.09-15.91,19.1c-7.67,0.82-14.38-2.81-18.04-9.6c-0.85-1.58-1.43-3.29-1.73-5.07
		c-0.16-0.95-0.19-0.96-1.13-0.71c-2.82,0.77-5.63,1.56-8.45,2.29c-0.69,0.18-0.77,0.46-0.55,1.06c1.66,4.46,1.65,8.94-0.26,13.3
		c-2.76,6.32-7.63,10.08-14.47,10.89c-7.65,0.91-14.59-2.8-18.08-9.62c-2.93-5.72-2.65-11.51,0.36-17.16
		c0.3-0.57,0.63-1.12,0.95-1.67c0.26-0.06,0.38-0.27,0.53-0.46c3.34-4.2,7.72-6.55,13.05-6.88c4.62-0.28,8.8,1.09,12.45,4.02
		c1.04,0.83,1.89,1.84,2.85,2.75c-0.97-3.59-3.11-6.29-6.31-8.23c6.75-1.84,13.37-3.65,20.11-5.49c-1.79,3.33-2.25,6.72-1.26,10.27
		c0.54-2.77,1.47-5.35,3.08-7.69c2.29-3.33,5.35-5.65,9.15-6.94c3.56-1.2,7.18-1.21,10.81-0.17
		C278.37,213.45,278.99,213.93,279.78,213.89z M231.24,255.1c6.8-1.85,10.87-8.94,9.05-15.74c-1.83-6.83-8.96-10.93-15.79-9.08
		c-6.8,1.85-10.87,8.94-9.05,15.74C217.29,252.86,224.42,256.96,231.24,255.1z M275.89,242.92c6.8-1.84,10.88-8.93,9.07-15.73
		c-1.82-6.83-8.95-10.94-15.78-9.09c-6.8,1.84-10.88,8.93-9.07,15.73C261.94,240.65,269.06,244.76,275.89,242.92z"/>
	<path class="st13" d="M279.78,213.89c-0.78,0.04-1.41-0.44-2.12-0.64c-3.63-1.04-7.25-1.03-10.81,0.17
		c-3.8,1.29-6.86,3.61-9.15,6.94c-1.61,2.34-2.54,4.92-3.08,7.69c-0.99-3.55-0.53-6.94,1.26-10.27c-6.73,1.84-13.36,3.65-20.11,5.49
		c3.2,1.94,5.34,4.64,6.31,8.23c-0.96-0.91-1.82-1.92-2.85-2.75c-3.64-2.93-7.83-4.3-12.45-4.02c-5.33,0.33-9.71,2.68-13.05,6.88
		c-0.15,0.19-0.27,0.4-0.53,0.46c0.69-1.71,1.63-3.3,2.47-4.94c2.28-4.49,4.58-8.97,6.91-13.43c1.09-2.08,2.86-3.43,5.02-4.28
		c0.1-0.02,0.21-0.03,0.31-0.06c3.75-1.1,8,0.38,10.14,3.83c0.12,0.19,0.18,0.47,0.5,0.46c0.48,1.7,0.98,3.39,1.44,5.09
		c0.12,0.46,0.28,0.59,0.77,0.45c2.91-0.82,5.82-1.61,8.74-2.39c0.49-0.13,0.56-0.32,0.43-0.78c-0.47-1.7-0.9-3.41-1.35-5.12
		c0.33-0.27,0.18-0.64,0.2-0.97c0.17-2.08,0.93-3.9,2.34-5.45c1.3-1.43,2.91-2.29,4.74-2.79c3.22-0.62,5.87,0.63,8.49,2.34
		c4.93,3.22,9.95,6.31,14.93,9.46C279.46,213.61,279.69,213.67,279.78,213.89z"/>
	<path class="st13" d="M238.55,213.65c-0.32,0.01-0.38-0.27-0.5-0.46c-2.14-3.45-6.4-4.93-10.14-3.83c-0.1,0.03-0.21,0.04-0.31,0.06
		c0.44-1.88,2.14-3.45,4.04-3.72c2.18-0.31,4.32,0.69,5.32,2.61C237.82,209.97,238.1,211.84,238.55,213.65z"/>
	<path class="st13" d="M255.87,201.7c-1.83,0.5-3.44,1.36-4.74,2.79c-1.41,1.56-2.17,3.37-2.34,5.45c-0.03,0.33,0.12,0.7-0.2,0.97
		c-0.54-1.78-1.24-3.54-1.35-5.42c-0.12-2.16,1.23-4.11,3.26-4.95C252.27,199.81,254.54,200.3,255.87,201.7z"/>
	<path class="st14" d="M231.24,255.1c-6.83,1.85-13.96-2.25-15.79-9.08c-1.82-6.8,2.25-13.9,9.05-15.74
		c6.83-1.85,13.96,2.25,15.79,9.08C242.12,246.16,238.04,253.26,231.24,255.1z M228.32,234.58c-2.68,0.73-4.32,3.59-3.61,6.28
		c0.72,2.71,3.62,4.38,6.33,3.64c2.68-0.73,4.32-3.59,3.61-6.28C233.93,235.5,231.03,233.83,228.32,234.58z"/>
	<path class="st14" d="M275.89,242.92c-6.83,1.85-13.96-2.26-15.78-9.09c-1.82-6.81,2.27-13.89,9.07-15.73
		c6.83-1.85,13.96,2.26,15.78,9.09C286.78,233.99,282.69,241.08,275.89,242.92z M279.3,225.98c-0.74-2.68-3.6-4.32-6.28-3.6
		c-2.71,0.72-4.38,3.62-3.63,6.33c0.74,2.68,3.6,4.32,6.28,3.6C278.38,231.59,280.04,228.69,279.3,225.98z"/>
	<path class="st14" d="M228.32,234.58c2.71-0.74,5.61,0.93,6.33,3.64c0.71,2.69-0.93,5.54-3.61,6.28c-2.71,0.74-5.61-0.93-6.33-3.64
		C224,238.17,225.64,235.31,228.32,234.58z"/>
	<path class="st14" d="M279.3,225.98c0.75,2.71-0.92,5.61-3.63,6.33c-2.68,0.72-5.54-0.92-6.28-3.6c-0.75-2.71,0.92-5.61,3.63-6.33
		C275.7,221.66,278.56,223.3,279.3,225.98z"/>
</g>
</svg>
