<?xml version="1.0" encoding="utf-8"?>
<!-- Generator: Adobe Illustrator 25.2.0, SVG Export Plug-In . SVG Version: 6.00 Build 0)  -->
<svg version="1.1" id="圖層_1" xmlns="http://www.w3.org/2000/svg" xmlns:xlink="http://www.w3.org/1999/xlink" x="0px" y="0px"
	 viewBox="0 0 330 330" style="enable-background:new 0 0 330 330;" xml:space="preserve">
<style type="text/css">
	.st0{fill:#33A574;}
	.st1{fill:#FADFDB;}
	.st2{fill:#AB71AE;}
	.st3{fill:#FADFDB;stroke:#3E3A39;stroke-width:13;stroke-linecap:round;stroke-linejoin:round;stroke-miterlimit:10;}
	.st4{fill:#FADFDB;stroke:#3E3A39;stroke-width:12.0214;stroke-linecap:round;stroke-linejoin:round;stroke-miterlimit:10;}
	.st5{fill:#3E3A39;}
	.st6{fill:#F1BC52;}
	.st7{fill:#F39800;}
	.st8{fill:#473535;}
	.st9{fill:#FD7D27;}
	.st10{fill:#FEFEFE;}
	.st11{fill:#FD81B5;}
	.st12{fill:#595757;}
	.st13{fill:#8B8995;}
	.st14{fill:#FFFFFF;}
	.st15{fill:#3ABFF7;}
	.st16{fill:#3E3A39;stroke:#3E3A39;stroke-width:8;stroke-miterlimit:10;}
	.st17{fill:#FEBF7B;}
	.st18{fill:#9C511F;}
	.st19{fill:#E72423;}
	.st20{fill:#A35928;}
	.st21{fill:#DC2121;}
	.st22{fill:#F5F4F5;}
	.st23{fill:#F5F4F6;}
	.st24{fill:#F6F1F2;}
	.st25{font-family:'GenSenRoundedTW-H';}
	.st26{font-size:35.0174px;}
	.st27{fill:#D5A88A;}
	.st28{fill:#804F43;}
	.st29{fill:#F3F5F7;}
	.st30{fill:#FDFEFD;}
	.st31{fill:#5BC266;}
	.st32{fill:#727171;}
	.st33{fill:#006934;}
	.st34{fill:#8FC31F;}
	.st35{fill:#7789A3;}
	.st36{fill:#FDFDFC;}
	.st37{fill:#E8E153;}
	.st38{fill:#C4C8F6;}
	.st39{fill:#FDA732;}
	.st40{fill:#FDDA41;}
	.st41{fill:#FD9923;}
	.st42{fill:none;stroke:#7E318E;stroke-width:4.2517;stroke-linecap:round;stroke-linejoin:round;stroke-miterlimit:10;}
	.st43{fill:#FEB643;}
	.st44{fill:#994C0F;}
	.st45{fill:#713708;}
	.st46{clip-path:url(#SVGID_2_);fill:#FD7D27;}
</style>
<text transform="matrix(1 0 0 1 14.9351 -13.6882)" class="st14 st25 st26">ISTJ</text>
<circle class="st15" cx="165" cy="165" r="165"/>
<g>
	<circle class="st1" cx="165" cy="165" r="101.36"/>
	<g>
		<path class="st5" d="M244.56,140.47v-6.1c0-2.38-1.94-4.32-4.33-4.32h-2.92h-62.59c-1.02,0-2,0.35-2.77,1l-4.17,3.47
			c-1.6,1.34-3.94,1.34-5.55,0l-4.17-3.47c-0.77-0.65-1.76-1-2.77-1H92.69h-2.92c-2.39,0-4.33,1.94-4.33,4.32v6.1
			c0,0.94-0.14,2.29,2.41,4.07c0,0,3.56,2.03,4.84,8.9c1.98,10.69,14.6,30.45,38.19,26.44c23.34-3.97,21.01-27.77,34.12-28.94
			c13.11,1.17,10.78,24.97,34.12,28.94c23.6,4.01,36.21-15.75,38.19-26.44c1.28-6.87,4.84-8.9,4.84-8.9
			C244.69,142.76,244.56,141.41,244.56,140.47z M106.1,158.19c-3.39-4.75-6.79-20,1.36-20s14.26,0,14.26,0
			S111.87,141.58,106.1,158.19z M188.25,158.19c-3.39-4.75-6.79-20,1.36-20c8.14,0,14.26,0,14.26,0S194.02,141.58,188.25,158.19z"/>
	</g>
</g>
<g>
	<path class="st27" d="M76.58,187.27c3.69-0.93,7.38-1.87,11.08-2.77c1.23-0.3,2.42,0.46,2.85,1.74c0.06,0.19,0.1,0.4,0.15,0.59
		c4.78,19.16,9.56,38.32,14.33,57.48c0.53,2.13-0.13,3.22-2.28,3.75c-14.48,3.61-28.95,7.22-43.43,10.83
		c-1.94,0.48-3.1-0.21-3.58-2.14c-4.8-19.23-9.58-38.47-14.41-57.7c-0.38-1.5,0.17-3.14,2.1-3.56c3.54-0.78,7.05-1.71,10.57-2.58
		c0.39,1.57,0.78,3.14,1.16,4.72c-2.45,0.62-4.9,1.24-7.35,1.86c-1.04,0.26-1.11,0.39-0.85,1.45c4.28,17.17,8.56,34.34,12.85,51.52
		c0.27,1.09,0.4,1.16,1.49,0.89c12.42-3.1,24.83-6.19,37.25-9.29c1.09-0.27,1.17-0.4,0.9-1.49c-4.28-17.17-8.56-34.34-12.85-51.52
		c-0.26-1.06-0.39-1.13-1.43-0.88c-2.46,0.6-4.91,1.2-7.37,1.81C77.37,190.41,76.98,188.84,76.58,187.27z"/>
	<path class="st28" d="M76.58,187.27c0.4,1.57,0.79,3.14,1.19,4.71c0.31,1.42,0.22,1.58-1.22,1.94c-6.48,1.62-12.95,3.23-19.43,4.85
		c-1.44,0.36-1.59,0.27-1.99-1.14c-0.39-1.57-0.78-3.14-1.16-4.72c-0.17-0.67-0.3-1.35-0.51-2c-0.23-0.73,0.1-1.05,0.75-1.21
		c1.51-0.37,3.02-0.77,4.54-1.12c0.52-0.12,0.65-0.27,0.6-0.87c-0.18-1.92,0.48-3.57,2.06-4.75c1.57-1.18,3.3-1.38,5.13-0.66
		c1.47,0.58,2.41,1.66,2.95,3.11c0.16,0.43,0.39,0.38,0.71,0.3c1.51-0.38,3.02-0.76,4.54-1.13c0.98-0.24,1.16-0.13,1.4,0.83
		C76.27,186.03,76.43,186.65,76.58,187.27z M65.87,186.78c-0.18-0.7-0.95-1.16-1.66-0.99c-0.7,0.17-1.18,0.94-1.02,1.65
		c0.17,0.74,0.98,1.22,1.71,1.02C65.59,188.26,66.05,187.48,65.87,186.78z"/>
	<path class="st14" d="M55.13,197.62c0.39,1.4,0.55,1.5,1.99,1.14c6.48-1.62,12.95-3.23,19.43-4.85c1.44-0.36,1.53-0.51,1.22-1.94
		c2.46-0.6,4.91-1.2,7.37-1.81c1.04-0.26,1.17-0.18,1.43,0.88c4.28,17.17,8.57,34.34,12.85,51.52c0.27,1.09,0.19,1.21-0.9,1.49
		c-12.42,3.1-24.83,6.19-37.25,9.29c-1.09,0.27-1.22,0.2-1.49-0.89c-4.28-17.17-8.57-34.34-12.85-51.52
		c-0.26-1.06-0.19-1.18,0.85-1.45C50.23,198.87,52.68,198.24,55.13,197.62z M63.07,211.01c0.96,3.85,4.89,6.21,8.74,5.25
		c3.8-0.95,6.18-4.88,5.24-8.69c-0.95-3.86-4.87-6.24-8.72-5.29C64.47,203.24,62.11,207.15,63.07,211.01z M73.62,223.56
		c4.06-1.01,8.13-2.03,12.19-3.04c0.25-0.06,0.5-0.1,0.74-0.19c0.79-0.3,0.94-1.24,0.27-1.78c-0.4-0.32-0.84-0.29-1.31-0.17
		c-8.28,2.07-16.55,4.13-24.83,6.2c-0.87,0.22-1.3,0.75-1.15,1.43c0.15,0.7,0.66,0.9,1.66,0.65
		C65.34,225.63,69.48,224.59,73.62,223.56z M75.17,229.81c4.16-1.04,8.32-2.08,12.49-3.11c0.84-0.21,1.25-0.72,1.1-1.36
		c-0.15-0.64-0.77-0.93-1.6-0.72c-8.32,2.07-16.65,4.15-24.97,6.23c-0.84,0.21-1.25,0.75-1.1,1.38c0.16,0.64,0.77,0.91,1.6,0.7
		C66.85,231.88,71.01,230.85,75.17,229.81z M76.21,233.97c-4.19,1.04-8.37,2.09-12.56,3.13c-0.6,0.15-1.07,0.4-1.05,1.1
		c0.01,0.75,0.75,1.19,1.64,0.97c8.32-2.07,16.64-4.15,24.97-6.23c0.84-0.21,1.27-0.82,1.08-1.47c-0.16-0.55-0.81-0.8-1.59-0.61
		C84.53,231.89,80.37,232.93,76.21,233.97z M71.29,241.83c-2.08,0.52-4.16,1.05-6.25,1.55c-0.47,0.11-0.79,0.31-0.87,0.82
		c-0.13,0.84,0.61,1.45,1.55,1.22c4.12-1.02,8.23-2.04,12.35-3.08c0.75-0.19,1.13-0.76,0.99-1.4c-0.15-0.66-0.65-0.89-1.52-0.68
		C75.45,240.79,73.37,241.31,71.29,241.83z"/>
	<path class="st29" d="M65.87,186.78c0.18,0.7-0.28,1.48-0.97,1.67c-0.73,0.2-1.53-0.28-1.71-1.02c-0.16-0.7,0.32-1.48,1.02-1.65
		C64.91,185.61,65.69,186.08,65.87,186.78z"/>
	<path class="st27" d="M73.62,223.56c-4.14,1.03-8.28,2.06-12.42,3.1c-1,0.25-1.51,0.05-1.66-0.65c-0.15-0.68,0.28-1.21,1.15-1.43
		c8.28-2.07,16.55-4.13,24.83-6.2c0.47-0.12,0.91-0.15,1.31,0.17c0.66,0.54,0.52,1.48-0.27,1.78c-0.24,0.09-0.49,0.13-0.74,0.19
		C81.75,221.53,77.68,222.55,73.62,223.56z"/>
	<path class="st27" d="M75.17,229.81c-4.16,1.04-8.32,2.08-12.49,3.11c-0.83,0.21-1.44-0.07-1.6-0.7c-0.16-0.63,0.26-1.17,1.1-1.38
		c8.32-2.08,16.65-4.15,24.97-6.23c0.83-0.21,1.46,0.09,1.6,0.72c0.15,0.64-0.27,1.15-1.1,1.36
		C83.49,227.73,79.33,228.77,75.17,229.81z"/>
	<path class="st27" d="M76.21,233.97c4.16-1.04,8.32-2.08,12.48-3.11c0.78-0.19,1.43,0.06,1.59,0.61c0.19,0.66-0.24,1.26-1.08,1.47
		c-8.32,2.08-16.64,4.15-24.97,6.23c-0.89,0.22-1.63-0.22-1.64-0.97c-0.01-0.7,0.45-0.95,1.05-1.1
		C67.84,236.06,72.02,235.01,76.21,233.97z"/>
	<path class="st27" d="M71.29,241.83c2.08-0.52,4.16-1.04,6.25-1.56c0.87-0.22,1.37,0.01,1.52,0.68c0.14,0.63-0.24,1.21-0.99,1.4
		c-4.11,1.03-8.23,2.06-12.35,3.08c-0.94,0.23-1.68-0.38-1.55-1.22c0.08-0.51,0.4-0.71,0.87-0.82
		C67.13,242.88,69.21,242.35,71.29,241.83z"/>
	<ellipse class="st30" cx="71.06" cy="208.45" rx="11.55" ry="8.02"/>
	<g>
		<path class="st31" d="M62.64,210.75c-0.15-0.68,0.05-1.24,0.58-1.68c0.52-0.42,1.24-0.48,1.83-0.13c0.98,0.58,1.97,1.16,2.93,1.77
			c0.27,0.17,0.36,0.11,0.5-0.14c1.51-2.53,3.02-5.05,4.54-7.57c0.52-0.87,1.51-1.15,2.32-0.65c0.71,0.43,0.98,1.34,0.63,2.09
			c-0.06,0.12-0.13,0.24-0.2,0.36c-1.79,2.98-3.58,5.97-5.38,8.95c-0.67,1.12-1.53,1.33-2.64,0.65c-1.43-0.86-2.85-1.72-4.28-2.58
			C63.06,211.58,62.76,211.24,62.64,210.75z"/>
	</g>
</g>
</svg>
