<!-- Generator: Adobe Illustrator 25.2.0, SVG Export Plug-In . SVG Version: 6.00 Build 0)  -->
<svg version="1.1" id="圖層_1" xmlns="http://www.w3.org/2000/svg" xmlns:xlink="http://www.w3.org/1999/xlink" x="0px" y="0px"
	 viewBox="0 0 500 150" style="enable-background:new 0 0 500 150;" xml:space="preserve">
<style type="text/css">
	.st0_WLOGO{fill:#FFFFFF;}
	.st1_WLOGO{fill:url(#SVGID_1_);}
	.st2_WLOGO{fill:#25A3A8;}
	.st3_WLOGO{fill:#5ECAD6;}
	.st4_WLOGO{fill:url(#SVGID_2_);}
	.st5_WLOGO{fill:url(#SVGID_3_);}
	.st6_WLOGO{fill:url(#SVGID_4_);}
	.st7_WLOGO{fill:url(#SVGID_5_);}
	.st8_WLOGO{fill:url(#SVGID_6_);}
	.st9_WLOGO{fill:url(#SVGID_7_);}
	.st10_WLOGO{fill:url(#SVGID_8_);}
	.st11_WLOGO{fill:url(#SVGID_9_);}
	.st12_WLOGO{fill:url(#SVGID_10_);}
</style>
<g>
	<g>
		<path class="st0_WLOGO" d="M110.95,84.28L87.53,36.22c-2.55-5.24-7.74-8.26-13.57-7.91c-2.37,0.15-4.64,0.86-6.59,2.06
			c-2.36-1.42-5.13-1.98-7.98-1.82c-5.02,0.23-10.44,3.82-12.31,9.25l-21.74,63.37c-1.32,3.84,0.73,8.06,4.56,9.41
			c1.88,0.66,3.9,0.55,5.7-0.32c1.79-0.87,3.14-2.39,3.78-4.27l23.25-67.77c0.32-0.93,0.74-1.83,1.24-2.65
			c0.76-1.24,2.08-1.99,3.52-2c0.01,0,0.02,0,0.03,0c1.41,0,2.7,0.72,3.45,1.92c0.27,0.43,0.52,0.89,0.75,1.35L99.49,95.1
			c0.27,0.55,1.63,3.61,1.75,4.28c0.37,2.08,0.19,3.79-1.5,5.67c-1.04,1.16-2.29,1.67-3.97,1.84c-0.77,0.08-2.33-0.02-2.95,0
			l-36.65,0c-2.04,0-4.03,0.84-5.48,2.31c-1.4,1.43-2.16,3.28-2.13,5.23c0.07,4.02,3.39,7.29,7.41,7.29l27.31,0
			c6.7,0,12.85-2.96,16.4-8.96c1.07-1.81,1.9-3.72,2.36-5.74c3.31-1.73,5.84-4.36,7.46-7.07C111.92,95.88,113.07,90.13,110.95,84.28
			z"/>
		<circle class="st2_WLOGO" cx="32.37" cy="103.59" r="7.43"/>
		<circle class="st3_WLOGO" cx="56.01" cy="114.28" r="7.43"/>
	</g>
	<g>
		<g>
			<path class="st0_WLOGO" d="M244.7,77.59l-13.33,0c-1.92,0-3.47-1.55-3.47-3.47c0-1.92,1.55-3.47,3.47-3.47h13.33
				c1.92,0,3.47,1.55,3.47,3.47C248.17,76.04,246.62,77.59,244.7,77.59z"/>
			<path class="st0_WLOGO" d="M244.53,55.18l-12.51,0c-2.01,0-3.64-1.63-3.64-3.64c0-2.01,1.63-3.64,3.64-3.64l12.51,0
				c2.01,0,3.64,1.63,3.64,3.64S246.54,55.18,244.53,55.18z"/>
			<path class="st0_WLOGO" d="M230.02,112.53c-1.58,0-3.03-1.05-3.46-2.65c-0.52-1.91,0.61-3.89,2.53-4.4c7.34-1.99,11.9-8.35,11.9-14.47
				l0-16.32c0-1.98,1.61-3.59,3.59-3.59s3.59,1.61,3.59,3.59l0,16.32c0,9.36-6.75,18.57-17.21,21.4
				C230.65,112.49,230.33,112.53,230.02,112.53z"/>
			<path class="st0_WLOGO" d="M277.09,112.59c-7.42,0-14.49-0.34-18.41-1.16c-9.48-1.98-15.07-6.58-18.13-14.92
				c-0.68-1.86,0.27-3.92,2.14-4.61c1.86-0.68,3.92,0.27,4.61,2.14c2.19,5.98,5.79,8.88,12.85,10.36c7.62,1.59,30.59,1.08,39.1-0.11
				c1.98-0.28,3.78,1.1,4.05,3.06c0.28,1.96-1.09,3.78-3.06,4.05C295.15,112.11,285.88,112.59,277.09,112.59z"/>
			<path class="st0_WLOGO" d="M251.1,66.81c-1.08,0-2.14-0.52-2.8-1.5c-1.07-1.57-0.67-3.73,0.87-4.81c5.93-4.15,14.98-12.99,18.25-17.79
				c1.63-2.39,4.15-3.85,6.9-3.98c2.81-0.14,5.5,1.08,7.37,3.34c4.25,5.11,16.13,15.89,20.16,18.53c1.58,1.03,2.04,3.17,1.02,4.78
				c-1.01,1.61-3.11,2.07-4.7,1.04c-4.96-3.24-17.49-14.84-21.68-19.89c-0.5-0.6-1.17-0.92-1.85-0.89
				c-0.64,0.03-1.21,0.38-1.63,1.01c-1.04,1.53-11.71,13.76-19.99,19.55C252.44,66.61,251.77,66.81,251.1,66.81z"/>
			<path class="st0_WLOGO" d="M286.54,64.29l-23.07,0c-1.69,0-3.06-1.37-3.06-3.06s1.37-3.06,3.06-3.06l23.07,0
				c1.69,0,3.06,1.37,3.06,3.06S288.23,64.29,286.54,64.29z"/>
			<path class="st0_WLOGO" d="M295.31,77.21l-40.61,0c-1.69,0-3.06-1.37-3.06-3.06c0-1.69,1.37-3.06,3.06-3.06l40.61,0
				c1.69,0,3.06,1.37,3.06,3.06S297,77.21,295.31,77.21z"/>
			<path class="st0_WLOGO" d="M271.01,100.85c-0.53,0-1.45-0.01-2.06-0.01c-0.82-0.01-0.42-0.02-1.48-0.02c-1.84,0-3.32-1.49-3.32-3.32
				s1.49-3.32,3.32-3.32c1.08,0,0.7,0.01,1.54,0.02c1.11,0.01,2.24,0.02,3.04-0.01c0.01-0.39,0.01-0.83,0.01-1.25V62.38
				c0-1.84,1.49-3.32,3.32-3.32c1.84,0,3.67,1.49,3.67,3.32v30.54c0,2.62,0,4.68-1.61,6.28
				C275.97,100.65,274.18,100.85,271.01,100.85z"/>
			<path class="st0_WLOGO" d="M255.42,95.59c-1.25,0.17-2.55-0.39-3.26-1.53c-0.98-1.55-0.51-3.61,1.05-4.58
				c3.32-2.08,5.73-4.45,7.83-7.69c1-1.54,3.06-1.98,4.6-0.98c1.54,1,1.98,3.06,0.98,4.6c-2.62,4.04-5.75,7.12-9.87,9.71
				C256.33,95.37,255.88,95.53,255.42,95.59z"/>
			<path class="st0_WLOGO" d="M295.38,96.26c-0.95-0.12-1.85-0.65-2.4-1.53c-1.8-2.88-4.84-5.79-8.56-8.2c-1.54-1-1.98-3.06-0.98-4.6
				c1-1.54,3.06-1.98,4.6-0.98c3.19,2.07,7.61,5.52,10.57,10.24c0.98,1.56,0.51,3.61-1.05,4.58
				C296.89,96.2,296.11,96.35,295.38,96.26z"/>
		</g>
		<g>
			<path class="st0_WLOGO" d="M338.96,46.81l-16.38,0c-1.76,0-3.19-1.43-3.19-3.19c0-1.76,1.43-3.19,3.19-3.19l16.38,0
				c1.76,0,3.19,1.43,3.19,3.19C342.15,45.38,340.72,46.81,338.96,46.81z"/>
			<path class="st0_WLOGO" d="M376.66,69.15l-21.54,0c-1.84,0-3.32,1.49-3.32,3.32c0,1.84,1.49,3.32,3.32,3.32h21.54
				c1.84,0,3.32-1.49,3.32-3.32S378.5,69.15,376.66,69.15z"/>
			<path class="st0_WLOGO" d="M340.29,69.88l-19.04,0c-1.76,0-3.19-1.43-3.19-3.19c0-1.76,1.43-3.19,3.19-3.19l19.04,0
				c1.76,0,3.19,1.43,3.19,3.19C343.48,68.45,342.05,69.88,340.29,69.88z"/>
			<path class="st0_WLOGO" d="M340.29,81.23l-19.04,0c-1.76,0-3.19-1.43-3.19-3.19s1.43-3.19,3.19-3.19l19.04,0
				c1.76,0,3.19,1.43,3.19,3.19S342.05,81.23,340.29,81.23z"/>
			<path class="st0_WLOGO" d="M345.31,58.54l-29.07,0c-1.76,0-3.19-1.43-3.19-3.19c0-1.76,1.43-3.19,3.19-3.19l29.07,0
				c1.76,0,3.19,1.43,3.19,3.19C348.5,57.11,347.07,58.54,345.31,58.54z"/>
			<path class="st0_WLOGO" d="M341.06,91.8l-21.05,0c-1.65,0-2.99-1.34-2.99-2.99c0-1.65,1.34-2.99,2.99-2.99l21.05,0
				c1.65,0,2.99,1.34,2.99,2.99C344.06,90.46,342.72,91.8,341.06,91.8z"/>
			<path class="st0_WLOGO" d="M333.62,111.55h-13.6c-1.65,0-2.99-1.34-2.99-2.99s1.34-2.99,1.66-2.99h16.26c2.98,0,2.99,1.34,2.99,2.99
				S335.27,111.55,333.62,111.55z"/>
			<path class="st0_WLOGO" d="M320.01,111.51c-1.91,0-3.46-1.55-3.46-3.46V89.48c0-1.91,1.55-3.46,3.46-3.46s3.69,1.55,3.69,3.46l0,18.58
				C323.71,109.97,321.92,111.51,320.01,111.51z"/>
			<path class="st0_WLOGO" d="M341.06,105c-1.91,0-3.69,0.89-3.69-2.35V88.15c0-0.58,1.78-2.13,3.69-2.13c1.91,0,3.46,1.55,3.46,3.46
				v10.74C344.52,102.12,342.97,105,341.06,105z"/>
			<path class="st0_WLOGO" d="M383.48,43.21c-0.58-0.95-1.63-1.59-2.83-1.59l-25.53,0c-1.84,0-3.32,1.49-3.32,3.32
				c0,1.84,1.49,3.32,3.32,3.32l21.88,0l0,19.4c0,2.02,1.64,3.66,3.66,3.66c2.02,0,3.66-1.64,3.66-3.66V45.5
				C384.31,44.63,383.99,43.83,383.48,43.21z"/>
			<path class="st0_WLOGO" d="M333.62,111.55c7.81,0,10.9-4.55,10.9-11.34c0-4-5.24,5.72-5.24,5.72L333.62,111.55z"/>
			<path class="st0_WLOGO" d="M334.01,105.56c2.26,0,3.36-1.58,3.36-3.86c0-0.79,4.06,4.21,4.06,4.21l-3.28,3.43L334.01,105.56z"/>
			<path class="st0_WLOGO" d="M375.76,111.6l-16.67,0c-3.48,0-7.64-1.37-7.64-7.91V72.8c0-2.02,1.64-3.66,3.66-3.66
				c2.02,0,3.77,1.64,3.77,3.66l0,30.89c0,0.24,0.01,0.43,0.02,0.59c0.09,0,0.19,0.01,0.3,0.01l16.56,0c5.23,0,6.56-3.17,6.56-9.42
				c0-2.02,1.64-3.66,3.66-3.66c2.02,0,3.66,1.64,3.66,3.66C389.64,105.19,385.14,111.6,375.76,111.6z M358.98,104.81h0.01H358.98z"
				/>
			<path class="st0_WLOGO" d="M384.31,67.66c0,3.48-3.56,8.14-7.65,8.14c-4.09,0-3.37-6.65-1.92-6.65s2.25-0.95,2.25-1.95
				S384.31,67.66,384.31,67.66z"/>
		</g>
		<g>
			<path class="st0_WLOGO" d="M211.81,49.7l-65.15,0c-1.8,0-3.26-1.46-3.26-3.26c0-1.8,1.46-3.26,3.26-3.26l65.15,0
				c1.8,0,3.26,1.46,3.26,3.26C215.06,48.25,213.61,49.7,211.81,49.7z"/>
			<g>
				<path class="st0_WLOGO" d="M167.83,53.72c-2.02,0-3.66-1.64-3.66-3.66v-9.1c0-2.02,1.64-3.66,3.66-3.66s3.66,1.64,3.66,3.66v9.1
					C171.49,52.08,169.85,53.72,167.83,53.72z"/>
				<path class="st0_WLOGO" d="M190.64,53.72c-2.02,0-3.66-1.64-3.66-3.66l0-9.1c0-2.02,1.64-3.66,3.66-3.66s3.66,1.64,3.66,3.66v9.1
					C194.29,52.08,192.66,53.72,190.64,53.72z"/>
			</g>
			<path class="st0_WLOGO" d="M178.47,82.24l-23.3,0c-1.47,0-2.66,1.19-2.66,2.66s2.52,2.66,3.99,2.66l21.97,0c1.47,0,2.66-1.19,2.66-2.66
				S179.94,82.24,178.47,82.24z"/>
			<path class="st0_WLOGO" d="M174.69,68.98l-15.66,0c-1.1,0-1.99-0.89-1.99-1.99s0.89-1.99,1.99-1.99l15.66,0c1.1,0,1.99,0.89,1.99,1.99
				C176.69,68.09,175.79,68.98,174.69,68.98z"/>
			<path class="st0_WLOGO" d="M174.69,77.45h-15.66c-1.1,0-1.99-0.89-1.99-1.99s0.89-1.99,1.99-1.99l15.66,0c1.1,0,1.99,0.89,1.99,1.99
				S175.79,77.45,174.69,77.45z"/>
			<path class="st0_WLOGO" d="M178.47,55.41l-27.27,0c-1.47,0-2.66,1.19-2.66,2.66s1.19,2.66,2.66,2.66l27.27,0
				c1.47,0,2.66-1.19,2.66-2.66S179.94,55.41,178.47,55.41z"/>
			<path class="st0_WLOGO" d="M151.2,55.45c-1.84,0-3.32,1.49-3.32,3.32l0,19.87c0,1.84,1.49,3.32,3.32,3.32c1.84,0,3.32-1.49,3.32-3.32
				l0-19.87C154.53,56.94,153.04,55.45,151.2,55.45z"/>
			<path class="st0_WLOGO" d="M157.09,111c-1.91,0-3.46-1.55-3.46-3.46V94.57c0-1.91,1.55-3.46,3.46-3.46c1.91,0,3.46,1.55,3.46,3.46
				l0,12.98C160.55,109.45,159,111,157.09,111z"/>
			<path class="st0_WLOGO" d="M171.91,110.87c-1.84,0-3.32-1.49-3.32-3.32V94.35c0-1.84,1.49-3.32,3.32-3.32s3.32,1.49,3.32,3.32l0,13.19
				C175.24,109.38,173.75,110.87,171.91,110.87z"/>
			<path class="st0_WLOGO" d="M186.5,110.87c-1.84,0-3.32-1.49-3.32-3.32V94.35c0-1.84,1.49-3.32,3.32-3.32s3.32,1.49,3.32,3.32v13.19
				C189.83,109.38,188.34,110.87,186.5,110.87z"/>
			<path class="st0_WLOGO" d="M201.46,111c-1.91,0-3.46-1.55-3.46-3.46V94.57c0-1.91,1.55-3.46,3.46-3.46c1.91,0,3.46,1.55,3.46,3.46
				v12.98C204.92,109.45,203.37,111,201.46,111z"/>
			<path class="st0_WLOGO" d="M174.03,77.29c-1.54,0-2.79-1.25-2.79-2.79v-6.45c0-1.54,1.25-2.79,2.79-2.79s2.79,1.25,2.79,2.79v6.45
				C176.82,76.04,175.57,77.29,174.03,77.29z"/>
			<path class="st0_WLOGO" d="M165.43,68.68c-1.65,0-2.99-1.34-2.99-2.99v-6.05c0-1.65,1.34-2.99,2.99-2.99c1.65,0,2.99,1.34,2.99,2.99
				v6.05C168.42,67.34,167.08,68.68,165.43,68.68z"/>
			<path class="st0_WLOGO" d="M165.43,86.19c-1.65,0-2.99-1.34-2.99-2.99v-6.05c0-1.65,1.34-2.99,2.99-2.99c1.65,0,2.99,1.34,2.99,2.99
				l0,6.05C168.42,84.86,167.08,86.19,165.43,86.19z"/>
			<path class="st0_WLOGO" d="M182.24,76.11c-0.84,0-1.68-0.32-2.33-0.95c-1.31-1.29-1.33-3.39-0.04-4.7c3.28-3.34,7.36-10.03,8.62-13
				c0.72-1.69,2.67-2.48,4.36-1.76c1.69,0.72,2.48,2.67,1.76,4.36c-1.31,3.09-5.78,10.77-10,15.07
				C183.96,75.78,183.1,76.11,182.24,76.11z"/>
			<path class="st0_WLOGO" d="M210.18,68.31l-20.17,0c-1.65,0-2.99-1.34-2.99-2.99c0-1.65,1.34-2.99,2.99-2.99l20.17,0
				c1.65,0,2.99,1.34,2.99,2.99C213.18,66.97,211.84,68.31,210.18,68.31z"/>
			<path class="st0_WLOGO" d="M209.85,83.42l-22.82,0c-1.65,0-2.99-1.34-2.99-2.99c0-1.65,1.34-2.99,2.99-2.99l22.82,0
				c1.65,0,2.99,1.34,2.99,2.99C212.84,82.08,211.5,83.42,209.85,83.42z"/>
			<path class="st0_WLOGO" d="M200.53,96.27l-42.48,0c-1.47,0-2.66-1.19-2.66-2.66s1.19-2.66,2.66-2.66l42.48,0
				c1.47,0,2.66,1.19,2.66,2.66S202,96.27,200.53,96.27z"/>
			<path class="st0_WLOGO" d="M212.9,112.2l-67.24,0c-1.84,0-3.32-1.49-3.32-3.32c0-1.84,1.49-3.32,3.32-3.32l67.24,0
				c1.84,0,3.32,1.49,3.32,3.32C216.23,110.71,214.74,112.2,212.9,112.2z"/>
			<path class="st0_WLOGO" d="M147.88,78.64c0,5.14,3.63,8.92,8.62,8.92c0,0,3.11-5.32,1.16-5.32s-3.13-1.83-3.13-3.6
				C154.53,76.87,147.88,78.64,147.88,78.64z"/>
		</g>
		<g>
			<path class="st0_WLOGO" d="M425.51,61.1l-22.26,0c-1.84,0-3.32-1.49-3.32-3.32s1.49-3.32,3.32-3.32l22.26,0c1.84,0,3.32,1.49,3.32,3.32
				C428.84,59.61,427.35,61.1,425.51,61.1z"/>
			<path class="st0_WLOGO" d="M414.38,114c-1.84,0-3.32-1.49-3.32-3.32V70.12c0-1.84,1.49-3.32,3.32-3.32s3.32,1.49,3.32,3.32l0,40.55
				C417.71,112.51,416.22,114,414.38,114z"/>
			<path class="st0_WLOGO" d="M403.25,93.13c-1.84,0-3.32-1.49-3.32-3.32v-32c0-1.84,1.49-3.32,3.32-3.32c1.84,0,3.32,1.49,3.32,3.32l0,32
				C406.58,91.64,405.09,93.13,403.25,93.13z"/>
			<path class="st0_WLOGO" d="M414.38,59.43c-1.84,0-3.32-1.49-3.32-3.32V41.78c0-1.84,1.49-3.32,3.32-3.32s3.32,1.49,3.32,3.32v14.33
				C417.71,57.95,416.22,59.43,414.38,59.43z"/>
			<g>
				<path class="st0_WLOGO" d="M466.48,47.74l-24.5,0c-1.84,0-3.32-1.49-3.32-3.32c0-1.84,1.49-3.32,3.32-3.32l24.5,0
					c1.84,0,3.32,1.49,3.32,3.32S468.32,47.74,466.48,47.74z"/>
				<path class="st0_WLOGO" d="M470.84,81.29l-42.3,0c-1.84,0-3.32-1.49-3.32-3.32c0-1.84,1.49-3.32,3.32-3.32l42.3,0
					c1.84,0,3.32,1.49,3.32,3.32C474.16,79.8,472.67,81.29,470.84,81.29z"/>
				<path class="st0_WLOGO" d="M437.99,108.63c-1.84,0-3.32-1.49-3.32-3.32l0-56.86c0-1.84,1.49-3.32,3.32-3.32s3.32,1.49,3.32,3.32
					l0,56.86C441.32,107.14,439.83,108.63,437.99,108.63z"/>
				<path class="st0_WLOGO" d="M462.99,58.65l-25,0c-1.54,0-2.79-1.25-2.79-2.79s1.25-2.79,2.79-2.79l25,0c1.54,0,2.79,1.25,2.79,2.79
					S464.54,58.65,462.99,58.65z"/>
				<path class="st0_WLOGO" d="M462.99,69.78l-25,0c-1.54,0-2.79-1.25-2.79-2.79c0-1.54,1.25-2.79,2.79-2.79l25,0
					c1.54,0,2.79,1.25,2.79,2.79C465.79,68.53,464.54,69.78,462.99,69.78z"/>
				<path class="st0_WLOGO" d="M428.42,112.69c-1.55,0-2.94-1.1-3.26-2.68c-0.36-1.8,0.81-3.55,2.62-3.91c7.28-1.44,13.33-3.6,18.49-6.62
					c1.58-0.92,3.62-0.39,4.55,1.2c0.93,1.59,0.39,3.62-1.19,4.55c-5.81,3.39-12.53,5.81-20.55,7.4
					C428.85,112.67,428.63,112.69,428.42,112.69z"/>
				<path class="st0_WLOGO" d="M458.68,99.3c-1.07,0-2.11-0.51-2.76-1.46c-1.03-1.52-0.63-3.59,0.89-4.62l9.71-6.57
					c1.52-1.03,3.59-0.63,4.62,0.89c1.03,1.52,0.63,3.59-0.89,4.62l-9.71,6.57C459.97,99.12,459.32,99.3,458.68,99.3z"/>
				<path class="st0_WLOGO" d="M471.73,112.69c-0.48,0-0.98-0.11-1.44-0.33c-10.4-5.02-20.14-16.1-23.08-24.44
					c-0.61-1.73,0.3-3.63,2.03-4.24c1.73-0.61,3.63,0.3,4.24,2.03c2.42,6.89,11.01,16.47,19.69,20.66c1.65,0.8,2.35,2.79,1.55,4.44
					C474.15,112,472.97,112.69,471.73,112.69z"/>
			</g>
			<path class="st0_WLOGO" d="M434.67,48.44c0-2.9,2.51-7.35,7.31-7.35s2.19,6.65,0.8,6.65c-0.98,0-1.46,0.59-1.46,1.38
				C441.32,49.93,434.67,48.44,434.67,48.44z"/>
			<path class="st0_WLOGO" d="M423.4,92.61c-0.86,0-1.72-0.33-2.37-0.99c-1.29-1.31-1.27-3.41,0.03-4.7c0.42-0.42,0.9-0.89,1.07-1.1
				c0.05-0.35,0.05-1.29,0.05-2.2v-25.8c0-1.84,1.49-3.32,3.32-3.32s3.32,1.49,3.32,3.32v25.8c0,4.29-0.21,5.19-3.11,8.04
				C425.08,92.29,424.24,92.61,423.4,92.61z"/>
		</g>
	</g>
</g>
</svg>